M48
;DRILL file {KiCad 4.0.6+dfsg1-1} date Mon Feb 26 19:32:09 2018
;FORMAT={2:4/ absolute / inch / suppress leading zeros}
FMAT,2
INCH,TZ
T1C0.016
T2C0.020
T3C0.031
T4C0.039
T5C0.039
T6C0.050
T7C0.051
T8C0.087
T9C0.126
%
G90
G05
M72
T1
X917Y7030
X4880Y4830
X8686Y4630
X9520Y4930
X9680Y8580
X12120Y7270
X13800Y7790
X19086Y4630
X20130Y12905
X23140Y7810
X23520Y6710
X23520Y6090
X27756Y9180
X28980Y9170
X35005Y8205
T2
X5235Y12930
X5512Y13598
X5512Y12262
X6180Y13875
X6180Y11985
X6848Y13598
X6848Y12262
X7125Y12930
X32635Y1930
X32912Y2598
X32912Y1262
X33580Y2875
X33580Y985
X34248Y2598
X34248Y1262
X34525Y1930
T3
X7480Y9430
X7480Y3430
X8480Y9430
X8480Y3430
X9480Y9430
X9480Y3430
X10480Y9430
X10480Y3430
X11480Y9430
X11480Y3430
X12480Y9430
X12480Y3430
X13480Y9430
X13480Y3430
X14480Y9430
X14480Y3430
X15480Y9430
X15480Y3430
X16480Y9430
X16480Y3430
X17480Y9430
X17480Y3430
X18480Y9430
X18480Y3430
X19480Y9430
X19480Y3430
X20480Y9430
X20480Y3430
X21480Y9430
X21480Y3430
X24480Y8030
X24480Y5030
X25480Y8030
X25480Y5030
X26480Y8030
X26480Y5030
X27480Y8030
X27480Y5030
X28480Y8030
X28480Y5030
X29480Y8030
X29480Y5030
X30480Y8030
X30480Y5030
X31480Y8030
X31480Y5030
X32480Y8030
X32480Y5030
X33480Y8030
X33480Y5030
T4
X780Y1830
X980Y5030
X980Y3930
X1780Y1830
X1980Y5030
X1980Y3930
X2780Y1830
X2980Y5030
X2980Y3930
X4080Y1830
X5080Y1830
X6080Y1830
X7480Y11030
X7480Y1830
X8480Y11030
X8480Y1830
X9480Y11030
X9480Y1830
X10480Y11030
X10480Y1830
X11480Y11030
X11480Y1830
X12480Y11030
X12480Y1830
X13460Y12390
X13480Y11030
X13480Y1830
X14460Y12390
X14480Y11030
X14480Y1830
X15460Y12390
X15480Y11030
X15480Y1830
X16460Y12390
X16480Y11030
X16480Y1830
X17480Y11030
X17480Y1830
X18480Y11030
X18480Y1830
X19480Y11030
X19480Y1830
X20480Y11030
X20480Y1830
X20540Y13530
X20540Y12270
X21480Y11030
X21480Y1830
X21540Y13530
X21540Y12270
X32000Y9390
X32020Y10950
X33000Y9390
X33020Y10950
X34000Y9390
X34020Y10950
T5
X26380Y1730
T6
X26380Y3230
T7
X1811Y12430
X3780Y12430
X24511Y12330
X26480Y12330
X27980Y2130
X29949Y2130
T8
X6880Y4930
X34180Y13130
T9
X6180Y12930
X33580Y1930
T0
M30
