G04 #@! TF.FileFunction,Copper,L1,Top,Signal*
%FSLAX46Y46*%
G04 Gerber Fmt 4.6, Leading zero omitted, Abs format (unit mm)*
G04 Created by KiCad (PCBNEW 4.0.6+dfsg1-1) date Mon Feb 26 19:47:00 2018*
%MOMM*%
%LPD*%
G01*
G04 APERTURE LIST*
%ADD10C,0.100000*%
%ADD11R,1.700000X1.700000*%
%ADD12O,1.700000X1.700000*%
%ADD13R,1.600000X1.600000*%
%ADD14O,1.600000X1.600000*%
%ADD15R,1.000000X1.250000*%
%ADD16C,1.998980*%
%ADD17R,1.998980X1.998980*%
%ADD18R,2.499360X2.301240*%
%ADD19R,0.700000X1.300000*%
%ADD20R,1.198880X1.198880*%
%ADD21R,1.300000X0.700000*%
%ADD22R,1.600000X3.500000*%
%ADD23R,3.500000X1.600000*%
%ADD24R,2.500000X2.500000*%
%ADD25C,2.500000*%
%ADD26R,2.500000X2.300000*%
%ADD27C,6.400000*%
%ADD28C,0.600000*%
%ADD29C,4.400000*%
%ADD30R,1.200000X1.200000*%
%ADD31C,0.500000*%
%ADD32C,2.000000*%
%ADD33C,1.000000*%
%ADD34C,0.250000*%
%ADD35C,3.000000*%
G04 APERTURE END LIST*
D10*
D11*
X1981200Y4648200D03*
D12*
X4521200Y4648200D03*
X7061200Y4648200D03*
D13*
X54559200Y23952200D03*
D14*
X21539200Y8712200D03*
X52019200Y23952200D03*
X24079200Y8712200D03*
X49479200Y23952200D03*
X26619200Y8712200D03*
X46939200Y23952200D03*
X29159200Y8712200D03*
X44399200Y23952200D03*
X31699200Y8712200D03*
X41859200Y23952200D03*
X34239200Y8712200D03*
X39319200Y23952200D03*
X36779200Y8712200D03*
X36779200Y23952200D03*
X39319200Y8712200D03*
X34239200Y23952200D03*
X41859200Y8712200D03*
X31699200Y23952200D03*
X44399200Y8712200D03*
X29159200Y23952200D03*
X46939200Y8712200D03*
X26619200Y23952200D03*
X49479200Y8712200D03*
X24079200Y23952200D03*
X52019200Y8712200D03*
X21539200Y23952200D03*
X54559200Y8712200D03*
X18999200Y23952200D03*
X18999200Y8712200D03*
D15*
X48479200Y11760200D03*
X50479200Y11760200D03*
X86833200Y10490200D03*
X88833200Y10490200D03*
X24063200Y11760200D03*
X22063200Y11760200D03*
D16*
X67005200Y8204200D03*
D17*
X67005200Y4394200D03*
D18*
X65598040Y23952200D03*
X61300360Y23952200D03*
D19*
X77607200Y23317200D03*
X75707200Y23317200D03*
X72400200Y23317200D03*
X70500200Y23317200D03*
D14*
X85039200Y20396200D03*
X82499200Y20396200D03*
X79959200Y20396200D03*
X77419200Y20396200D03*
X74879200Y20396200D03*
X72339200Y20396200D03*
X69799200Y20396200D03*
X67259200Y20396200D03*
X64719200Y20396200D03*
X62179200Y20396200D03*
X62179200Y12776200D03*
X64719200Y12776200D03*
X67259200Y12776200D03*
X69799200Y12776200D03*
X72339200Y12776200D03*
X74879200Y12776200D03*
X77419200Y12776200D03*
X79959200Y12776200D03*
X82499200Y12776200D03*
X85039200Y12776200D03*
D20*
X88849200Y17127220D03*
X88849200Y15029180D03*
D21*
X88849200Y20838200D03*
X88849200Y18938200D03*
D11*
X52171600Y34366200D03*
D12*
X54711600Y34366200D03*
D11*
X52171600Y31165800D03*
D12*
X54711600Y31165800D03*
D19*
X41285200Y21412200D03*
X39385200Y21412200D03*
X34813200Y21412200D03*
X36713200Y21412200D03*
D22*
X62306200Y8364200D03*
X62306200Y2964200D03*
X76047600Y27145000D03*
X76047600Y32545000D03*
D23*
X7729200Y17856200D03*
X2329200Y17856200D03*
D11*
X81330800Y27813000D03*
D12*
X83870800Y27813000D03*
X86410800Y27813000D03*
D11*
X81280000Y23850600D03*
D12*
X83820000Y23850600D03*
X86360000Y23850600D03*
D11*
X7569200Y9982200D03*
D12*
X5029200Y9982200D03*
X2489200Y9982200D03*
D11*
X54559200Y28016200D03*
D12*
X52019200Y28016200D03*
X49479200Y28016200D03*
X46939200Y28016200D03*
X44399200Y28016200D03*
X41859200Y28016200D03*
X39319200Y28016200D03*
X36779200Y28016200D03*
X34239200Y28016200D03*
X31699200Y28016200D03*
X29159200Y28016200D03*
X26619200Y28016200D03*
X24079200Y28016200D03*
X21539200Y28016200D03*
X18999200Y28016200D03*
D11*
X18999200Y4648200D03*
D12*
X21539200Y4648200D03*
X24079200Y4648200D03*
X26619200Y4648200D03*
X29159200Y4648200D03*
X31699200Y4648200D03*
X34239200Y4648200D03*
X36779200Y4648200D03*
X39319200Y4648200D03*
X41859200Y4648200D03*
X44399200Y4648200D03*
X46939200Y4648200D03*
X49479200Y4648200D03*
X52019200Y4648200D03*
X54559200Y4648200D03*
D11*
X34188400Y31470600D03*
D12*
X36728400Y31470600D03*
X39268400Y31470600D03*
X41808400Y31470600D03*
D11*
X7569200Y12776200D03*
D12*
X5029200Y12776200D03*
X2489200Y12776200D03*
D24*
X67259200Y31318200D03*
D25*
X62259200Y31318200D03*
D24*
X71069200Y5410200D03*
D25*
X76069200Y5410200D03*
D24*
X9601200Y31572200D03*
D25*
X4601200Y31572200D03*
D11*
X10363200Y4648200D03*
D12*
X12903200Y4648200D03*
X15443200Y4648200D03*
D26*
X6925200Y23698200D03*
X2625200Y23698200D03*
D27*
X85293200Y4902200D03*
D28*
X87693200Y4902200D03*
X86990256Y3205144D03*
X85293200Y2502200D03*
X83596144Y3205144D03*
X82893200Y4902200D03*
X83596144Y6599256D03*
X85293200Y7302200D03*
X86990256Y6599256D03*
D27*
X15697200Y32842200D03*
D28*
X18097200Y32842200D03*
X17394256Y31145144D03*
X15697200Y30442200D03*
X14000144Y31145144D03*
X13297200Y32842200D03*
X14000144Y34539256D03*
X15697200Y35242200D03*
X17394256Y34539256D03*
D29*
X17475200Y12522200D03*
X86817200Y33350200D03*
D30*
X12141200Y19972200D03*
X12141200Y17772200D03*
D21*
X12141200Y23886200D03*
X12141200Y21986200D03*
D28*
X30784800Y18465800D03*
X24587200Y21793200D03*
X35052000Y19786600D03*
X48479200Y11760200D03*
X24180800Y12522200D03*
X59740800Y15468600D03*
X73609200Y23291800D03*
X2329200Y17856200D03*
X22063200Y11760200D03*
X51130200Y32778700D03*
X70500200Y23317200D03*
X12395200Y12268200D03*
X88912700Y20840700D03*
X59740800Y17043400D03*
X58775600Y19837400D03*
D31*
X54559200Y28016200D02*
X54559200Y28422600D01*
X54559200Y28422600D02*
X52171600Y30810200D01*
X52171600Y30810200D02*
X52171600Y31165800D01*
D32*
X54559200Y23952200D02*
X54559200Y28016200D01*
D31*
X52019200Y28016200D02*
X52019200Y28168600D01*
X52019200Y28168600D02*
X50088800Y30099000D01*
X50444400Y34366200D02*
X52171600Y34366200D01*
X50088800Y34010600D02*
X50444400Y34366200D01*
X50088800Y30099000D02*
X50088800Y34010600D01*
D32*
X52019200Y23952200D02*
X52019200Y28016200D01*
D31*
X27457400Y21793200D02*
X24587200Y21793200D01*
X27457400Y21793200D02*
X30784800Y18465800D01*
X46939200Y10220200D02*
X48479200Y11760200D01*
X46939200Y8712200D02*
X46939200Y10220200D01*
X24063200Y11760200D02*
X24063200Y12404600D01*
X24063200Y12404600D02*
X24180800Y12522200D01*
X24079200Y8712200D02*
X24079200Y11744200D01*
X24079200Y11744200D02*
X24063200Y11760200D01*
X41285200Y21412200D02*
X41285200Y20177800D01*
X40894000Y19786600D02*
X35052000Y19786600D01*
X41285200Y20177800D02*
X40894000Y19786600D01*
X35052000Y19786600D02*
X35026600Y19812000D01*
X35026600Y19812000D02*
X34813200Y20025400D01*
X34813200Y20025400D02*
X34813200Y21412200D01*
D33*
X86833200Y10490200D02*
X86833200Y10982200D01*
X86833200Y10982200D02*
X85039200Y12776200D01*
D32*
X46939200Y8712200D02*
X46939200Y4648200D01*
X24079200Y4648200D02*
X24079200Y8712200D01*
D31*
X32715200Y15468600D02*
X59740800Y15468600D01*
X26619200Y9372600D02*
X32715200Y15468600D01*
D34*
X73609200Y23291800D02*
X73609200Y23317200D01*
X73609200Y23317200D02*
X73609200Y23291800D01*
X73609200Y23291800D02*
X73609200Y23317200D01*
D31*
X26619200Y8712200D02*
X26619200Y9372600D01*
X72400200Y23317200D02*
X73609200Y23317200D01*
X73609200Y23317200D02*
X75707200Y23317200D01*
D32*
X26619200Y4648200D02*
X26619200Y8712200D01*
D31*
X12141200Y17772200D02*
X13200200Y17772200D01*
X13665200Y26492200D02*
X9601200Y30556200D01*
X13665200Y18237200D02*
X13665200Y26492200D01*
X13200200Y17772200D02*
X13665200Y18237200D01*
X9601200Y30556200D02*
X9601200Y31572200D01*
D32*
X2489200Y17696200D02*
X2329200Y17856200D01*
X2489200Y12776200D02*
X2489200Y17696200D01*
X2489200Y9982200D02*
X2489200Y12776200D01*
D31*
X22063200Y11885200D02*
X22063200Y11760200D01*
X67259200Y31318200D02*
X67259200Y31508700D01*
X67259200Y31508700D02*
X64655700Y34112200D01*
X64655700Y34112200D02*
X57543700Y34112200D01*
X57543700Y34112200D02*
X56210200Y32778700D01*
X56210200Y32778700D02*
X51130200Y32778700D01*
X67259200Y31572200D02*
X67106800Y31572200D01*
D35*
X67259200Y31572200D02*
X72440800Y31572200D01*
X73413600Y32545000D02*
X76047600Y32545000D01*
X72440800Y31572200D02*
X73413600Y32545000D01*
D31*
X88849200Y15029180D02*
X87815420Y15029180D01*
X86918800Y15925800D02*
X86918800Y23291800D01*
X87815420Y15029180D02*
X86918800Y15925800D01*
X86918800Y23291800D02*
X86360000Y23850600D01*
X50479200Y11760200D02*
X51612800Y11760200D01*
X52019200Y11353800D02*
X52019200Y8712200D01*
X51612800Y11760200D02*
X52019200Y11353800D01*
D32*
X61043800Y1701800D02*
X63568600Y1701800D01*
X63568600Y1701800D02*
X63619400Y1651000D01*
X52019200Y4648200D02*
X52019200Y2159000D01*
X61043800Y1701800D02*
X62306200Y2964200D01*
X52476400Y1701800D02*
X61043800Y1701800D01*
X52019200Y2159000D02*
X52476400Y1701800D01*
X71069200Y5410200D02*
X71069200Y2565400D01*
X70154800Y1651000D02*
X69900800Y1651000D01*
X69900800Y1651000D02*
X63619400Y1651000D01*
X71069200Y2565400D02*
X70154800Y1651000D01*
X63619400Y1651000D02*
X62306200Y2964200D01*
D33*
X88849200Y15029180D02*
X88849200Y10506200D01*
X88849200Y10506200D02*
X88833200Y10490200D01*
X86410800Y27813000D02*
X86410800Y27914600D01*
X86410800Y27914600D02*
X85140800Y29184600D01*
X81628000Y32494200D02*
X73990200Y32494200D01*
X84937600Y29184600D02*
X81628000Y32494200D01*
X85140800Y29184600D02*
X84937600Y29184600D01*
D32*
X86360000Y23850600D02*
X86360000Y27762200D01*
X86360000Y27762200D02*
X86410800Y27813000D01*
D35*
X67259200Y31572200D02*
X68021200Y31572200D01*
D32*
X52019200Y8712200D02*
X52019200Y4648200D01*
D31*
X6925200Y23698200D02*
X11953200Y23698200D01*
X11953200Y23698200D02*
X12141200Y23886200D01*
D34*
X7569200Y9982200D02*
X7569200Y9601200D01*
X7569200Y9601200D02*
X6426200Y8458200D01*
X29159200Y2806700D02*
X29159200Y4648200D01*
X28714700Y2362200D02*
X29159200Y2806700D01*
X838200Y2362200D02*
X28714700Y2362200D01*
X457200Y2743200D02*
X838200Y2362200D01*
X457200Y5664200D02*
X457200Y2743200D01*
X1155700Y6362700D02*
X457200Y5664200D01*
X1409700Y6362700D02*
X1155700Y6362700D01*
X3505200Y8458200D02*
X1409700Y6362700D01*
X6426200Y8458200D02*
X3505200Y8458200D01*
D32*
X7569200Y9982200D02*
X7569200Y12776200D01*
X7569200Y12776200D02*
X7569200Y17696200D01*
X7569200Y17696200D02*
X7729200Y17856200D01*
X6925200Y23698200D02*
X6925200Y18660200D01*
X6925200Y18660200D02*
X7729200Y17856200D01*
X29159200Y4648200D02*
X29159200Y8712200D01*
X44399200Y23952200D02*
X44399200Y28016200D01*
X31699200Y8712200D02*
X31699200Y4648200D01*
D33*
X29159200Y23952200D02*
X34645600Y18465800D01*
X84277200Y18465800D02*
X85039200Y17703800D01*
X34645600Y18465800D02*
X84277200Y18465800D01*
X82499200Y12776200D02*
X82499200Y14046200D01*
X82499200Y14046200D02*
X85039200Y16586200D01*
X85039200Y16586200D02*
X85039200Y17703800D01*
X85039200Y17703800D02*
X85039200Y20396200D01*
D32*
X29159200Y23952200D02*
X29159200Y28016200D01*
X34239200Y8712200D02*
X34239200Y4648200D01*
X39319200Y28016200D02*
X39319200Y31419800D01*
X39319200Y31419800D02*
X39268400Y31470600D01*
D31*
X39385200Y21412200D02*
X39385200Y23886200D01*
X39385200Y23886200D02*
X39319200Y23952200D01*
D32*
X39319200Y23952200D02*
X39319200Y28016200D01*
X36779200Y8712200D02*
X36779200Y4648200D01*
X36779200Y28016200D02*
X36779200Y31419800D01*
X36779200Y31419800D02*
X36728400Y31470600D01*
D31*
X36713200Y21412200D02*
X36713200Y23886200D01*
X36713200Y23886200D02*
X36779200Y23952200D01*
D32*
X36779200Y28016200D02*
X36779200Y23952200D01*
X36779200Y28016200D02*
X36779200Y28422600D01*
X39319200Y8712200D02*
X39319200Y4648200D01*
X34239200Y23952200D02*
X34239200Y28016200D01*
X41859200Y8712200D02*
X41859200Y4648200D01*
D31*
X12903200Y4648200D02*
X12903200Y11760200D01*
X12903200Y11760200D02*
X12395200Y12268200D01*
D32*
X31699200Y23952200D02*
X31699200Y28016200D01*
X44399200Y8712200D02*
X44399200Y4648200D01*
X26619200Y23952200D02*
X26619200Y28016200D01*
D31*
X7061200Y4648200D02*
X8966200Y6553200D01*
X23444200Y23317200D02*
X24079200Y23952200D01*
X23444200Y21412200D02*
X23444200Y23317200D01*
X20142200Y18110200D02*
X23444200Y21412200D01*
X16967200Y18110200D02*
X20142200Y18110200D01*
X11379200Y12522200D02*
X16967200Y18110200D01*
X11379200Y7442200D02*
X11379200Y12522200D01*
X10490200Y6553200D02*
X11379200Y7442200D01*
X8966200Y6553200D02*
X10490200Y6553200D01*
D32*
X24079200Y28016200D02*
X24079200Y23952200D01*
D31*
X23952200Y23825200D02*
X24079200Y23952200D01*
X21539200Y23952200D02*
X21539200Y20777200D01*
X7315200Y7442200D02*
X4521200Y4648200D01*
X10109200Y7442200D02*
X7315200Y7442200D01*
X10617200Y7950200D02*
X10109200Y7442200D01*
X10617200Y13030200D02*
X10617200Y7950200D01*
X16586200Y18999200D02*
X10617200Y13030200D01*
X19761200Y18999200D02*
X16586200Y18999200D01*
X21539200Y20777200D02*
X19761200Y18999200D01*
X21539200Y23952200D02*
X21285200Y23952200D01*
X21539200Y23952200D02*
X21539200Y23444200D01*
D32*
X21539200Y28016200D02*
X21539200Y23952200D01*
X54559200Y8712200D02*
X54559200Y10795000D01*
X58267600Y11607800D02*
X61511200Y8364200D01*
X55372000Y11607800D02*
X58267600Y11607800D01*
X54559200Y10795000D02*
X55372000Y11607800D01*
X61511200Y8364200D02*
X62306200Y8364200D01*
X62306200Y8364200D02*
X63136800Y8364200D01*
X64465200Y6324600D02*
X66395600Y4394200D01*
X64465200Y7035800D02*
X64465200Y6324600D01*
X63136800Y8364200D02*
X64465200Y7035800D01*
X66395600Y4394200D02*
X67005200Y4394200D01*
X54559200Y8712200D02*
X54559200Y4648200D01*
X18999200Y28016200D02*
X18999200Y23952200D01*
X18999200Y8712200D02*
X18999200Y4648200D01*
D31*
X88912700Y20840700D02*
X88910200Y20838200D01*
X88910200Y20838200D02*
X88849200Y20838200D01*
D35*
X72745600Y27000200D02*
X75902800Y27000200D01*
X75902800Y27000200D02*
X76047600Y27145000D01*
D31*
X88813600Y20838200D02*
X88849200Y20838200D01*
X77607200Y23317200D02*
X80746600Y23317200D01*
X80746600Y23317200D02*
X81280000Y23850600D01*
D32*
X81330800Y27813000D02*
X81330800Y23901400D01*
X81330800Y23901400D02*
X81280000Y23850600D01*
X73990200Y27094200D02*
X80612000Y27094200D01*
X80612000Y27094200D02*
X81330800Y27813000D01*
D35*
X65598040Y23952200D02*
X65598040Y24170640D01*
X65598040Y24170640D02*
X68427600Y27000200D01*
X68427600Y27000200D02*
X72745600Y27000200D01*
X72745600Y27000200D02*
X72999600Y27000200D01*
D32*
X76069200Y5410200D02*
X76069200Y8538200D01*
X68580000Y9779000D02*
X67005200Y8204200D01*
X74828400Y9779000D02*
X68580000Y9779000D01*
X76069200Y8538200D02*
X74828400Y9779000D01*
D35*
X62259200Y31318200D02*
X62005200Y31318200D01*
X62005200Y31318200D02*
X61300360Y30613360D01*
X61300360Y30613360D02*
X62259200Y31318200D01*
X61300360Y23952200D02*
X61300360Y30613360D01*
D33*
X82499200Y20396200D02*
X79959200Y20396200D01*
X83820000Y23850600D02*
X83820000Y22580600D01*
X82499200Y21259800D02*
X82499200Y20396200D01*
X83820000Y22580600D02*
X82499200Y21259800D01*
X83870800Y27813000D02*
X83870800Y23901400D01*
X83870800Y23901400D02*
X83820000Y23850600D01*
D32*
X21539200Y4648200D02*
X21539200Y8712200D01*
X49479200Y23952200D02*
X49479200Y27676202D01*
X49479200Y27676202D02*
X49819198Y28016200D01*
X49819198Y28016200D02*
X49479200Y28016200D01*
X49479200Y8712200D02*
X49479200Y4648200D01*
D33*
X88849200Y17127220D02*
X88849200Y18554700D01*
D31*
X79959200Y12776200D02*
X79959200Y12979400D01*
X79959200Y12979400D02*
X77419200Y15519400D01*
X77419200Y15519400D02*
X61112400Y15519400D01*
X61112400Y15519400D02*
X59740800Y16891000D01*
X59740800Y16891000D02*
X59740800Y17043400D01*
X54711600Y31165800D02*
X54711600Y31064200D01*
X54711600Y31064200D02*
X58775600Y27000200D01*
X58775600Y27000200D02*
X58775600Y19837400D01*
D32*
X41859200Y23952200D02*
X41859200Y28016200D01*
X2625200Y23698200D02*
X2625200Y29596200D01*
X2625200Y29596200D02*
X4601200Y31572200D01*
D31*
X12141200Y19972200D02*
X12141200Y21986200D01*
M02*
