G04 #@! TF.FileFunction,Legend,Bot*
%FSLAX46Y46*%
G04 Gerber Fmt 4.6, Leading zero omitted, Abs format (unit mm)*
G04 Created by KiCad (PCBNEW 4.0.6+dfsg1-1) date Mon Feb 26 19:47:00 2018*
%MOMM*%
%LPD*%
G01*
G04 APERTURE LIST*
%ADD10C,0.100000*%
%ADD11C,0.300000*%
%ADD12C,0.010000*%
G04 APERTURE END LIST*
D10*
D11*
X47435581Y20181533D02*
X46626058Y20181533D01*
X47597486Y19638676D02*
X47030820Y21538676D01*
X46464153Y19638676D01*
X46059391Y21538676D02*
X44926058Y19638676D01*
X44926058Y21538676D02*
X46059391Y19638676D01*
X44278438Y20362486D02*
X42983200Y20362486D01*
X42254628Y20181533D02*
X41445105Y20181533D01*
X42416533Y19638676D02*
X41849867Y21538676D01*
X41283200Y19638676D01*
X40716533Y19638676D02*
X40716533Y20905343D01*
X40716533Y20543438D02*
X40635581Y20724390D01*
X40554628Y20814867D01*
X40392724Y20905343D01*
X40230819Y20905343D01*
X38935581Y19638676D02*
X38935581Y21538676D01*
X38935581Y19729152D02*
X39097485Y19638676D01*
X39421295Y19638676D01*
X39583200Y19729152D01*
X39664152Y19819629D01*
X39745104Y20000581D01*
X39745104Y20543438D01*
X39664152Y20724390D01*
X39583200Y20814867D01*
X39421295Y20905343D01*
X39097485Y20905343D01*
X38935581Y20814867D01*
X37397486Y20905343D02*
X37397486Y19638676D01*
X38126057Y20905343D02*
X38126057Y19910105D01*
X38045105Y19729152D01*
X37883200Y19638676D01*
X37640343Y19638676D01*
X37478438Y19729152D01*
X37397486Y19819629D01*
X36587962Y19638676D02*
X36587962Y20905343D01*
X36587962Y21538676D02*
X36668914Y21448200D01*
X36587962Y21357724D01*
X36507010Y21448200D01*
X36587962Y21538676D01*
X36587962Y21357724D01*
X35778438Y20905343D02*
X35778438Y19638676D01*
X35778438Y20724390D02*
X35697486Y20814867D01*
X35535581Y20905343D01*
X35292724Y20905343D01*
X35130819Y20814867D01*
X35049867Y20633914D01*
X35049867Y19638676D01*
X33997486Y19638676D02*
X34159391Y19729152D01*
X34240343Y19819629D01*
X34321295Y20000581D01*
X34321295Y20543438D01*
X34240343Y20724390D01*
X34159391Y20814867D01*
X33997486Y20905343D01*
X33754629Y20905343D01*
X33592724Y20814867D01*
X33511772Y20724390D01*
X33430819Y20543438D01*
X33430819Y20000581D01*
X33511772Y19819629D01*
X33592724Y19729152D01*
X33754629Y19638676D01*
X33997486Y19638676D01*
X31649867Y21538676D02*
X31083201Y19638676D01*
X30516534Y21538676D01*
X29059391Y19638676D02*
X30030819Y19638676D01*
X29545105Y19638676D02*
X29545105Y21538676D01*
X29707010Y21267248D01*
X29868915Y21086295D01*
X30030819Y20995819D01*
X28330819Y19819629D02*
X28249867Y19729152D01*
X28330819Y19638676D01*
X28411771Y19729152D01*
X28330819Y19819629D01*
X28330819Y19638676D01*
X26630819Y19638676D02*
X27602247Y19638676D01*
X27116533Y19638676D02*
X27116533Y21538676D01*
X27278438Y21267248D01*
X27440343Y21086295D01*
X27602247Y20995819D01*
X59011770Y16488676D02*
X59011770Y18388676D01*
X58283199Y16488676D02*
X58283199Y17483914D01*
X58364151Y17664867D01*
X58526056Y17755343D01*
X58768913Y17755343D01*
X58930818Y17664867D01*
X59011770Y17574390D01*
X57716532Y17755343D02*
X57068913Y17755343D01*
X57473675Y18388676D02*
X57473675Y16760105D01*
X57392723Y16579152D01*
X57230818Y16488676D01*
X57068913Y16488676D01*
X56745103Y17755343D02*
X56097484Y17755343D01*
X56502246Y18388676D02*
X56502246Y16760105D01*
X56421294Y16579152D01*
X56259389Y16488676D01*
X56097484Y16488676D01*
X55530817Y17755343D02*
X55530817Y15855343D01*
X55530817Y17664867D02*
X55368912Y17755343D01*
X55045103Y17755343D01*
X54883198Y17664867D01*
X54802246Y17574390D01*
X54721293Y17393438D01*
X54721293Y16850581D01*
X54802246Y16669629D01*
X54883198Y16579152D01*
X55045103Y16488676D01*
X55368912Y16488676D01*
X55530817Y16579152D01*
X54073674Y16579152D02*
X53911770Y16488676D01*
X53587960Y16488676D01*
X53426055Y16579152D01*
X53345103Y16760105D01*
X53345103Y16850581D01*
X53426055Y17031533D01*
X53587960Y17122010D01*
X53830817Y17122010D01*
X53992722Y17212486D01*
X54073674Y17393438D01*
X54073674Y17483914D01*
X53992722Y17664867D01*
X53830817Y17755343D01*
X53587960Y17755343D01*
X53426055Y17664867D01*
X52616532Y16669629D02*
X52535580Y16579152D01*
X52616532Y16488676D01*
X52697484Y16579152D01*
X52616532Y16669629D01*
X52616532Y16488676D01*
X52616532Y17664867D02*
X52535580Y17574390D01*
X52616532Y17483914D01*
X52697484Y17574390D01*
X52616532Y17664867D01*
X52616532Y17483914D01*
X50592722Y18479152D02*
X52049865Y16036295D01*
X48811770Y18479152D02*
X50268913Y16036295D01*
X47516533Y17755343D02*
X47516533Y16217248D01*
X47597485Y16036295D01*
X47678437Y15945819D01*
X47840342Y15855343D01*
X48083199Y15855343D01*
X48245104Y15945819D01*
X47516533Y16579152D02*
X47678437Y16488676D01*
X48002247Y16488676D01*
X48164152Y16579152D01*
X48245104Y16669629D01*
X48326056Y16850581D01*
X48326056Y17393438D01*
X48245104Y17574390D01*
X48164152Y17664867D01*
X48002247Y17755343D01*
X47678437Y17755343D01*
X47516533Y17664867D01*
X46707009Y16488676D02*
X46707009Y17755343D01*
X46707009Y18388676D02*
X46787961Y18298200D01*
X46707009Y18207724D01*
X46626057Y18298200D01*
X46707009Y18388676D01*
X46707009Y18207724D01*
X46140342Y17755343D02*
X45492723Y17755343D01*
X45897485Y18388676D02*
X45897485Y16760105D01*
X45816533Y16579152D01*
X45654628Y16488676D01*
X45492723Y16488676D01*
X44926056Y16488676D02*
X44926056Y18388676D01*
X44197485Y16488676D02*
X44197485Y17483914D01*
X44278437Y17664867D01*
X44440342Y17755343D01*
X44683199Y17755343D01*
X44845104Y17664867D01*
X44926056Y17574390D01*
X42659390Y17755343D02*
X42659390Y16488676D01*
X43387961Y17755343D02*
X43387961Y16760105D01*
X43307009Y16579152D01*
X43145104Y16488676D01*
X42902247Y16488676D01*
X42740342Y16579152D01*
X42659390Y16669629D01*
X41849866Y16488676D02*
X41849866Y18388676D01*
X41849866Y17664867D02*
X41687961Y17755343D01*
X41364152Y17755343D01*
X41202247Y17664867D01*
X41121295Y17574390D01*
X41040342Y17393438D01*
X41040342Y16850581D01*
X41121295Y16669629D01*
X41202247Y16579152D01*
X41364152Y16488676D01*
X41687961Y16488676D01*
X41849866Y16579152D01*
X40311771Y16669629D02*
X40230819Y16579152D01*
X40311771Y16488676D01*
X40392723Y16579152D01*
X40311771Y16669629D01*
X40311771Y16488676D01*
X38773676Y16579152D02*
X38935580Y16488676D01*
X39259390Y16488676D01*
X39421295Y16579152D01*
X39502247Y16669629D01*
X39583199Y16850581D01*
X39583199Y17393438D01*
X39502247Y17574390D01*
X39421295Y17664867D01*
X39259390Y17755343D01*
X38935580Y17755343D01*
X38773676Y17664867D01*
X37802247Y16488676D02*
X37964152Y16579152D01*
X38045104Y16669629D01*
X38126056Y16850581D01*
X38126056Y17393438D01*
X38045104Y17574390D01*
X37964152Y17664867D01*
X37802247Y17755343D01*
X37559390Y17755343D01*
X37397485Y17664867D01*
X37316533Y17574390D01*
X37235580Y17393438D01*
X37235580Y16850581D01*
X37316533Y16669629D01*
X37397485Y16579152D01*
X37559390Y16488676D01*
X37802247Y16488676D01*
X36507009Y16488676D02*
X36507009Y17755343D01*
X36507009Y17574390D02*
X36426057Y17664867D01*
X36264152Y17755343D01*
X36021295Y17755343D01*
X35859390Y17664867D01*
X35778438Y17483914D01*
X35778438Y16488676D01*
X35778438Y17483914D02*
X35697485Y17664867D01*
X35535581Y17755343D01*
X35292723Y17755343D01*
X35130819Y17664867D01*
X35049866Y17483914D01*
X35049866Y16488676D01*
X33026056Y18479152D02*
X34483199Y16036295D01*
X32459390Y17483914D02*
X31892723Y17483914D01*
X31649866Y16488676D02*
X32459390Y16488676D01*
X32459390Y18388676D01*
X31649866Y18388676D01*
X30678438Y16488676D02*
X30840343Y16579152D01*
X30921295Y16760105D01*
X30921295Y18388676D01*
X29383200Y16579152D02*
X29545105Y16488676D01*
X29868914Y16488676D01*
X30030819Y16579152D01*
X30111771Y16760105D01*
X30111771Y17483914D01*
X30030819Y17664867D01*
X29868914Y17755343D01*
X29545105Y17755343D01*
X29383200Y17664867D01*
X29302248Y17483914D01*
X29302248Y17302962D01*
X30111771Y17122010D01*
X28573676Y16488676D02*
X28573676Y18388676D01*
X28411771Y17212486D02*
X27926057Y16488676D01*
X27926057Y17755343D02*
X28573676Y17031533D01*
X27440343Y17755343D02*
X26792724Y17755343D01*
X27197486Y18388676D02*
X27197486Y16760105D01*
X27116534Y16579152D01*
X26954629Y16488676D01*
X26792724Y16488676D01*
X26226057Y16488676D02*
X26226057Y17755343D01*
X26226057Y17393438D02*
X26145105Y17574390D01*
X26064152Y17664867D01*
X25902248Y17755343D01*
X25740343Y17755343D01*
X24930819Y16488676D02*
X25092724Y16579152D01*
X25173676Y16669629D01*
X25254628Y16850581D01*
X25254628Y17393438D01*
X25173676Y17574390D01*
X25092724Y17664867D01*
X24930819Y17755343D01*
X24687962Y17755343D01*
X24526057Y17664867D01*
X24445105Y17574390D01*
X24364152Y17393438D01*
X24364152Y16850581D01*
X24445105Y16669629D01*
X24526057Y16579152D01*
X24687962Y16488676D01*
X24930819Y16488676D01*
X23635581Y17755343D02*
X23635581Y15855343D01*
X23635581Y17664867D02*
X23473676Y17755343D01*
X23149867Y17755343D01*
X22987962Y17664867D01*
X22907010Y17574390D01*
X22826057Y17393438D01*
X22826057Y16850581D01*
X22907010Y16669629D01*
X22987962Y16579152D01*
X23149867Y16488676D01*
X23473676Y16488676D01*
X23635581Y16579152D01*
X22097486Y16488676D02*
X22097486Y17755343D01*
X22097486Y18388676D02*
X22178438Y18298200D01*
X22097486Y18207724D01*
X22016534Y18298200D01*
X22097486Y18388676D01*
X22097486Y18207724D01*
X21045105Y16488676D02*
X21207010Y16579152D01*
X21287962Y16669629D01*
X21368914Y16850581D01*
X21368914Y17393438D01*
X21287962Y17574390D01*
X21207010Y17664867D01*
X21045105Y17755343D01*
X20802248Y17755343D01*
X20640343Y17664867D01*
X20559391Y17574390D01*
X20478438Y17393438D01*
X20478438Y16850581D01*
X20559391Y16669629D01*
X20640343Y16579152D01*
X20802248Y16488676D01*
X21045105Y16488676D01*
X19749867Y17755343D02*
X19749867Y16488676D01*
X19749867Y17574390D02*
X19668915Y17664867D01*
X19507010Y17755343D01*
X19264153Y17755343D01*
X19102248Y17664867D01*
X19021296Y17483914D01*
X19021296Y16488676D01*
X17564153Y16579152D02*
X17726058Y16488676D01*
X18049867Y16488676D01*
X18211772Y16579152D01*
X18292724Y16760105D01*
X18292724Y17483914D01*
X18211772Y17664867D01*
X18049867Y17755343D01*
X17726058Y17755343D01*
X17564153Y17664867D01*
X17483201Y17483914D01*
X17483201Y17302962D01*
X18292724Y17122010D01*
X16107010Y16579152D02*
X16268915Y16488676D01*
X16592724Y16488676D01*
X16754629Y16579152D01*
X16835581Y16760105D01*
X16835581Y17483914D01*
X16754629Y17664867D01*
X16592724Y17755343D01*
X16268915Y17755343D01*
X16107010Y17664867D01*
X16026058Y17483914D01*
X16026058Y17302962D01*
X16835581Y17122010D01*
X15297486Y16488676D02*
X15297486Y17755343D01*
X15297486Y17393438D02*
X15216534Y17574390D01*
X15135581Y17664867D01*
X14973677Y17755343D01*
X14811772Y17755343D01*
X53911771Y13338676D02*
X53911771Y15238676D01*
X53183200Y13338676D02*
X53183200Y14333914D01*
X53264152Y14514867D01*
X53426057Y14605343D01*
X53668914Y14605343D01*
X53830819Y14514867D01*
X53911771Y14424390D01*
X52616533Y14605343D02*
X51968914Y14605343D01*
X52373676Y15238676D02*
X52373676Y13610105D01*
X52292724Y13429152D01*
X52130819Y13338676D01*
X51968914Y13338676D01*
X51645104Y14605343D02*
X50997485Y14605343D01*
X51402247Y15238676D02*
X51402247Y13610105D01*
X51321295Y13429152D01*
X51159390Y13338676D01*
X50997485Y13338676D01*
X50430818Y14605343D02*
X50430818Y12705343D01*
X50430818Y14514867D02*
X50268913Y14605343D01*
X49945104Y14605343D01*
X49783199Y14514867D01*
X49702247Y14424390D01*
X49621294Y14243438D01*
X49621294Y13700581D01*
X49702247Y13519629D01*
X49783199Y13429152D01*
X49945104Y13338676D01*
X50268913Y13338676D01*
X50430818Y13429152D01*
X48892723Y13519629D02*
X48811771Y13429152D01*
X48892723Y13338676D01*
X48973675Y13429152D01*
X48892723Y13519629D01*
X48892723Y13338676D01*
X48892723Y14514867D02*
X48811771Y14424390D01*
X48892723Y14333914D01*
X48973675Y14424390D01*
X48892723Y14514867D01*
X48892723Y14333914D01*
X46868913Y15329152D02*
X48326056Y12886295D01*
X45087961Y15329152D02*
X46545104Y12886295D01*
X43873676Y13429152D02*
X44035581Y13338676D01*
X44359390Y13338676D01*
X44521295Y13429152D01*
X44602247Y13610105D01*
X44602247Y14333914D01*
X44521295Y14514867D01*
X44359390Y14605343D01*
X44035581Y14605343D01*
X43873676Y14514867D01*
X43792724Y14333914D01*
X43792724Y14152962D01*
X44602247Y13972010D01*
X42821295Y13338676D02*
X42983200Y13429152D01*
X43064152Y13610105D01*
X43064152Y15238676D01*
X41526057Y13429152D02*
X41687962Y13338676D01*
X42011771Y13338676D01*
X42173676Y13429152D01*
X42254628Y13610105D01*
X42254628Y14333914D01*
X42173676Y14514867D01*
X42011771Y14605343D01*
X41687962Y14605343D01*
X41526057Y14514867D01*
X41445105Y14333914D01*
X41445105Y14152962D01*
X42254628Y13972010D01*
X40716533Y13338676D02*
X40716533Y15238676D01*
X40554628Y14062486D02*
X40068914Y13338676D01*
X40068914Y14605343D02*
X40716533Y13881533D01*
X39583200Y14605343D02*
X38935581Y14605343D01*
X39340343Y15238676D02*
X39340343Y13610105D01*
X39259391Y13429152D01*
X39097486Y13338676D01*
X38935581Y13338676D01*
X38368914Y13338676D02*
X38368914Y14605343D01*
X38368914Y14243438D02*
X38287962Y14424390D01*
X38207009Y14514867D01*
X38045105Y14605343D01*
X37883200Y14605343D01*
X37073676Y13338676D02*
X37235581Y13429152D01*
X37316533Y13519629D01*
X37397485Y13700581D01*
X37397485Y14243438D01*
X37316533Y14424390D01*
X37235581Y14514867D01*
X37073676Y14605343D01*
X36830819Y14605343D01*
X36668914Y14514867D01*
X36587962Y14424390D01*
X36507009Y14243438D01*
X36507009Y13700581D01*
X36587962Y13519629D01*
X36668914Y13429152D01*
X36830819Y13338676D01*
X37073676Y13338676D01*
X35778438Y14605343D02*
X35778438Y12705343D01*
X35778438Y14514867D02*
X35616533Y14605343D01*
X35292724Y14605343D01*
X35130819Y14514867D01*
X35049867Y14424390D01*
X34968914Y14243438D01*
X34968914Y13700581D01*
X35049867Y13519629D01*
X35130819Y13429152D01*
X35292724Y13338676D01*
X35616533Y13338676D01*
X35778438Y13429152D01*
X34240343Y13338676D02*
X34240343Y14605343D01*
X34240343Y15238676D02*
X34321295Y15148200D01*
X34240343Y15057724D01*
X34159391Y15148200D01*
X34240343Y15238676D01*
X34240343Y15057724D01*
X33187962Y13338676D02*
X33349867Y13429152D01*
X33430819Y13519629D01*
X33511771Y13700581D01*
X33511771Y14243438D01*
X33430819Y14424390D01*
X33349867Y14514867D01*
X33187962Y14605343D01*
X32945105Y14605343D01*
X32783200Y14514867D01*
X32702248Y14424390D01*
X32621295Y14243438D01*
X32621295Y13700581D01*
X32702248Y13519629D01*
X32783200Y13429152D01*
X32945105Y13338676D01*
X33187962Y13338676D01*
X31892724Y14605343D02*
X31892724Y13338676D01*
X31892724Y14424390D02*
X31811772Y14514867D01*
X31649867Y14605343D01*
X31407010Y14605343D01*
X31245105Y14514867D01*
X31164153Y14333914D01*
X31164153Y13338676D01*
X29707010Y13429152D02*
X29868915Y13338676D01*
X30192724Y13338676D01*
X30354629Y13429152D01*
X30435581Y13610105D01*
X30435581Y14333914D01*
X30354629Y14514867D01*
X30192724Y14605343D01*
X29868915Y14605343D01*
X29707010Y14514867D01*
X29626058Y14333914D01*
X29626058Y14152962D01*
X30435581Y13972010D01*
X28249867Y13429152D02*
X28411772Y13338676D01*
X28735581Y13338676D01*
X28897486Y13429152D01*
X28978438Y13610105D01*
X28978438Y14333914D01*
X28897486Y14514867D01*
X28735581Y14605343D01*
X28411772Y14605343D01*
X28249867Y14514867D01*
X28168915Y14333914D01*
X28168915Y14152962D01*
X28978438Y13972010D01*
X27440343Y13338676D02*
X27440343Y14605343D01*
X27440343Y14243438D02*
X27359391Y14424390D01*
X27278438Y14514867D01*
X27116534Y14605343D01*
X26954629Y14605343D01*
X26387962Y13519629D02*
X26307010Y13429152D01*
X26387962Y13338676D01*
X26468914Y13429152D01*
X26387962Y13519629D01*
X26387962Y13338676D01*
X24849867Y13429152D02*
X25011771Y13338676D01*
X25335581Y13338676D01*
X25497486Y13429152D01*
X25578438Y13519629D01*
X25659390Y13700581D01*
X25659390Y14243438D01*
X25578438Y14424390D01*
X25497486Y14514867D01*
X25335581Y14605343D01*
X25011771Y14605343D01*
X24849867Y14514867D01*
X23878438Y13338676D02*
X24040343Y13429152D01*
X24121295Y13519629D01*
X24202247Y13700581D01*
X24202247Y14243438D01*
X24121295Y14424390D01*
X24040343Y14514867D01*
X23878438Y14605343D01*
X23635581Y14605343D01*
X23473676Y14514867D01*
X23392724Y14424390D01*
X23311771Y14243438D01*
X23311771Y13700581D01*
X23392724Y13519629D01*
X23473676Y13429152D01*
X23635581Y13338676D01*
X23878438Y13338676D01*
X22583200Y13519629D02*
X22502248Y13429152D01*
X22583200Y13338676D01*
X22664152Y13429152D01*
X22583200Y13519629D01*
X22583200Y13338676D01*
X21773676Y13338676D02*
X21773676Y14605343D01*
X21773676Y14243438D02*
X21692724Y14424390D01*
X21611771Y14514867D01*
X21449867Y14605343D01*
X21287962Y14605343D01*
X20802247Y13429152D02*
X20640343Y13338676D01*
X20316533Y13338676D01*
X20154628Y13429152D01*
X20073676Y13610105D01*
X20073676Y13700581D01*
X20154628Y13881533D01*
X20316533Y13972010D01*
X20559390Y13972010D01*
X20721295Y14062486D01*
X20802247Y14243438D01*
X20802247Y14333914D01*
X20721295Y14514867D01*
X20559390Y14605343D01*
X20316533Y14605343D01*
X20154628Y14514867D01*
D12*
G36*
X74237448Y33291792D02*
X74159778Y33291382D01*
X74092362Y33290720D01*
X74040009Y33289807D01*
X74007529Y33288643D01*
X73999121Y33287625D01*
X73992725Y33274098D01*
X73976482Y33237568D01*
X73951672Y33180972D01*
X73919573Y33107244D01*
X73881462Y33019321D01*
X73838618Y32920136D01*
X73794578Y32817877D01*
X73748410Y32710671D01*
X73705761Y32611906D01*
X73667908Y32524521D01*
X73636129Y32451457D01*
X73611704Y32395651D01*
X73595910Y32360044D01*
X73590063Y32347603D01*
X73575349Y32342484D01*
X73539182Y32332630D01*
X73487607Y32319636D01*
X73447155Y32309899D01*
X73367279Y32289680D01*
X73276886Y32264770D01*
X73192141Y32239672D01*
X73170129Y32232745D01*
X73031625Y32188352D01*
X72624220Y32493674D01*
X72516987Y32573894D01*
X72429916Y32638577D01*
X72360686Y32689244D01*
X72306979Y32727419D01*
X72266474Y32754626D01*
X72236852Y32772389D01*
X72215793Y32782231D01*
X72200978Y32785675D01*
X72190088Y32784245D01*
X72185149Y32782050D01*
X72163820Y32769928D01*
X72122377Y32745775D01*
X72064944Y32712015D01*
X71995643Y32671074D01*
X71918597Y32625379D01*
X71896269Y32612105D01*
X71639054Y32459106D01*
X71645383Y32405825D01*
X71648330Y32379106D01*
X71653746Y32328091D01*
X71661237Y32256562D01*
X71670412Y32168300D01*
X71680874Y32067085D01*
X71692232Y31956698D01*
X71699368Y31887102D01*
X71747025Y31421660D01*
X71580265Y31252102D01*
X71521418Y31192042D01*
X71466543Y31135619D01*
X71420006Y31087354D01*
X71386174Y31051770D01*
X71373291Y31037833D01*
X71333078Y30993121D01*
X70834196Y31049303D01*
X70718897Y31062157D01*
X70612820Y31073734D01*
X70519140Y31083704D01*
X70441034Y31091741D01*
X70381675Y31097518D01*
X70344240Y31100708D01*
X70331887Y31101070D01*
X70324340Y31088032D01*
X70304991Y31053793D01*
X70275775Y31001805D01*
X70238632Y30935517D01*
X70195496Y30858381D01*
X70164751Y30803322D01*
X70001043Y30509989D01*
X70251603Y30154211D01*
X70316281Y30062305D01*
X70377801Y29974759D01*
X70433697Y29895091D01*
X70481505Y29826817D01*
X70518761Y29773455D01*
X70543000Y29738521D01*
X70547581Y29731843D01*
X70592998Y29665253D01*
X70554861Y29534287D01*
X70534912Y29462328D01*
X70512504Y29376096D01*
X70491048Y29288922D01*
X70480401Y29243259D01*
X70444078Y29083196D01*
X69519800Y28658466D01*
X69519800Y27975180D01*
X69981939Y27762502D01*
X70444078Y27549825D01*
X70480401Y27390018D01*
X70499767Y27308421D01*
X70522062Y27220022D01*
X70543866Y27138181D01*
X70554861Y27099246D01*
X70592998Y26968280D01*
X70547581Y26901690D01*
X70527998Y26873354D01*
X70494615Y26825471D01*
X70449895Y26761558D01*
X70396304Y26685132D01*
X70336306Y26599710D01*
X70272365Y26508809D01*
X70251603Y26479322D01*
X70001043Y26123544D01*
X70164751Y25830211D01*
X70210773Y25747817D01*
X70252078Y25674000D01*
X70286728Y25612210D01*
X70312787Y25565899D01*
X70328319Y25538515D01*
X70331861Y25532488D01*
X70346163Y25532992D01*
X70385328Y25536376D01*
X70446183Y25542315D01*
X70525551Y25550482D01*
X70620259Y25560551D01*
X70727131Y25572196D01*
X70834171Y25584100D01*
X71333078Y25640100D01*
X71373291Y25595545D01*
X71396801Y25570399D01*
X71435784Y25529699D01*
X71485875Y25477963D01*
X71542706Y25419709D01*
X71580265Y25381431D01*
X71747025Y25211874D01*
X71699368Y24746431D01*
X71687660Y24632334D01*
X71676609Y24525122D01*
X71666608Y24428577D01*
X71658052Y24346478D01*
X71651334Y24282609D01*
X71646847Y24240748D01*
X71645383Y24227708D01*
X71639054Y24174427D01*
X71896269Y24021429D01*
X71974740Y23974839D01*
X72046618Y23932327D01*
X72107779Y23896319D01*
X72154100Y23869240D01*
X72181457Y23853516D01*
X72185149Y23851484D01*
X72194906Y23848100D01*
X72207366Y23848789D01*
X72224850Y23855074D01*
X72249677Y23868479D01*
X72284166Y23890527D01*
X72330637Y23922741D01*
X72391409Y23966645D01*
X72468803Y24023762D01*
X72565137Y24095616D01*
X72624220Y24139859D01*
X73031625Y24445181D01*
X73170129Y24400789D01*
X73249999Y24376517D01*
X73340391Y24351076D01*
X73425141Y24328968D01*
X73447155Y24323634D01*
X73505702Y24309423D01*
X73552920Y24297276D01*
X73582761Y24288787D01*
X73590032Y24285930D01*
X73596413Y24272278D01*
X73612637Y24235627D01*
X73637426Y24178919D01*
X73669501Y24105096D01*
X73707585Y24017097D01*
X73750400Y23917863D01*
X73794256Y23815947D01*
X73840386Y23708781D01*
X73883014Y23610070D01*
X73920861Y23522754D01*
X73952645Y23449772D01*
X73977089Y23394062D01*
X73992912Y23358563D01*
X73998791Y23346238D01*
X74014147Y23344292D01*
X74052864Y23342581D01*
X74110080Y23341131D01*
X74180935Y23339964D01*
X74260568Y23339107D01*
X74344119Y23338583D01*
X74426726Y23338417D01*
X74503529Y23338635D01*
X74569667Y23339260D01*
X74620279Y23340317D01*
X74650504Y23341831D01*
X74656741Y23342905D01*
X74664877Y23357142D01*
X74682742Y23394380D01*
X74709006Y23451655D01*
X74742338Y23526000D01*
X74781409Y23614453D01*
X74824890Y23714047D01*
X74868787Y23815627D01*
X74914956Y23922836D01*
X74957607Y24021605D01*
X74995462Y24108993D01*
X75027242Y24182062D01*
X75051669Y24237872D01*
X75067466Y24273483D01*
X75073315Y24285930D01*
X75088028Y24291049D01*
X75124196Y24300903D01*
X75175770Y24313897D01*
X75216223Y24323634D01*
X75296099Y24343853D01*
X75386492Y24368763D01*
X75471237Y24393861D01*
X75493248Y24400789D01*
X75631752Y24445181D01*
X76039158Y24139859D01*
X76146390Y24059639D01*
X76233462Y23994957D01*
X76302691Y23944290D01*
X76356399Y23906114D01*
X76396904Y23878907D01*
X76426526Y23861144D01*
X76447584Y23851302D01*
X76462399Y23847858D01*
X76473289Y23849289D01*
X76478229Y23851484D01*
X76499557Y23863605D01*
X76541000Y23887758D01*
X76598434Y23921518D01*
X76667735Y23962459D01*
X76744780Y24008154D01*
X76767108Y24021429D01*
X77024323Y24174427D01*
X77017995Y24227708D01*
X77015048Y24254427D01*
X77009632Y24305442D01*
X77002140Y24376971D01*
X76992966Y24465234D01*
X76982503Y24566448D01*
X76971145Y24676835D01*
X76964009Y24746431D01*
X76916352Y25211874D01*
X77083113Y25381431D01*
X77141959Y25441492D01*
X77196835Y25497915D01*
X77243372Y25546179D01*
X77277203Y25581763D01*
X77290087Y25595701D01*
X77330300Y25640412D01*
X77829181Y25584230D01*
X77944481Y25571376D01*
X78050558Y25559800D01*
X78144237Y25549829D01*
X78222344Y25541792D01*
X78281702Y25536015D01*
X78319137Y25532825D01*
X78331491Y25532463D01*
X78339037Y25545501D01*
X78358387Y25579740D01*
X78387602Y25631728D01*
X78424746Y25698016D01*
X78467881Y25775152D01*
X78498626Y25830211D01*
X78662334Y26123544D01*
X78411774Y26479322D01*
X78347096Y26571228D01*
X78285577Y26658774D01*
X78229681Y26738442D01*
X78181873Y26806716D01*
X78144617Y26860078D01*
X78120378Y26895012D01*
X78115796Y26901690D01*
X78070379Y26968280D01*
X78108516Y27099246D01*
X78128465Y27171205D01*
X78150873Y27257437D01*
X78172329Y27344612D01*
X78182977Y27390274D01*
X78219300Y27550337D01*
X79143578Y27975067D01*
X79143578Y28316767D01*
X77153911Y28316767D01*
X77149347Y28115320D01*
X77134723Y27931887D01*
X77108645Y27757621D01*
X77069715Y27583677D01*
X77016540Y27401208D01*
X77002799Y27359067D01*
X76900042Y27092914D01*
X76773010Y26839537D01*
X76622997Y26600644D01*
X76451296Y26377945D01*
X76259198Y26173146D01*
X76047998Y25987957D01*
X75862744Y25852787D01*
X75764573Y25791896D01*
X75648523Y25727649D01*
X75523021Y25664159D01*
X75396494Y25605538D01*
X75277371Y25555899D01*
X75189602Y25524286D01*
X75056217Y25485098D01*
X74911835Y25449945D01*
X74768888Y25421595D01*
X74647719Y25403710D01*
X74566637Y25397013D01*
X74466338Y25392822D01*
X74355714Y25391139D01*
X74243657Y25391968D01*
X74139062Y25395312D01*
X74050820Y25401175D01*
X74028403Y25403479D01*
X73771757Y25444671D01*
X73525442Y25508977D01*
X73283578Y25598134D01*
X73125189Y25670620D01*
X72954549Y25760245D01*
X72801515Y25853733D01*
X72655624Y25957920D01*
X72529884Y26059603D01*
X72326805Y26250012D01*
X72143683Y26459487D01*
X71981472Y26686228D01*
X71841126Y26928433D01*
X71723600Y27184303D01*
X71629849Y27452037D01*
X71560828Y27729834D01*
X71524247Y27956563D01*
X71519131Y28012908D01*
X71514782Y28089311D01*
X71511536Y28177612D01*
X71509728Y28269648D01*
X71509466Y28316767D01*
X71514031Y28518213D01*
X71528654Y28701646D01*
X71554733Y28875912D01*
X71593662Y29049856D01*
X71646838Y29232325D01*
X71660579Y29274466D01*
X71763336Y29540619D01*
X71890367Y29793996D01*
X72040380Y30032889D01*
X72212082Y30255589D01*
X72404179Y30460387D01*
X72615379Y30645576D01*
X72800633Y30780746D01*
X72898308Y30841342D01*
X73013808Y30905325D01*
X73138747Y30968600D01*
X73264740Y31027074D01*
X73383399Y31076651D01*
X73472829Y31108933D01*
X73742109Y31181926D01*
X74015492Y31227345D01*
X74291068Y31245189D01*
X74566924Y31235460D01*
X74841151Y31198156D01*
X75111838Y31133279D01*
X75190549Y31108933D01*
X75296265Y31070227D01*
X75416495Y31019119D01*
X75542852Y30959704D01*
X75666950Y30896075D01*
X75780404Y30832327D01*
X75862744Y30780746D01*
X76088549Y30612792D01*
X76296304Y30423838D01*
X76484716Y30215590D01*
X76652494Y29989759D01*
X76798343Y29748051D01*
X76920970Y29492176D01*
X77002799Y29274466D01*
X77059294Y29088936D01*
X77101236Y28913876D01*
X77130020Y28740440D01*
X77147043Y28559781D01*
X77153699Y28363054D01*
X77153911Y28316767D01*
X79143578Y28316767D01*
X79143578Y28658466D01*
X78219300Y29083196D01*
X78182977Y29243259D01*
X78163630Y29324885D01*
X78141358Y29413288D01*
X78119569Y29495135D01*
X78108516Y29534287D01*
X78070379Y29665253D01*
X78115796Y29731843D01*
X78135379Y29760179D01*
X78168763Y29808062D01*
X78213482Y29871975D01*
X78267073Y29948401D01*
X78327072Y30033823D01*
X78391012Y30124724D01*
X78411774Y30154211D01*
X78662334Y30509989D01*
X78498626Y30803322D01*
X78452603Y30885718D01*
X78411295Y30959539D01*
X78376640Y31021333D01*
X78350575Y31067650D01*
X78335037Y31095040D01*
X78331491Y31101070D01*
X78317184Y31100568D01*
X78278015Y31097175D01*
X78217157Y31091219D01*
X78137787Y31083027D01*
X78043080Y31072926D01*
X77936210Y31061244D01*
X77829181Y31049303D01*
X77330300Y30993121D01*
X77290087Y31037833D01*
X77266575Y31063033D01*
X77227588Y31103781D01*
X77177493Y31155555D01*
X77120658Y31213834D01*
X77083113Y31252102D01*
X76916352Y31421660D01*
X76964009Y31887102D01*
X76975718Y32001199D01*
X76986769Y32108411D01*
X76996769Y32204957D01*
X77005325Y32287055D01*
X77012043Y32350925D01*
X77016530Y32392785D01*
X77017995Y32405825D01*
X77024323Y32459106D01*
X76767108Y32612105D01*
X76688637Y32658694D01*
X76616760Y32701206D01*
X76555599Y32737214D01*
X76509278Y32764293D01*
X76481920Y32780017D01*
X76478229Y32782050D01*
X76468472Y32785433D01*
X76456011Y32784744D01*
X76438527Y32778459D01*
X76413701Y32765054D01*
X76379212Y32743007D01*
X76332741Y32710792D01*
X76271968Y32666888D01*
X76194574Y32609771D01*
X76098240Y32537917D01*
X76039158Y32493674D01*
X75631752Y32188352D01*
X75493248Y32232745D01*
X75413379Y32257016D01*
X75322986Y32282457D01*
X75238237Y32304565D01*
X75216223Y32309899D01*
X75157671Y32324110D01*
X75110445Y32336258D01*
X75080593Y32344747D01*
X75073315Y32347603D01*
X75066924Y32361254D01*
X75050684Y32397902D01*
X75025875Y32454607D01*
X74993774Y32528430D01*
X74955660Y32616431D01*
X74912812Y32715670D01*
X74868800Y32817877D01*
X74822636Y32925058D01*
X74779988Y33023774D01*
X74742134Y33111090D01*
X74710352Y33184071D01*
X74685920Y33239780D01*
X74670116Y33275284D01*
X74664256Y33287625D01*
X74649472Y33288974D01*
X74611276Y33290073D01*
X74554478Y33290919D01*
X74483887Y33291515D01*
X74404312Y33291858D01*
X74320562Y33291951D01*
X74237448Y33291792D01*
X74237448Y33291792D01*
G37*
X74237448Y33291792D02*
X74159778Y33291382D01*
X74092362Y33290720D01*
X74040009Y33289807D01*
X74007529Y33288643D01*
X73999121Y33287625D01*
X73992725Y33274098D01*
X73976482Y33237568D01*
X73951672Y33180972D01*
X73919573Y33107244D01*
X73881462Y33019321D01*
X73838618Y32920136D01*
X73794578Y32817877D01*
X73748410Y32710671D01*
X73705761Y32611906D01*
X73667908Y32524521D01*
X73636129Y32451457D01*
X73611704Y32395651D01*
X73595910Y32360044D01*
X73590063Y32347603D01*
X73575349Y32342484D01*
X73539182Y32332630D01*
X73487607Y32319636D01*
X73447155Y32309899D01*
X73367279Y32289680D01*
X73276886Y32264770D01*
X73192141Y32239672D01*
X73170129Y32232745D01*
X73031625Y32188352D01*
X72624220Y32493674D01*
X72516987Y32573894D01*
X72429916Y32638577D01*
X72360686Y32689244D01*
X72306979Y32727419D01*
X72266474Y32754626D01*
X72236852Y32772389D01*
X72215793Y32782231D01*
X72200978Y32785675D01*
X72190088Y32784245D01*
X72185149Y32782050D01*
X72163820Y32769928D01*
X72122377Y32745775D01*
X72064944Y32712015D01*
X71995643Y32671074D01*
X71918597Y32625379D01*
X71896269Y32612105D01*
X71639054Y32459106D01*
X71645383Y32405825D01*
X71648330Y32379106D01*
X71653746Y32328091D01*
X71661237Y32256562D01*
X71670412Y32168300D01*
X71680874Y32067085D01*
X71692232Y31956698D01*
X71699368Y31887102D01*
X71747025Y31421660D01*
X71580265Y31252102D01*
X71521418Y31192042D01*
X71466543Y31135619D01*
X71420006Y31087354D01*
X71386174Y31051770D01*
X71373291Y31037833D01*
X71333078Y30993121D01*
X70834196Y31049303D01*
X70718897Y31062157D01*
X70612820Y31073734D01*
X70519140Y31083704D01*
X70441034Y31091741D01*
X70381675Y31097518D01*
X70344240Y31100708D01*
X70331887Y31101070D01*
X70324340Y31088032D01*
X70304991Y31053793D01*
X70275775Y31001805D01*
X70238632Y30935517D01*
X70195496Y30858381D01*
X70164751Y30803322D01*
X70001043Y30509989D01*
X70251603Y30154211D01*
X70316281Y30062305D01*
X70377801Y29974759D01*
X70433697Y29895091D01*
X70481505Y29826817D01*
X70518761Y29773455D01*
X70543000Y29738521D01*
X70547581Y29731843D01*
X70592998Y29665253D01*
X70554861Y29534287D01*
X70534912Y29462328D01*
X70512504Y29376096D01*
X70491048Y29288922D01*
X70480401Y29243259D01*
X70444078Y29083196D01*
X69519800Y28658466D01*
X69519800Y27975180D01*
X69981939Y27762502D01*
X70444078Y27549825D01*
X70480401Y27390018D01*
X70499767Y27308421D01*
X70522062Y27220022D01*
X70543866Y27138181D01*
X70554861Y27099246D01*
X70592998Y26968280D01*
X70547581Y26901690D01*
X70527998Y26873354D01*
X70494615Y26825471D01*
X70449895Y26761558D01*
X70396304Y26685132D01*
X70336306Y26599710D01*
X70272365Y26508809D01*
X70251603Y26479322D01*
X70001043Y26123544D01*
X70164751Y25830211D01*
X70210773Y25747817D01*
X70252078Y25674000D01*
X70286728Y25612210D01*
X70312787Y25565899D01*
X70328319Y25538515D01*
X70331861Y25532488D01*
X70346163Y25532992D01*
X70385328Y25536376D01*
X70446183Y25542315D01*
X70525551Y25550482D01*
X70620259Y25560551D01*
X70727131Y25572196D01*
X70834171Y25584100D01*
X71333078Y25640100D01*
X71373291Y25595545D01*
X71396801Y25570399D01*
X71435784Y25529699D01*
X71485875Y25477963D01*
X71542706Y25419709D01*
X71580265Y25381431D01*
X71747025Y25211874D01*
X71699368Y24746431D01*
X71687660Y24632334D01*
X71676609Y24525122D01*
X71666608Y24428577D01*
X71658052Y24346478D01*
X71651334Y24282609D01*
X71646847Y24240748D01*
X71645383Y24227708D01*
X71639054Y24174427D01*
X71896269Y24021429D01*
X71974740Y23974839D01*
X72046618Y23932327D01*
X72107779Y23896319D01*
X72154100Y23869240D01*
X72181457Y23853516D01*
X72185149Y23851484D01*
X72194906Y23848100D01*
X72207366Y23848789D01*
X72224850Y23855074D01*
X72249677Y23868479D01*
X72284166Y23890527D01*
X72330637Y23922741D01*
X72391409Y23966645D01*
X72468803Y24023762D01*
X72565137Y24095616D01*
X72624220Y24139859D01*
X73031625Y24445181D01*
X73170129Y24400789D01*
X73249999Y24376517D01*
X73340391Y24351076D01*
X73425141Y24328968D01*
X73447155Y24323634D01*
X73505702Y24309423D01*
X73552920Y24297276D01*
X73582761Y24288787D01*
X73590032Y24285930D01*
X73596413Y24272278D01*
X73612637Y24235627D01*
X73637426Y24178919D01*
X73669501Y24105096D01*
X73707585Y24017097D01*
X73750400Y23917863D01*
X73794256Y23815947D01*
X73840386Y23708781D01*
X73883014Y23610070D01*
X73920861Y23522754D01*
X73952645Y23449772D01*
X73977089Y23394062D01*
X73992912Y23358563D01*
X73998791Y23346238D01*
X74014147Y23344292D01*
X74052864Y23342581D01*
X74110080Y23341131D01*
X74180935Y23339964D01*
X74260568Y23339107D01*
X74344119Y23338583D01*
X74426726Y23338417D01*
X74503529Y23338635D01*
X74569667Y23339260D01*
X74620279Y23340317D01*
X74650504Y23341831D01*
X74656741Y23342905D01*
X74664877Y23357142D01*
X74682742Y23394380D01*
X74709006Y23451655D01*
X74742338Y23526000D01*
X74781409Y23614453D01*
X74824890Y23714047D01*
X74868787Y23815627D01*
X74914956Y23922836D01*
X74957607Y24021605D01*
X74995462Y24108993D01*
X75027242Y24182062D01*
X75051669Y24237872D01*
X75067466Y24273483D01*
X75073315Y24285930D01*
X75088028Y24291049D01*
X75124196Y24300903D01*
X75175770Y24313897D01*
X75216223Y24323634D01*
X75296099Y24343853D01*
X75386492Y24368763D01*
X75471237Y24393861D01*
X75493248Y24400789D01*
X75631752Y24445181D01*
X76039158Y24139859D01*
X76146390Y24059639D01*
X76233462Y23994957D01*
X76302691Y23944290D01*
X76356399Y23906114D01*
X76396904Y23878907D01*
X76426526Y23861144D01*
X76447584Y23851302D01*
X76462399Y23847858D01*
X76473289Y23849289D01*
X76478229Y23851484D01*
X76499557Y23863605D01*
X76541000Y23887758D01*
X76598434Y23921518D01*
X76667735Y23962459D01*
X76744780Y24008154D01*
X76767108Y24021429D01*
X77024323Y24174427D01*
X77017995Y24227708D01*
X77015048Y24254427D01*
X77009632Y24305442D01*
X77002140Y24376971D01*
X76992966Y24465234D01*
X76982503Y24566448D01*
X76971145Y24676835D01*
X76964009Y24746431D01*
X76916352Y25211874D01*
X77083113Y25381431D01*
X77141959Y25441492D01*
X77196835Y25497915D01*
X77243372Y25546179D01*
X77277203Y25581763D01*
X77290087Y25595701D01*
X77330300Y25640412D01*
X77829181Y25584230D01*
X77944481Y25571376D01*
X78050558Y25559800D01*
X78144237Y25549829D01*
X78222344Y25541792D01*
X78281702Y25536015D01*
X78319137Y25532825D01*
X78331491Y25532463D01*
X78339037Y25545501D01*
X78358387Y25579740D01*
X78387602Y25631728D01*
X78424746Y25698016D01*
X78467881Y25775152D01*
X78498626Y25830211D01*
X78662334Y26123544D01*
X78411774Y26479322D01*
X78347096Y26571228D01*
X78285577Y26658774D01*
X78229681Y26738442D01*
X78181873Y26806716D01*
X78144617Y26860078D01*
X78120378Y26895012D01*
X78115796Y26901690D01*
X78070379Y26968280D01*
X78108516Y27099246D01*
X78128465Y27171205D01*
X78150873Y27257437D01*
X78172329Y27344612D01*
X78182977Y27390274D01*
X78219300Y27550337D01*
X79143578Y27975067D01*
X79143578Y28316767D01*
X77153911Y28316767D01*
X77149347Y28115320D01*
X77134723Y27931887D01*
X77108645Y27757621D01*
X77069715Y27583677D01*
X77016540Y27401208D01*
X77002799Y27359067D01*
X76900042Y27092914D01*
X76773010Y26839537D01*
X76622997Y26600644D01*
X76451296Y26377945D01*
X76259198Y26173146D01*
X76047998Y25987957D01*
X75862744Y25852787D01*
X75764573Y25791896D01*
X75648523Y25727649D01*
X75523021Y25664159D01*
X75396494Y25605538D01*
X75277371Y25555899D01*
X75189602Y25524286D01*
X75056217Y25485098D01*
X74911835Y25449945D01*
X74768888Y25421595D01*
X74647719Y25403710D01*
X74566637Y25397013D01*
X74466338Y25392822D01*
X74355714Y25391139D01*
X74243657Y25391968D01*
X74139062Y25395312D01*
X74050820Y25401175D01*
X74028403Y25403479D01*
X73771757Y25444671D01*
X73525442Y25508977D01*
X73283578Y25598134D01*
X73125189Y25670620D01*
X72954549Y25760245D01*
X72801515Y25853733D01*
X72655624Y25957920D01*
X72529884Y26059603D01*
X72326805Y26250012D01*
X72143683Y26459487D01*
X71981472Y26686228D01*
X71841126Y26928433D01*
X71723600Y27184303D01*
X71629849Y27452037D01*
X71560828Y27729834D01*
X71524247Y27956563D01*
X71519131Y28012908D01*
X71514782Y28089311D01*
X71511536Y28177612D01*
X71509728Y28269648D01*
X71509466Y28316767D01*
X71514031Y28518213D01*
X71528654Y28701646D01*
X71554733Y28875912D01*
X71593662Y29049856D01*
X71646838Y29232325D01*
X71660579Y29274466D01*
X71763336Y29540619D01*
X71890367Y29793996D01*
X72040380Y30032889D01*
X72212082Y30255589D01*
X72404179Y30460387D01*
X72615379Y30645576D01*
X72800633Y30780746D01*
X72898308Y30841342D01*
X73013808Y30905325D01*
X73138747Y30968600D01*
X73264740Y31027074D01*
X73383399Y31076651D01*
X73472829Y31108933D01*
X73742109Y31181926D01*
X74015492Y31227345D01*
X74291068Y31245189D01*
X74566924Y31235460D01*
X74841151Y31198156D01*
X75111838Y31133279D01*
X75190549Y31108933D01*
X75296265Y31070227D01*
X75416495Y31019119D01*
X75542852Y30959704D01*
X75666950Y30896075D01*
X75780404Y30832327D01*
X75862744Y30780746D01*
X76088549Y30612792D01*
X76296304Y30423838D01*
X76484716Y30215590D01*
X76652494Y29989759D01*
X76798343Y29748051D01*
X76920970Y29492176D01*
X77002799Y29274466D01*
X77059294Y29088936D01*
X77101236Y28913876D01*
X77130020Y28740440D01*
X77147043Y28559781D01*
X77153699Y28363054D01*
X77153911Y28316767D01*
X79143578Y28316767D01*
X79143578Y28658466D01*
X78219300Y29083196D01*
X78182977Y29243259D01*
X78163630Y29324885D01*
X78141358Y29413288D01*
X78119569Y29495135D01*
X78108516Y29534287D01*
X78070379Y29665253D01*
X78115796Y29731843D01*
X78135379Y29760179D01*
X78168763Y29808062D01*
X78213482Y29871975D01*
X78267073Y29948401D01*
X78327072Y30033823D01*
X78391012Y30124724D01*
X78411774Y30154211D01*
X78662334Y30509989D01*
X78498626Y30803322D01*
X78452603Y30885718D01*
X78411295Y30959539D01*
X78376640Y31021333D01*
X78350575Y31067650D01*
X78335037Y31095040D01*
X78331491Y31101070D01*
X78317184Y31100568D01*
X78278015Y31097175D01*
X78217157Y31091219D01*
X78137787Y31083027D01*
X78043080Y31072926D01*
X77936210Y31061244D01*
X77829181Y31049303D01*
X77330300Y30993121D01*
X77290087Y31037833D01*
X77266575Y31063033D01*
X77227588Y31103781D01*
X77177493Y31155555D01*
X77120658Y31213834D01*
X77083113Y31252102D01*
X76916352Y31421660D01*
X76964009Y31887102D01*
X76975718Y32001199D01*
X76986769Y32108411D01*
X76996769Y32204957D01*
X77005325Y32287055D01*
X77012043Y32350925D01*
X77016530Y32392785D01*
X77017995Y32405825D01*
X77024323Y32459106D01*
X76767108Y32612105D01*
X76688637Y32658694D01*
X76616760Y32701206D01*
X76555599Y32737214D01*
X76509278Y32764293D01*
X76481920Y32780017D01*
X76478229Y32782050D01*
X76468472Y32785433D01*
X76456011Y32784744D01*
X76438527Y32778459D01*
X76413701Y32765054D01*
X76379212Y32743007D01*
X76332741Y32710792D01*
X76271968Y32666888D01*
X76194574Y32609771D01*
X76098240Y32537917D01*
X76039158Y32493674D01*
X75631752Y32188352D01*
X75493248Y32232745D01*
X75413379Y32257016D01*
X75322986Y32282457D01*
X75238237Y32304565D01*
X75216223Y32309899D01*
X75157671Y32324110D01*
X75110445Y32336258D01*
X75080593Y32344747D01*
X75073315Y32347603D01*
X75066924Y32361254D01*
X75050684Y32397902D01*
X75025875Y32454607D01*
X74993774Y32528430D01*
X74955660Y32616431D01*
X74912812Y32715670D01*
X74868800Y32817877D01*
X74822636Y32925058D01*
X74779988Y33023774D01*
X74742134Y33111090D01*
X74710352Y33184071D01*
X74685920Y33239780D01*
X74670116Y33275284D01*
X74664256Y33287625D01*
X74649472Y33288974D01*
X74611276Y33290073D01*
X74554478Y33290919D01*
X74483887Y33291515D01*
X74404312Y33291858D01*
X74320562Y33291951D01*
X74237448Y33291792D01*
G36*
X75608292Y24391752D02*
X75589073Y24380716D01*
X75597286Y24374030D01*
X75616633Y24372711D01*
X75636307Y24377921D01*
X75637347Y24386206D01*
X75618990Y24393893D01*
X75608292Y24391752D01*
X75608292Y24391752D01*
G37*
X75608292Y24391752D02*
X75589073Y24380716D01*
X75597286Y24374030D01*
X75616633Y24372711D01*
X75636307Y24377921D01*
X75637347Y24386206D01*
X75618990Y24393893D01*
X75608292Y24391752D01*
G36*
X75070613Y30172288D02*
X74877711Y30171995D01*
X74710155Y30171460D01*
X74566509Y30170646D01*
X74445335Y30169515D01*
X74345196Y30168030D01*
X74264653Y30166154D01*
X74202271Y30163848D01*
X74156610Y30161076D01*
X74126235Y30157799D01*
X74109707Y30153981D01*
X74105589Y30149583D01*
X74112444Y30144568D01*
X74119577Y30141804D01*
X74125862Y30127342D01*
X74137080Y30088675D01*
X74152389Y30029221D01*
X74170949Y29952401D01*
X74191919Y29861632D01*
X74214460Y29760336D01*
X74223041Y29720822D01*
X74312840Y29304544D01*
X75166795Y29300908D01*
X76020749Y29297272D01*
X76060120Y29117464D01*
X76075384Y29048673D01*
X76088961Y28989189D01*
X76099498Y28944817D01*
X76105643Y28921364D01*
X76106099Y28920017D01*
X76102420Y28914425D01*
X76084982Y28910071D01*
X76051220Y28906827D01*
X75998566Y28904567D01*
X75924452Y28903163D01*
X75826310Y28902487D01*
X75750727Y28902378D01*
X75388747Y28902378D01*
X75110690Y28482572D01*
X75046327Y28385304D01*
X74986969Y28295418D01*
X74934406Y28215638D01*
X74890427Y28148689D01*
X74856822Y28097293D01*
X74835379Y28064176D01*
X74827929Y28052183D01*
X74840682Y28050152D01*
X74879060Y28048249D01*
X74940465Y28046512D01*
X75022302Y28044978D01*
X75121972Y28043685D01*
X75236878Y28042671D01*
X75364424Y28041973D01*
X75502012Y28041630D01*
X75557229Y28041600D01*
X75720250Y28041552D01*
X75857315Y28041359D01*
X75970691Y28040945D01*
X76062642Y28040235D01*
X76135437Y28039152D01*
X76191341Y28037623D01*
X76232619Y28035570D01*
X76261539Y28032918D01*
X76280366Y28029593D01*
X76291367Y28025518D01*
X76296808Y28020618D01*
X76298452Y28016905D01*
X76303337Y27996754D01*
X76312978Y27954212D01*
X76326426Y27893665D01*
X76342730Y27819500D01*
X76360940Y27736105D01*
X76380108Y27647866D01*
X76399283Y27559170D01*
X76417515Y27474404D01*
X76433854Y27397955D01*
X76447352Y27334209D01*
X76457057Y27287554D01*
X76462021Y27262377D01*
X76462466Y27259333D01*
X76448758Y27257922D01*
X76409240Y27256592D01*
X76346326Y27255363D01*
X76262429Y27254259D01*
X76159963Y27253301D01*
X76041340Y27252512D01*
X75908973Y27251914D01*
X75765276Y27251529D01*
X75612662Y27251379D01*
X75597573Y27251378D01*
X74732680Y27251378D01*
X74444040Y26853796D01*
X74375869Y26760083D01*
X74312427Y26673226D01*
X74255744Y26595980D01*
X74207851Y26531094D01*
X74170776Y26481322D01*
X74146552Y26449416D01*
X74137710Y26438526D01*
X74122498Y26419351D01*
X74120022Y26412775D01*
X74133785Y26411534D01*
X74173685Y26410352D01*
X74237634Y26409243D01*
X74323546Y26408221D01*
X74429336Y26407301D01*
X74552916Y26406497D01*
X74692201Y26405825D01*
X74845104Y26405297D01*
X75009540Y26404930D01*
X75183421Y26404737D01*
X75277148Y26404711D01*
X76434274Y26404711D01*
X76501287Y26490585D01*
X76664726Y26722572D01*
X76805321Y26969512D01*
X76921959Y27228667D01*
X77013525Y27497300D01*
X77078905Y27772676D01*
X77110763Y27988127D01*
X77125141Y28203713D01*
X77123764Y28431627D01*
X77107124Y28661124D01*
X77075718Y28881459D01*
X77067695Y28923544D01*
X77021858Y29110750D01*
X76958722Y29304796D01*
X76881138Y29499455D01*
X76791956Y29688498D01*
X76694026Y29865698D01*
X76590201Y30024827D01*
X76523528Y30112405D01*
X76474688Y30172378D01*
X75290300Y30172378D01*
X75070613Y30172288D01*
X75070613Y30172288D01*
G37*
X75070613Y30172288D02*
X74877711Y30171995D01*
X74710155Y30171460D01*
X74566509Y30170646D01*
X74445335Y30169515D01*
X74345196Y30168030D01*
X74264653Y30166154D01*
X74202271Y30163848D01*
X74156610Y30161076D01*
X74126235Y30157799D01*
X74109707Y30153981D01*
X74105589Y30149583D01*
X74112444Y30144568D01*
X74119577Y30141804D01*
X74125862Y30127342D01*
X74137080Y30088675D01*
X74152389Y30029221D01*
X74170949Y29952401D01*
X74191919Y29861632D01*
X74214460Y29760336D01*
X74223041Y29720822D01*
X74312840Y29304544D01*
X75166795Y29300908D01*
X76020749Y29297272D01*
X76060120Y29117464D01*
X76075384Y29048673D01*
X76088961Y28989189D01*
X76099498Y28944817D01*
X76105643Y28921364D01*
X76106099Y28920017D01*
X76102420Y28914425D01*
X76084982Y28910071D01*
X76051220Y28906827D01*
X75998566Y28904567D01*
X75924452Y28903163D01*
X75826310Y28902487D01*
X75750727Y28902378D01*
X75388747Y28902378D01*
X75110690Y28482572D01*
X75046327Y28385304D01*
X74986969Y28295418D01*
X74934406Y28215638D01*
X74890427Y28148689D01*
X74856822Y28097293D01*
X74835379Y28064176D01*
X74827929Y28052183D01*
X74840682Y28050152D01*
X74879060Y28048249D01*
X74940465Y28046512D01*
X75022302Y28044978D01*
X75121972Y28043685D01*
X75236878Y28042671D01*
X75364424Y28041973D01*
X75502012Y28041630D01*
X75557229Y28041600D01*
X75720250Y28041552D01*
X75857315Y28041359D01*
X75970691Y28040945D01*
X76062642Y28040235D01*
X76135437Y28039152D01*
X76191341Y28037623D01*
X76232619Y28035570D01*
X76261539Y28032918D01*
X76280366Y28029593D01*
X76291367Y28025518D01*
X76296808Y28020618D01*
X76298452Y28016905D01*
X76303337Y27996754D01*
X76312978Y27954212D01*
X76326426Y27893665D01*
X76342730Y27819500D01*
X76360940Y27736105D01*
X76380108Y27647866D01*
X76399283Y27559170D01*
X76417515Y27474404D01*
X76433854Y27397955D01*
X76447352Y27334209D01*
X76457057Y27287554D01*
X76462021Y27262377D01*
X76462466Y27259333D01*
X76448758Y27257922D01*
X76409240Y27256592D01*
X76346326Y27255363D01*
X76262429Y27254259D01*
X76159963Y27253301D01*
X76041340Y27252512D01*
X75908973Y27251914D01*
X75765276Y27251529D01*
X75612662Y27251379D01*
X75597573Y27251378D01*
X74732680Y27251378D01*
X74444040Y26853796D01*
X74375869Y26760083D01*
X74312427Y26673226D01*
X74255744Y26595980D01*
X74207851Y26531094D01*
X74170776Y26481322D01*
X74146552Y26449416D01*
X74137710Y26438526D01*
X74122498Y26419351D01*
X74120022Y26412775D01*
X74133785Y26411534D01*
X74173685Y26410352D01*
X74237634Y26409243D01*
X74323546Y26408221D01*
X74429336Y26407301D01*
X74552916Y26406497D01*
X74692201Y26405825D01*
X74845104Y26405297D01*
X75009540Y26404930D01*
X75183421Y26404737D01*
X75277148Y26404711D01*
X76434274Y26404711D01*
X76501287Y26490585D01*
X76664726Y26722572D01*
X76805321Y26969512D01*
X76921959Y27228667D01*
X77013525Y27497300D01*
X77078905Y27772676D01*
X77110763Y27988127D01*
X77125141Y28203713D01*
X77123764Y28431627D01*
X77107124Y28661124D01*
X77075718Y28881459D01*
X77067695Y28923544D01*
X77021858Y29110750D01*
X76958722Y29304796D01*
X76881138Y29499455D01*
X76791956Y29688498D01*
X76694026Y29865698D01*
X76590201Y30024827D01*
X76523528Y30112405D01*
X76474688Y30172378D01*
X75290300Y30172378D01*
X75070613Y30172288D01*
G36*
X72139850Y30112405D02*
X72031344Y29964285D01*
X71927592Y29793982D01*
X71831318Y29607463D01*
X71745252Y29410697D01*
X71672118Y29209649D01*
X71614645Y29010287D01*
X71593327Y28916489D01*
X71575989Y28818358D01*
X71567439Y28729120D01*
X71567943Y28641020D01*
X71577765Y28546307D01*
X71597170Y28437224D01*
X71612049Y28368180D01*
X71657633Y28165594D01*
X72638355Y27632370D01*
X72791952Y27548933D01*
X72938266Y27469596D01*
X73075422Y27395367D01*
X73201545Y27327255D01*
X73314761Y27266266D01*
X73413194Y27213410D01*
X73494969Y27169694D01*
X73558212Y27136126D01*
X73601048Y27113714D01*
X73621602Y27103466D01*
X73623177Y27102926D01*
X73621036Y27116793D01*
X73613639Y27154583D01*
X73601768Y27212649D01*
X73586206Y27287347D01*
X73567736Y27375029D01*
X73547141Y27472050D01*
X73525205Y27574765D01*
X73502710Y27679527D01*
X73480440Y27782690D01*
X73459177Y27880610D01*
X73439704Y27969640D01*
X73422806Y28046134D01*
X73409264Y28106446D01*
X73399862Y28146930D01*
X73395382Y28163942D01*
X73395230Y28164217D01*
X73382788Y28171536D01*
X73348619Y28191106D01*
X73295575Y28221309D01*
X73226506Y28260526D01*
X73144265Y28307135D01*
X73051702Y28359520D01*
X72976701Y28401917D01*
X72877727Y28457963D01*
X72786513Y28509850D01*
X72705993Y28555891D01*
X72639103Y28594398D01*
X72588776Y28623683D01*
X72557948Y28642059D01*
X72549422Y28647633D01*
X72543772Y28663794D01*
X72533759Y28703484D01*
X72520267Y28762501D01*
X72504180Y28836643D01*
X72486382Y28921709D01*
X72467757Y29013496D01*
X72449189Y29107804D01*
X72431563Y29200431D01*
X72420859Y29258683D01*
X72411299Y29311600D01*
X72934049Y29311600D01*
X73069793Y29311515D01*
X73179951Y29311181D01*
X73267162Y29310479D01*
X73334061Y29309291D01*
X73383287Y29307500D01*
X73417475Y29304985D01*
X73439262Y29301630D01*
X73451287Y29297315D01*
X73456185Y29291922D01*
X73456800Y29288133D01*
X73459747Y29270940D01*
X73468261Y29228434D01*
X73481854Y29162867D01*
X73500037Y29076490D01*
X73522319Y28971554D01*
X73548211Y28850312D01*
X73577225Y28715014D01*
X73608872Y28567913D01*
X73642661Y28411260D01*
X73678103Y28247306D01*
X73714711Y28078304D01*
X73751993Y27906504D01*
X73789461Y27734158D01*
X73826625Y27563518D01*
X73862997Y27396835D01*
X73898087Y27236361D01*
X73931406Y27084347D01*
X73962465Y26943046D01*
X73990773Y26814708D01*
X74015843Y26701585D01*
X74037185Y26605929D01*
X74054309Y26529992D01*
X74066726Y26476024D01*
X74073948Y26446277D01*
X74075402Y26441317D01*
X74081137Y26437534D01*
X74092572Y26443970D01*
X74111209Y26462493D01*
X74138552Y26494969D01*
X74176104Y26543263D01*
X74225367Y26609243D01*
X74287847Y26694773D01*
X74359559Y26794095D01*
X74427241Y26887985D01*
X74491597Y26976908D01*
X74550273Y27057637D01*
X74600916Y27126950D01*
X74641175Y27181622D01*
X74668695Y27218429D01*
X74677821Y27230229D01*
X74722937Y27286691D01*
X74404218Y28729534D01*
X74085498Y30172378D01*
X72188689Y30172378D01*
X72139850Y30112405D01*
X72139850Y30112405D01*
G37*
X72139850Y30112405D02*
X72031344Y29964285D01*
X71927592Y29793982D01*
X71831318Y29607463D01*
X71745252Y29410697D01*
X71672118Y29209649D01*
X71614645Y29010287D01*
X71593327Y28916489D01*
X71575989Y28818358D01*
X71567439Y28729120D01*
X71567943Y28641020D01*
X71577765Y28546307D01*
X71597170Y28437224D01*
X71612049Y28368180D01*
X71657633Y28165594D01*
X72638355Y27632370D01*
X72791952Y27548933D01*
X72938266Y27469596D01*
X73075422Y27395367D01*
X73201545Y27327255D01*
X73314761Y27266266D01*
X73413194Y27213410D01*
X73494969Y27169694D01*
X73558212Y27136126D01*
X73601048Y27113714D01*
X73621602Y27103466D01*
X73623177Y27102926D01*
X73621036Y27116793D01*
X73613639Y27154583D01*
X73601768Y27212649D01*
X73586206Y27287347D01*
X73567736Y27375029D01*
X73547141Y27472050D01*
X73525205Y27574765D01*
X73502710Y27679527D01*
X73480440Y27782690D01*
X73459177Y27880610D01*
X73439704Y27969640D01*
X73422806Y28046134D01*
X73409264Y28106446D01*
X73399862Y28146930D01*
X73395382Y28163942D01*
X73395230Y28164217D01*
X73382788Y28171536D01*
X73348619Y28191106D01*
X73295575Y28221309D01*
X73226506Y28260526D01*
X73144265Y28307135D01*
X73051702Y28359520D01*
X72976701Y28401917D01*
X72877727Y28457963D01*
X72786513Y28509850D01*
X72705993Y28555891D01*
X72639103Y28594398D01*
X72588776Y28623683D01*
X72557948Y28642059D01*
X72549422Y28647633D01*
X72543772Y28663794D01*
X72533759Y28703484D01*
X72520267Y28762501D01*
X72504180Y28836643D01*
X72486382Y28921709D01*
X72467757Y29013496D01*
X72449189Y29107804D01*
X72431563Y29200431D01*
X72420859Y29258683D01*
X72411299Y29311600D01*
X72934049Y29311600D01*
X73069793Y29311515D01*
X73179951Y29311181D01*
X73267162Y29310479D01*
X73334061Y29309291D01*
X73383287Y29307500D01*
X73417475Y29304985D01*
X73439262Y29301630D01*
X73451287Y29297315D01*
X73456185Y29291922D01*
X73456800Y29288133D01*
X73459747Y29270940D01*
X73468261Y29228434D01*
X73481854Y29162867D01*
X73500037Y29076490D01*
X73522319Y28971554D01*
X73548211Y28850312D01*
X73577225Y28715014D01*
X73608872Y28567913D01*
X73642661Y28411260D01*
X73678103Y28247306D01*
X73714711Y28078304D01*
X73751993Y27906504D01*
X73789461Y27734158D01*
X73826625Y27563518D01*
X73862997Y27396835D01*
X73898087Y27236361D01*
X73931406Y27084347D01*
X73962465Y26943046D01*
X73990773Y26814708D01*
X74015843Y26701585D01*
X74037185Y26605929D01*
X74054309Y26529992D01*
X74066726Y26476024D01*
X74073948Y26446277D01*
X74075402Y26441317D01*
X74081137Y26437534D01*
X74092572Y26443970D01*
X74111209Y26462493D01*
X74138552Y26494969D01*
X74176104Y26543263D01*
X74225367Y26609243D01*
X74287847Y26694773D01*
X74359559Y26794095D01*
X74427241Y26887985D01*
X74491597Y26976908D01*
X74550273Y27057637D01*
X74600916Y27126950D01*
X74641175Y27181622D01*
X74668695Y27218429D01*
X74677821Y27230229D01*
X74722937Y27286691D01*
X74404218Y28729534D01*
X74085498Y30172378D01*
X72188689Y30172378D01*
X72139850Y30112405D01*
G36*
X7404855Y28090225D02*
X7240115Y28078561D01*
X6616959Y27995702D01*
X6021916Y27855912D01*
X5454663Y27659039D01*
X4914875Y27404926D01*
X4402228Y27093419D01*
X3916398Y26724365D01*
X3457060Y26297609D01*
X3419475Y26258926D01*
X3131391Y25942456D01*
X2885978Y25631268D01*
X2668392Y25304427D01*
X2463790Y24940997D01*
X2408377Y24832950D01*
X2155872Y24263718D01*
X1965568Y23683043D01*
X1837627Y23093028D01*
X1772211Y22495781D01*
X1769484Y21893404D01*
X1829607Y21288004D01*
X1952745Y20681686D01*
X2059026Y20311794D01*
X2269268Y19756877D01*
X2535523Y19227950D01*
X2854304Y18728823D01*
X3222124Y18263308D01*
X3635494Y17835216D01*
X4090927Y17448358D01*
X4584937Y17106545D01*
X5114034Y16813588D01*
X5367122Y16696768D01*
X5605169Y16601262D01*
X5796748Y16542737D01*
X5946870Y16520995D01*
X6060545Y16535840D01*
X6142783Y16587074D01*
X6194093Y16664208D01*
X6205943Y16724542D01*
X6215382Y16848102D01*
X6222404Y17034659D01*
X6227002Y17283985D01*
X6229167Y17595852D01*
X6229350Y17733549D01*
X6230018Y18034455D01*
X6232214Y18278993D01*
X6236225Y18474279D01*
X6242340Y18627433D01*
X6250846Y18745573D01*
X6262031Y18835818D01*
X6276182Y18905287D01*
X6276824Y18907773D01*
X6350670Y19129828D01*
X6445456Y19318768D01*
X6538033Y19442808D01*
X6617479Y19527641D01*
X6463102Y19549461D01*
X6007103Y19633006D01*
X5603416Y19748047D01*
X5248343Y19896158D01*
X4938189Y20078917D01*
X4669254Y20297898D01*
X4639677Y20326586D01*
X4517231Y20453041D01*
X4424030Y20565927D01*
X4344563Y20687103D01*
X4263323Y20838430D01*
X4232830Y20900043D01*
X4128807Y21129019D01*
X4050345Y21343579D01*
X3994365Y21558892D01*
X3957790Y21790125D01*
X3937541Y22052447D01*
X3930540Y22361024D01*
X3930457Y22390100D01*
X3930744Y22595195D01*
X3933272Y22750137D01*
X3939430Y22868270D01*
X3950608Y22962934D01*
X3968193Y23047472D01*
X3993574Y23135227D01*
X4014713Y23199725D01*
X4134793Y23490631D01*
X4292433Y23771372D01*
X4420191Y23950383D01*
X4476211Y24028417D01*
X4495580Y24087838D01*
X4485707Y24155762D01*
X4480910Y24172633D01*
X4426248Y24443480D01*
X4408809Y24743737D01*
X4427994Y25051808D01*
X4483202Y25346097D01*
X4516674Y25459454D01*
X4554283Y25566734D01*
X4584726Y25626906D01*
X4619558Y25653542D01*
X4670334Y25660212D01*
X4687731Y25660351D01*
X4900711Y25638634D01*
X5147856Y25576089D01*
X5418263Y25476621D01*
X5701031Y25344137D01*
X5934314Y25213701D01*
X6211177Y25047072D01*
X6562479Y25116478D01*
X7140504Y25199357D01*
X7735069Y25224149D01*
X8337580Y25191082D01*
X8939445Y25100383D01*
X9182100Y25047054D01*
X9214131Y25060737D01*
X9288913Y25100763D01*
X9394801Y25160711D01*
X9502799Y25223858D01*
X9765240Y25367346D01*
X10023450Y25485929D01*
X10267531Y25576196D01*
X10487584Y25634737D01*
X10673712Y25658143D01*
X10754768Y25655187D01*
X10802316Y25645597D01*
X10836640Y25621256D01*
X10865941Y25569402D01*
X10898422Y25477274D01*
X10924909Y25390475D01*
X10966167Y25206589D01*
X10992790Y24991653D01*
X11004355Y24764689D01*
X11000441Y24544720D01*
X10980627Y24350766D01*
X10950829Y24220139D01*
X10900694Y24065803D01*
X11030673Y23902639D01*
X11158848Y23713125D01*
X11278097Y23484500D01*
X11377281Y23241113D01*
X11445262Y23007316D01*
X11449639Y22986752D01*
X11481730Y22761414D01*
X11496583Y22496565D01*
X11494171Y22213817D01*
X11474467Y21934781D01*
X11451109Y21757752D01*
X11365921Y21364589D01*
X11243949Y21018269D01*
X11081725Y20711578D01*
X10875784Y20437303D01*
X10755753Y20310475D01*
X10482339Y20081302D01*
X10167255Y19891928D01*
X9807184Y19740831D01*
X9398807Y19626488D01*
X9166225Y19581044D01*
X9032383Y19557528D01*
X8924297Y19537092D01*
X8855709Y19522421D01*
X8838616Y19517081D01*
X8850578Y19488734D01*
X8892026Y19425995D01*
X8935712Y19366644D01*
X9006642Y19253200D01*
X9071003Y19116373D01*
X9098783Y19038086D01*
X9133571Y18925002D01*
X9165608Y18827602D01*
X9182999Y18779788D01*
X9239415Y18718222D01*
X9349029Y18666611D01*
X9501963Y18627596D01*
X9688337Y18603817D01*
X9864725Y18597554D01*
X10015730Y18601002D01*
X10126225Y18612910D01*
X10219062Y18637571D01*
X10317094Y18679274D01*
X10328059Y18684544D01*
X10524012Y18810083D01*
X10717404Y18994094D01*
X10903129Y19231600D01*
X10929476Y19270723D01*
X11102050Y19487596D01*
X11297994Y19655390D01*
X11510556Y19769847D01*
X11732984Y19826712D01*
X11820322Y19832353D01*
X11966180Y19822286D01*
X12053276Y19789066D01*
X12081570Y19733710D01*
X12051022Y19657231D01*
X11961592Y19560647D01*
X11835072Y19460488D01*
X11683412Y19340467D01*
X11556186Y19212043D01*
X11442091Y19060871D01*
X11329827Y18872609D01*
X11249109Y18716776D01*
X11144015Y18516653D01*
X11048613Y18363817D01*
X10952598Y18245285D01*
X10845665Y18148074D01*
X10736914Y18071500D01*
X10499931Y17951667D01*
X10227669Y17874943D01*
X9916174Y17840689D01*
X9561489Y17848268D01*
X9428163Y17860497D01*
X9182100Y17887018D01*
X9182100Y17299370D01*
X9182313Y17092815D01*
X9183745Y16939814D01*
X9187589Y16830422D01*
X9195039Y16754693D01*
X9207287Y16702682D01*
X9225527Y16664442D01*
X9250950Y16630028D01*
X9264298Y16614037D01*
X9336139Y16550957D01*
X9424460Y16520212D01*
X9538193Y16522164D01*
X9686272Y16557179D01*
X9877630Y16625619D01*
X9914958Y16640544D01*
X10446114Y16883643D01*
X10936490Y17168488D01*
X11397316Y17502329D01*
X11810803Y17864648D01*
X12226587Y18302646D01*
X12589967Y18772776D01*
X12900541Y19270733D01*
X13157909Y19792208D01*
X13361670Y20332896D01*
X13511424Y20888489D01*
X13606769Y21454680D01*
X13647306Y22027164D01*
X13632633Y22601632D01*
X13562350Y23173778D01*
X13436056Y23739296D01*
X13253351Y24293878D01*
X13013833Y24833218D01*
X12717102Y25353009D01*
X12532731Y25624338D01*
X12155586Y26095103D01*
X11736396Y26521570D01*
X11279624Y26901670D01*
X10789733Y27233332D01*
X10271187Y27514488D01*
X9728450Y27743068D01*
X9165984Y27917001D01*
X8588254Y28034218D01*
X7999723Y28092650D01*
X7404855Y28090225D01*
X7404855Y28090225D01*
G37*
X7404855Y28090225D02*
X7240115Y28078561D01*
X6616959Y27995702D01*
X6021916Y27855912D01*
X5454663Y27659039D01*
X4914875Y27404926D01*
X4402228Y27093419D01*
X3916398Y26724365D01*
X3457060Y26297609D01*
X3419475Y26258926D01*
X3131391Y25942456D01*
X2885978Y25631268D01*
X2668392Y25304427D01*
X2463790Y24940997D01*
X2408377Y24832950D01*
X2155872Y24263718D01*
X1965568Y23683043D01*
X1837627Y23093028D01*
X1772211Y22495781D01*
X1769484Y21893404D01*
X1829607Y21288004D01*
X1952745Y20681686D01*
X2059026Y20311794D01*
X2269268Y19756877D01*
X2535523Y19227950D01*
X2854304Y18728823D01*
X3222124Y18263308D01*
X3635494Y17835216D01*
X4090927Y17448358D01*
X4584937Y17106545D01*
X5114034Y16813588D01*
X5367122Y16696768D01*
X5605169Y16601262D01*
X5796748Y16542737D01*
X5946870Y16520995D01*
X6060545Y16535840D01*
X6142783Y16587074D01*
X6194093Y16664208D01*
X6205943Y16724542D01*
X6215382Y16848102D01*
X6222404Y17034659D01*
X6227002Y17283985D01*
X6229167Y17595852D01*
X6229350Y17733549D01*
X6230018Y18034455D01*
X6232214Y18278993D01*
X6236225Y18474279D01*
X6242340Y18627433D01*
X6250846Y18745573D01*
X6262031Y18835818D01*
X6276182Y18905287D01*
X6276824Y18907773D01*
X6350670Y19129828D01*
X6445456Y19318768D01*
X6538033Y19442808D01*
X6617479Y19527641D01*
X6463102Y19549461D01*
X6007103Y19633006D01*
X5603416Y19748047D01*
X5248343Y19896158D01*
X4938189Y20078917D01*
X4669254Y20297898D01*
X4639677Y20326586D01*
X4517231Y20453041D01*
X4424030Y20565927D01*
X4344563Y20687103D01*
X4263323Y20838430D01*
X4232830Y20900043D01*
X4128807Y21129019D01*
X4050345Y21343579D01*
X3994365Y21558892D01*
X3957790Y21790125D01*
X3937541Y22052447D01*
X3930540Y22361024D01*
X3930457Y22390100D01*
X3930744Y22595195D01*
X3933272Y22750137D01*
X3939430Y22868270D01*
X3950608Y22962934D01*
X3968193Y23047472D01*
X3993574Y23135227D01*
X4014713Y23199725D01*
X4134793Y23490631D01*
X4292433Y23771372D01*
X4420191Y23950383D01*
X4476211Y24028417D01*
X4495580Y24087838D01*
X4485707Y24155762D01*
X4480910Y24172633D01*
X4426248Y24443480D01*
X4408809Y24743737D01*
X4427994Y25051808D01*
X4483202Y25346097D01*
X4516674Y25459454D01*
X4554283Y25566734D01*
X4584726Y25626906D01*
X4619558Y25653542D01*
X4670334Y25660212D01*
X4687731Y25660351D01*
X4900711Y25638634D01*
X5147856Y25576089D01*
X5418263Y25476621D01*
X5701031Y25344137D01*
X5934314Y25213701D01*
X6211177Y25047072D01*
X6562479Y25116478D01*
X7140504Y25199357D01*
X7735069Y25224149D01*
X8337580Y25191082D01*
X8939445Y25100383D01*
X9182100Y25047054D01*
X9214131Y25060737D01*
X9288913Y25100763D01*
X9394801Y25160711D01*
X9502799Y25223858D01*
X9765240Y25367346D01*
X10023450Y25485929D01*
X10267531Y25576196D01*
X10487584Y25634737D01*
X10673712Y25658143D01*
X10754768Y25655187D01*
X10802316Y25645597D01*
X10836640Y25621256D01*
X10865941Y25569402D01*
X10898422Y25477274D01*
X10924909Y25390475D01*
X10966167Y25206589D01*
X10992790Y24991653D01*
X11004355Y24764689D01*
X11000441Y24544720D01*
X10980627Y24350766D01*
X10950829Y24220139D01*
X10900694Y24065803D01*
X11030673Y23902639D01*
X11158848Y23713125D01*
X11278097Y23484500D01*
X11377281Y23241113D01*
X11445262Y23007316D01*
X11449639Y22986752D01*
X11481730Y22761414D01*
X11496583Y22496565D01*
X11494171Y22213817D01*
X11474467Y21934781D01*
X11451109Y21757752D01*
X11365921Y21364589D01*
X11243949Y21018269D01*
X11081725Y20711578D01*
X10875784Y20437303D01*
X10755753Y20310475D01*
X10482339Y20081302D01*
X10167255Y19891928D01*
X9807184Y19740831D01*
X9398807Y19626488D01*
X9166225Y19581044D01*
X9032383Y19557528D01*
X8924297Y19537092D01*
X8855709Y19522421D01*
X8838616Y19517081D01*
X8850578Y19488734D01*
X8892026Y19425995D01*
X8935712Y19366644D01*
X9006642Y19253200D01*
X9071003Y19116373D01*
X9098783Y19038086D01*
X9133571Y18925002D01*
X9165608Y18827602D01*
X9182999Y18779788D01*
X9239415Y18718222D01*
X9349029Y18666611D01*
X9501963Y18627596D01*
X9688337Y18603817D01*
X9864725Y18597554D01*
X10015730Y18601002D01*
X10126225Y18612910D01*
X10219062Y18637571D01*
X10317094Y18679274D01*
X10328059Y18684544D01*
X10524012Y18810083D01*
X10717404Y18994094D01*
X10903129Y19231600D01*
X10929476Y19270723D01*
X11102050Y19487596D01*
X11297994Y19655390D01*
X11510556Y19769847D01*
X11732984Y19826712D01*
X11820322Y19832353D01*
X11966180Y19822286D01*
X12053276Y19789066D01*
X12081570Y19733710D01*
X12051022Y19657231D01*
X11961592Y19560647D01*
X11835072Y19460488D01*
X11683412Y19340467D01*
X11556186Y19212043D01*
X11442091Y19060871D01*
X11329827Y18872609D01*
X11249109Y18716776D01*
X11144015Y18516653D01*
X11048613Y18363817D01*
X10952598Y18245285D01*
X10845665Y18148074D01*
X10736914Y18071500D01*
X10499931Y17951667D01*
X10227669Y17874943D01*
X9916174Y17840689D01*
X9561489Y17848268D01*
X9428163Y17860497D01*
X9182100Y17887018D01*
X9182100Y17299370D01*
X9182313Y17092815D01*
X9183745Y16939814D01*
X9187589Y16830422D01*
X9195039Y16754693D01*
X9207287Y16702682D01*
X9225527Y16664442D01*
X9250950Y16630028D01*
X9264298Y16614037D01*
X9336139Y16550957D01*
X9424460Y16520212D01*
X9538193Y16522164D01*
X9686272Y16557179D01*
X9877630Y16625619D01*
X9914958Y16640544D01*
X10446114Y16883643D01*
X10936490Y17168488D01*
X11397316Y17502329D01*
X11810803Y17864648D01*
X12226587Y18302646D01*
X12589967Y18772776D01*
X12900541Y19270733D01*
X13157909Y19792208D01*
X13361670Y20332896D01*
X13511424Y20888489D01*
X13606769Y21454680D01*
X13647306Y22027164D01*
X13632633Y22601632D01*
X13562350Y23173778D01*
X13436056Y23739296D01*
X13253351Y24293878D01*
X13013833Y24833218D01*
X12717102Y25353009D01*
X12532731Y25624338D01*
X12155586Y26095103D01*
X11736396Y26521570D01*
X11279624Y26901670D01*
X10789733Y27233332D01*
X10271187Y27514488D01*
X9728450Y27743068D01*
X9165984Y27917001D01*
X8588254Y28034218D01*
X7999723Y28092650D01*
X7404855Y28090225D01*
G36*
X9740640Y18465700D02*
X9696028Y18428633D01*
X9702543Y18383565D01*
X9752275Y18345873D01*
X9809423Y18332026D01*
X9881268Y18331937D01*
X9909266Y18357017D01*
X9912350Y18385449D01*
X9885767Y18444999D01*
X9820529Y18474849D01*
X9740640Y18465700D01*
X9740640Y18465700D01*
G37*
X9740640Y18465700D02*
X9696028Y18428633D01*
X9702543Y18383565D01*
X9752275Y18345873D01*
X9809423Y18332026D01*
X9881268Y18331937D01*
X9909266Y18357017D01*
X9912350Y18385449D01*
X9885767Y18444999D01*
X9820529Y18474849D01*
X9740640Y18465700D01*
G36*
X9277350Y18516600D02*
X9224535Y18483018D01*
X9224104Y18451738D01*
X9263743Y18407743D01*
X9333868Y18364272D01*
X9417035Y18374593D01*
X9428163Y18378878D01*
X9465066Y18418542D01*
X9453496Y18472833D01*
X9404350Y18516600D01*
X9323161Y18533216D01*
X9277350Y18516600D01*
X9277350Y18516600D01*
G37*
X9277350Y18516600D02*
X9224535Y18483018D01*
X9224104Y18451738D01*
X9263743Y18407743D01*
X9333868Y18364272D01*
X9417035Y18374593D01*
X9428163Y18378878D01*
X9465066Y18418542D01*
X9453496Y18472833D01*
X9404350Y18516600D01*
X9323161Y18533216D01*
X9277350Y18516600D01*
G36*
X10239093Y18529880D02*
X10187991Y18486168D01*
X10176078Y18434764D01*
X10181366Y18422741D01*
X10231095Y18393921D01*
X10305147Y18394247D01*
X10372490Y18421748D01*
X10387446Y18435835D01*
X10410294Y18494663D01*
X10377448Y18535685D01*
X10311239Y18548350D01*
X10239093Y18529880D01*
X10239093Y18529880D01*
G37*
X10239093Y18529880D02*
X10187991Y18486168D01*
X10176078Y18434764D01*
X10181366Y18422741D01*
X10231095Y18393921D01*
X10305147Y18394247D01*
X10372490Y18421748D01*
X10387446Y18435835D01*
X10410294Y18494663D01*
X10377448Y18535685D01*
X10311239Y18548350D01*
X10239093Y18529880D01*
G36*
X10682591Y18780786D02*
X10628551Y18730589D01*
X10596297Y18673499D01*
X10598173Y18638426D01*
X10645029Y18613835D01*
X10713035Y18620799D01*
X10763250Y18649950D01*
X10798726Y18712388D01*
X10793567Y18770507D01*
X10751317Y18801435D01*
X10739651Y18802350D01*
X10682591Y18780786D01*
X10682591Y18780786D01*
G37*
X10682591Y18780786D02*
X10628551Y18730589D01*
X10596297Y18673499D01*
X10598173Y18638426D01*
X10645029Y18613835D01*
X10713035Y18620799D01*
X10763250Y18649950D01*
X10798726Y18712388D01*
X10793567Y18770507D01*
X10751317Y18801435D01*
X10739651Y18802350D01*
X10682591Y18780786D01*
G36*
X10959452Y19126057D02*
X10919330Y19068770D01*
X10907122Y19008755D01*
X10912881Y18992194D01*
X10961675Y18962617D01*
X11024634Y18980780D01*
X11055015Y19008321D01*
X11078984Y19071244D01*
X11060845Y19127649D01*
X11009839Y19151600D01*
X10959452Y19126057D01*
X10959452Y19126057D01*
G37*
X10959452Y19126057D02*
X10919330Y19068770D01*
X10907122Y19008755D01*
X10912881Y18992194D01*
X10961675Y18962617D01*
X11024634Y18980780D01*
X11055015Y19008321D01*
X11078984Y19071244D01*
X11060845Y19127649D01*
X11009839Y19151600D01*
X10959452Y19126057D01*
G36*
X11211928Y19438572D02*
X11168857Y19401403D01*
X11156623Y19350527D01*
X11188550Y19295758D01*
X11240945Y19295294D01*
X11276387Y19324764D01*
X11301332Y19387890D01*
X11297499Y19422440D01*
X11262593Y19449558D01*
X11211928Y19438572D01*
X11211928Y19438572D01*
G37*
X11211928Y19438572D02*
X11168857Y19401403D01*
X11156623Y19350527D01*
X11188550Y19295758D01*
X11240945Y19295294D01*
X11276387Y19324764D01*
X11301332Y19387890D01*
X11297499Y19422440D01*
X11262593Y19449558D01*
X11211928Y19438572D01*
G36*
X11417245Y19616579D02*
X11417660Y19568980D01*
X11418766Y19567117D01*
X11462846Y19534474D01*
X11517122Y19564082D01*
X11531289Y19579850D01*
X11552454Y19621635D01*
X11518138Y19647191D01*
X11517167Y19647566D01*
X11457670Y19648706D01*
X11417245Y19616579D01*
X11417245Y19616579D01*
G37*
X11417245Y19616579D02*
X11417660Y19568980D01*
X11418766Y19567117D01*
X11462846Y19534474D01*
X11517122Y19564082D01*
X11531289Y19579850D01*
X11552454Y19621635D01*
X11518138Y19647191D01*
X11517167Y19647566D01*
X11457670Y19648706D01*
X11417245Y19616579D01*
M02*
