G04 #@! TF.FileFunction,Legend,Top*
%FSLAX46Y46*%
G04 Gerber Fmt 4.6, Leading zero omitted, Abs format (unit mm)*
G04 Created by KiCad (PCBNEW 4.0.6+dfsg1-1) date Mon Feb 26 19:32:00 2018*
%MOMM*%
%LPD*%
G01*
G04 APERTURE LIST*
%ADD10C,0.100000*%
%ADD11C,0.175000*%
%ADD12C,0.200000*%
%ADD13C,0.125000*%
%ADD14C,0.120000*%
%ADD15C,0.150000*%
%ADD16C,0.010000*%
G04 APERTURE END LIST*
D10*
D11*
X11915915Y981914D02*
X12044486Y939057D01*
X12258772Y939057D01*
X12344486Y981914D01*
X12387343Y1024771D01*
X12430200Y1110486D01*
X12430200Y1196200D01*
X12387343Y1281914D01*
X12344486Y1324771D01*
X12258772Y1367629D01*
X12087343Y1410486D01*
X12001629Y1453343D01*
X11958772Y1496200D01*
X11915915Y1581914D01*
X11915915Y1667629D01*
X11958772Y1753343D01*
X12001629Y1796200D01*
X12087343Y1839057D01*
X12301629Y1839057D01*
X12430200Y1796200D01*
X12773058Y981914D02*
X12901629Y939057D01*
X13115915Y939057D01*
X13201629Y981914D01*
X13244486Y1024771D01*
X13287343Y1110486D01*
X13287343Y1196200D01*
X13244486Y1281914D01*
X13201629Y1324771D01*
X13115915Y1367629D01*
X12944486Y1410486D01*
X12858772Y1453343D01*
X12815915Y1496200D01*
X12773058Y1581914D01*
X12773058Y1667629D01*
X12815915Y1753343D01*
X12858772Y1796200D01*
X12944486Y1839057D01*
X13158772Y1839057D01*
X13287343Y1796200D01*
X13630201Y1753343D02*
X13673058Y1796200D01*
X13758772Y1839057D01*
X13973058Y1839057D01*
X14058772Y1796200D01*
X14101629Y1753343D01*
X14144486Y1667629D01*
X14144486Y1581914D01*
X14101629Y1453343D01*
X13587343Y939057D01*
X14144486Y939057D01*
X3533915Y981914D02*
X3662486Y939057D01*
X3876772Y939057D01*
X3962486Y981914D01*
X4005343Y1024771D01*
X4048200Y1110486D01*
X4048200Y1196200D01*
X4005343Y1281914D01*
X3962486Y1324771D01*
X3876772Y1367629D01*
X3705343Y1410486D01*
X3619629Y1453343D01*
X3576772Y1496200D01*
X3533915Y1581914D01*
X3533915Y1667629D01*
X3576772Y1753343D01*
X3619629Y1796200D01*
X3705343Y1839057D01*
X3919629Y1839057D01*
X4048200Y1796200D01*
X4391058Y981914D02*
X4519629Y939057D01*
X4733915Y939057D01*
X4819629Y981914D01*
X4862486Y1024771D01*
X4905343Y1110486D01*
X4905343Y1196200D01*
X4862486Y1281914D01*
X4819629Y1324771D01*
X4733915Y1367629D01*
X4562486Y1410486D01*
X4476772Y1453343D01*
X4433915Y1496200D01*
X4391058Y1581914D01*
X4391058Y1667629D01*
X4433915Y1753343D01*
X4476772Y1796200D01*
X4562486Y1839057D01*
X4776772Y1839057D01*
X4905343Y1796200D01*
X5762486Y939057D02*
X5248201Y939057D01*
X5505343Y939057D02*
X5505343Y1839057D01*
X5419629Y1710486D01*
X5333915Y1624771D01*
X5248201Y1581914D01*
X9677486Y2939200D02*
X9591772Y2982057D01*
X9463201Y2982057D01*
X9334629Y2939200D01*
X9248915Y2853486D01*
X9206058Y2767771D01*
X9163201Y2596343D01*
X9163201Y2467771D01*
X9206058Y2296343D01*
X9248915Y2210629D01*
X9334629Y2124914D01*
X9463201Y2082057D01*
X9548915Y2082057D01*
X9677486Y2124914D01*
X9720343Y2167771D01*
X9720343Y2467771D01*
X9548915Y2467771D01*
X10106058Y2082057D02*
X10106058Y2982057D01*
X10620343Y2082057D01*
X10620343Y2982057D01*
X11048915Y2082057D02*
X11048915Y2982057D01*
X11263200Y2982057D01*
X11391772Y2939200D01*
X11477486Y2853486D01*
X11520343Y2767771D01*
X11563200Y2596343D01*
X11563200Y2467771D01*
X11520343Y2296343D01*
X11477486Y2210629D01*
X11391772Y2124914D01*
X11263200Y2082057D01*
X11048915Y2082057D01*
X15293200Y2082057D02*
X14993200Y2510629D01*
X14778915Y2082057D02*
X14778915Y2982057D01*
X15121772Y2982057D01*
X15207486Y2939200D01*
X15250343Y2896343D01*
X15293200Y2810629D01*
X15293200Y2682057D01*
X15250343Y2596343D01*
X15207486Y2553486D01*
X15121772Y2510629D01*
X14778915Y2510629D01*
X15593200Y2982057D02*
X16193200Y2082057D01*
X16193200Y2982057D02*
X15593200Y2082057D01*
X12217486Y2982057D02*
X12731772Y2982057D01*
X12474629Y2082057D02*
X12474629Y2982057D01*
X12946057Y2982057D02*
X13546057Y2082057D01*
X13546057Y2982057D02*
X12946057Y2082057D01*
X7038200Y2082057D02*
X6738200Y2510629D01*
X6523915Y2082057D02*
X6523915Y2982057D01*
X6866772Y2982057D01*
X6952486Y2939200D01*
X6995343Y2896343D01*
X7038200Y2810629D01*
X7038200Y2682057D01*
X6995343Y2596343D01*
X6952486Y2553486D01*
X6866772Y2510629D01*
X6523915Y2510629D01*
X7338200Y2982057D02*
X7938200Y2082057D01*
X7938200Y2982057D02*
X7338200Y2082057D01*
X3835486Y2982057D02*
X4349772Y2982057D01*
X4092629Y2082057D02*
X4092629Y2982057D01*
X4564057Y2982057D02*
X5164057Y2082057D01*
X5164057Y2982057D02*
X4564057Y2082057D01*
X1422486Y2939200D02*
X1336772Y2982057D01*
X1208201Y2982057D01*
X1079629Y2939200D01*
X993915Y2853486D01*
X951058Y2767771D01*
X908201Y2596343D01*
X908201Y2467771D01*
X951058Y2296343D01*
X993915Y2210629D01*
X1079629Y2124914D01*
X1208201Y2082057D01*
X1293915Y2082057D01*
X1422486Y2124914D01*
X1465343Y2167771D01*
X1465343Y2467771D01*
X1293915Y2467771D01*
X1851058Y2082057D02*
X1851058Y2982057D01*
X2365343Y2082057D01*
X2365343Y2982057D01*
X2793915Y2082057D02*
X2793915Y2982057D01*
X3008200Y2982057D01*
X3136772Y2939200D01*
X3222486Y2853486D01*
X3265343Y2767771D01*
X3308200Y2596343D01*
X3308200Y2467771D01*
X3265343Y2296343D01*
X3222486Y2210629D01*
X3136772Y2124914D01*
X3008200Y2082057D01*
X2793915Y2082057D01*
X9444915Y9575057D02*
X9444915Y10475057D01*
X9659200Y10475057D01*
X9787772Y10432200D01*
X9873486Y10346486D01*
X9916343Y10260771D01*
X9959200Y10089343D01*
X9959200Y9960771D01*
X9916343Y9789343D01*
X9873486Y9703629D01*
X9787772Y9617914D01*
X9659200Y9575057D01*
X9444915Y9575057D01*
X10730629Y10475057D02*
X10559200Y10475057D01*
X10473486Y10432200D01*
X10430629Y10389343D01*
X10344915Y10260771D01*
X10302058Y10089343D01*
X10302058Y9746486D01*
X10344915Y9660771D01*
X10387772Y9617914D01*
X10473486Y9575057D01*
X10644915Y9575057D01*
X10730629Y9617914D01*
X10773486Y9660771D01*
X10816343Y9746486D01*
X10816343Y9960771D01*
X10773486Y10046486D01*
X10730629Y10089343D01*
X10644915Y10132200D01*
X10473486Y10132200D01*
X10387772Y10089343D01*
X10344915Y10046486D01*
X10302058Y9960771D01*
X9444915Y12369057D02*
X9444915Y13269057D01*
X9659200Y13269057D01*
X9787772Y13226200D01*
X9873486Y13140486D01*
X9916343Y13054771D01*
X9959200Y12883343D01*
X9959200Y12754771D01*
X9916343Y12583343D01*
X9873486Y12497629D01*
X9787772Y12411914D01*
X9659200Y12369057D01*
X9444915Y12369057D01*
X10387772Y12369057D02*
X10559200Y12369057D01*
X10644915Y12411914D01*
X10687772Y12454771D01*
X10773486Y12583343D01*
X10816343Y12754771D01*
X10816343Y13097629D01*
X10773486Y13183343D01*
X10730629Y13226200D01*
X10644915Y13269057D01*
X10473486Y13269057D01*
X10387772Y13226200D01*
X10344915Y13183343D01*
X10302058Y13097629D01*
X10302058Y12883343D01*
X10344915Y12797629D01*
X10387772Y12754771D01*
X10473486Y12711914D01*
X10644915Y12711914D01*
X10730629Y12754771D01*
X10773486Y12797629D01*
X10816343Y12883343D01*
X6369200Y7935057D02*
X6669200Y7035057D01*
X6969200Y7935057D01*
X7783486Y7120771D02*
X7740629Y7077914D01*
X7612058Y7035057D01*
X7526344Y7035057D01*
X7397772Y7077914D01*
X7312058Y7163629D01*
X7269201Y7249343D01*
X7226344Y7420771D01*
X7226344Y7549343D01*
X7269201Y7720771D01*
X7312058Y7806486D01*
X7397772Y7892200D01*
X7526344Y7935057D01*
X7612058Y7935057D01*
X7740629Y7892200D01*
X7783486Y7849343D01*
X8683486Y7120771D02*
X8640629Y7077914D01*
X8512058Y7035057D01*
X8426344Y7035057D01*
X8297772Y7077914D01*
X8212058Y7163629D01*
X8169201Y7249343D01*
X8126344Y7420771D01*
X8126344Y7549343D01*
X8169201Y7720771D01*
X8212058Y7806486D01*
X8297772Y7892200D01*
X8426344Y7935057D01*
X8512058Y7935057D01*
X8640629Y7892200D01*
X8683486Y7849343D01*
X4772058Y7077914D02*
X4900629Y7035057D01*
X5114915Y7035057D01*
X5200629Y7077914D01*
X5243486Y7120771D01*
X5286343Y7206486D01*
X5286343Y7292200D01*
X5243486Y7377914D01*
X5200629Y7420771D01*
X5114915Y7463629D01*
X4943486Y7506486D01*
X4857772Y7549343D01*
X4814915Y7592200D01*
X4772058Y7677914D01*
X4772058Y7763629D01*
X4814915Y7849343D01*
X4857772Y7892200D01*
X4943486Y7935057D01*
X5157772Y7935057D01*
X5286343Y7892200D01*
X1803486Y7892200D02*
X1717772Y7935057D01*
X1589201Y7935057D01*
X1460629Y7892200D01*
X1374915Y7806486D01*
X1332058Y7720771D01*
X1289201Y7549343D01*
X1289201Y7420771D01*
X1332058Y7249343D01*
X1374915Y7163629D01*
X1460629Y7077914D01*
X1589201Y7035057D01*
X1674915Y7035057D01*
X1803486Y7077914D01*
X1846343Y7120771D01*
X1846343Y7420771D01*
X1674915Y7420771D01*
X2232058Y7035057D02*
X2232058Y7935057D01*
X2746343Y7035057D01*
X2746343Y7935057D01*
X3174915Y7035057D02*
X3174915Y7935057D01*
X3389200Y7935057D01*
X3517772Y7892200D01*
X3603486Y7806486D01*
X3646343Y7720771D01*
X3689200Y7549343D01*
X3689200Y7420771D01*
X3646343Y7249343D01*
X3603486Y7163629D01*
X3517772Y7077914D01*
X3389200Y7035057D01*
X3174915Y7035057D01*
D12*
X8712200Y584200D02*
X8775700Y584200D01*
X8712200Y6426200D02*
X8712200Y584200D01*
X11125200Y6680200D02*
X11125200Y6553200D01*
X584200Y6426200D02*
X584200Y6553200D01*
X17094200Y6426200D02*
X584200Y6426200D01*
X17094200Y584200D02*
X17094200Y6426200D01*
X457200Y584200D02*
X17094200Y584200D01*
X457200Y6680200D02*
X457200Y584200D01*
X711200Y6680200D02*
X457200Y6680200D01*
X711200Y6680200D02*
X711200Y14427200D01*
X11125200Y7061200D02*
X11125200Y6680200D01*
X11125200Y14427200D02*
X11125200Y7061200D01*
X711200Y14427200D02*
X11125200Y14427200D01*
X84613795Y18389628D02*
X84613795Y18846771D01*
X84613795Y18618200D02*
X85413795Y18618200D01*
X85299510Y18694390D01*
X85223319Y18770581D01*
X85185224Y18846771D01*
X19065202Y1654200D02*
X19636631Y1654200D01*
X18950917Y1311343D02*
X19350917Y2511343D01*
X19750917Y1311343D01*
X20036631Y2511343D02*
X20836631Y1311343D01*
X20836631Y2511343D02*
X20036631Y1311343D01*
X21293773Y1768486D02*
X22208059Y1768486D01*
X22722344Y1654200D02*
X23293773Y1654200D01*
X22608059Y1311343D02*
X23008059Y2511343D01*
X23408059Y1311343D01*
X23808058Y1311343D02*
X23808058Y2111343D01*
X23808058Y1882771D02*
X23865201Y1997057D01*
X23922344Y2054200D01*
X24036630Y2111343D01*
X24150915Y2111343D01*
X25065201Y1311343D02*
X25065201Y2511343D01*
X25065201Y1368486D02*
X24950915Y1311343D01*
X24722344Y1311343D01*
X24608058Y1368486D01*
X24550915Y1425629D01*
X24493772Y1539914D01*
X24493772Y1882771D01*
X24550915Y1997057D01*
X24608058Y2054200D01*
X24722344Y2111343D01*
X24950915Y2111343D01*
X25065201Y2054200D01*
X26150915Y2111343D02*
X26150915Y1311343D01*
X25636629Y2111343D02*
X25636629Y1482771D01*
X25693772Y1368486D01*
X25808058Y1311343D01*
X25979486Y1311343D01*
X26093772Y1368486D01*
X26150915Y1425629D01*
X26722343Y1311343D02*
X26722343Y2111343D01*
X26722343Y2511343D02*
X26665200Y2454200D01*
X26722343Y2397057D01*
X26779486Y2454200D01*
X26722343Y2511343D01*
X26722343Y2397057D01*
X27293772Y2111343D02*
X27293772Y1311343D01*
X27293772Y1997057D02*
X27350915Y2054200D01*
X27465201Y2111343D01*
X27636629Y2111343D01*
X27750915Y2054200D01*
X27808058Y1939914D01*
X27808058Y1311343D01*
X28550915Y1311343D02*
X28436629Y1368486D01*
X28379486Y1425629D01*
X28322343Y1539914D01*
X28322343Y1882771D01*
X28379486Y1997057D01*
X28436629Y2054200D01*
X28550915Y2111343D01*
X28722343Y2111343D01*
X28836629Y2054200D01*
X28893772Y1997057D01*
X28950915Y1882771D01*
X28950915Y1539914D01*
X28893772Y1425629D01*
X28836629Y1368486D01*
X28722343Y1311343D01*
X28550915Y1311343D01*
X30208058Y2511343D02*
X30608058Y1311343D01*
X31008058Y2511343D01*
X32036629Y1311343D02*
X31350914Y1311343D01*
X31693772Y1311343D02*
X31693772Y2511343D01*
X31579486Y2339914D01*
X31465200Y2225629D01*
X31350914Y2168486D01*
X32550914Y1425629D02*
X32608057Y1368486D01*
X32550914Y1311343D01*
X32493771Y1368486D01*
X32550914Y1425629D01*
X32550914Y1311343D01*
X33750915Y1311343D02*
X33065200Y1311343D01*
X33408058Y1311343D02*
X33408058Y2511343D01*
X33293772Y2339914D01*
X33179486Y2225629D01*
X33065200Y2168486D01*
X35179486Y1311343D02*
X35179486Y2511343D01*
X35693772Y1311343D02*
X35693772Y1939914D01*
X35636629Y2054200D01*
X35522343Y2111343D01*
X35350915Y2111343D01*
X35236629Y2054200D01*
X35179486Y1997057D01*
X36093772Y2111343D02*
X36550915Y2111343D01*
X36265200Y2511343D02*
X36265200Y1482771D01*
X36322343Y1368486D01*
X36436629Y1311343D01*
X36550915Y1311343D01*
X36779486Y2111343D02*
X37236629Y2111343D01*
X36950914Y2511343D02*
X36950914Y1482771D01*
X37008057Y1368486D01*
X37122343Y1311343D01*
X37236629Y1311343D01*
X37636628Y2111343D02*
X37636628Y911343D01*
X37636628Y2054200D02*
X37750914Y2111343D01*
X37979485Y2111343D01*
X38093771Y2054200D01*
X38150914Y1997057D01*
X38208057Y1882771D01*
X38208057Y1539914D01*
X38150914Y1425629D01*
X38093771Y1368486D01*
X37979485Y1311343D01*
X37750914Y1311343D01*
X37636628Y1368486D01*
X38722342Y1425629D02*
X38779485Y1368486D01*
X38722342Y1311343D01*
X38665199Y1368486D01*
X38722342Y1425629D01*
X38722342Y1311343D01*
X38722342Y2054200D02*
X38779485Y1997057D01*
X38722342Y1939914D01*
X38665199Y1997057D01*
X38722342Y2054200D01*
X38722342Y1939914D01*
X40150914Y2568486D02*
X39122343Y1025629D01*
X41408057Y2568486D02*
X40379486Y1025629D01*
X42265200Y1368486D02*
X42150914Y1311343D01*
X41922343Y1311343D01*
X41808057Y1368486D01*
X41750914Y1482771D01*
X41750914Y1939914D01*
X41808057Y2054200D01*
X41922343Y2111343D01*
X42150914Y2111343D01*
X42265200Y2054200D01*
X42322343Y1939914D01*
X42322343Y1825629D01*
X41750914Y1711343D01*
X43008057Y1311343D02*
X42893771Y1368486D01*
X42836628Y1482771D01*
X42836628Y2511343D01*
X43922342Y1368486D02*
X43808056Y1311343D01*
X43579485Y1311343D01*
X43465199Y1368486D01*
X43408056Y1482771D01*
X43408056Y1939914D01*
X43465199Y2054200D01*
X43579485Y2111343D01*
X43808056Y2111343D01*
X43922342Y2054200D01*
X43979485Y1939914D01*
X43979485Y1825629D01*
X43408056Y1711343D01*
X44493770Y1311343D02*
X44493770Y2511343D01*
X44608056Y1768486D02*
X44950913Y1311343D01*
X44950913Y2111343D02*
X44493770Y1654200D01*
X45293771Y2111343D02*
X45750914Y2111343D01*
X45465199Y2511343D02*
X45465199Y1482771D01*
X45522342Y1368486D01*
X45636628Y1311343D01*
X45750914Y1311343D01*
X46150913Y1311343D02*
X46150913Y2111343D01*
X46150913Y1882771D02*
X46208056Y1997057D01*
X46265199Y2054200D01*
X46379485Y2111343D01*
X46493770Y2111343D01*
X47065199Y1311343D02*
X46950913Y1368486D01*
X46893770Y1425629D01*
X46836627Y1539914D01*
X46836627Y1882771D01*
X46893770Y1997057D01*
X46950913Y2054200D01*
X47065199Y2111343D01*
X47236627Y2111343D01*
X47350913Y2054200D01*
X47408056Y1997057D01*
X47465199Y1882771D01*
X47465199Y1539914D01*
X47408056Y1425629D01*
X47350913Y1368486D01*
X47236627Y1311343D01*
X47065199Y1311343D01*
X47979484Y2111343D02*
X47979484Y911343D01*
X47979484Y2054200D02*
X48093770Y2111343D01*
X48322341Y2111343D01*
X48436627Y2054200D01*
X48493770Y1997057D01*
X48550913Y1882771D01*
X48550913Y1539914D01*
X48493770Y1425629D01*
X48436627Y1368486D01*
X48322341Y1311343D01*
X48093770Y1311343D01*
X47979484Y1368486D01*
X49065198Y1311343D02*
X49065198Y2111343D01*
X49065198Y2511343D02*
X49008055Y2454200D01*
X49065198Y2397057D01*
X49122341Y2454200D01*
X49065198Y2511343D01*
X49065198Y2397057D01*
X49808056Y1311343D02*
X49693770Y1368486D01*
X49636627Y1425629D01*
X49579484Y1539914D01*
X49579484Y1882771D01*
X49636627Y1997057D01*
X49693770Y2054200D01*
X49808056Y2111343D01*
X49979484Y2111343D01*
X50093770Y2054200D01*
X50150913Y1997057D01*
X50208056Y1882771D01*
X50208056Y1539914D01*
X50150913Y1425629D01*
X50093770Y1368486D01*
X49979484Y1311343D01*
X49808056Y1311343D01*
X50722341Y2111343D02*
X50722341Y1311343D01*
X50722341Y1997057D02*
X50779484Y2054200D01*
X50893770Y2111343D01*
X51065198Y2111343D01*
X51179484Y2054200D01*
X51236627Y1939914D01*
X51236627Y1311343D01*
X52265198Y1368486D02*
X52150912Y1311343D01*
X51922341Y1311343D01*
X51808055Y1368486D01*
X51750912Y1482771D01*
X51750912Y1939914D01*
X51808055Y2054200D01*
X51922341Y2111343D01*
X52150912Y2111343D01*
X52265198Y2054200D01*
X52322341Y1939914D01*
X52322341Y1825629D01*
X51750912Y1711343D01*
X53293769Y1368486D02*
X53179483Y1311343D01*
X52950912Y1311343D01*
X52836626Y1368486D01*
X52779483Y1482771D01*
X52779483Y1939914D01*
X52836626Y2054200D01*
X52950912Y2111343D01*
X53179483Y2111343D01*
X53293769Y2054200D01*
X53350912Y1939914D01*
X53350912Y1825629D01*
X52779483Y1711343D01*
X53865197Y1311343D02*
X53865197Y2111343D01*
X53865197Y1882771D02*
X53922340Y1997057D01*
X53979483Y2054200D01*
X54093769Y2111343D01*
X54208054Y2111343D01*
X54608054Y1425629D02*
X54665197Y1368486D01*
X54608054Y1311343D01*
X54550911Y1368486D01*
X54608054Y1425629D01*
X54608054Y1311343D01*
X55693769Y1368486D02*
X55579483Y1311343D01*
X55350912Y1311343D01*
X55236626Y1368486D01*
X55179483Y1425629D01*
X55122340Y1539914D01*
X55122340Y1882771D01*
X55179483Y1997057D01*
X55236626Y2054200D01*
X55350912Y2111343D01*
X55579483Y2111343D01*
X55693769Y2054200D01*
X56379483Y1311343D02*
X56265197Y1368486D01*
X56208054Y1425629D01*
X56150911Y1539914D01*
X56150911Y1882771D01*
X56208054Y1997057D01*
X56265197Y2054200D01*
X56379483Y2111343D01*
X56550911Y2111343D01*
X56665197Y2054200D01*
X56722340Y1997057D01*
X56779483Y1882771D01*
X56779483Y1539914D01*
X56722340Y1425629D01*
X56665197Y1368486D01*
X56550911Y1311343D01*
X56379483Y1311343D01*
X57293768Y1425629D02*
X57350911Y1368486D01*
X57293768Y1311343D01*
X57236625Y1368486D01*
X57293768Y1425629D01*
X57293768Y1311343D01*
X57865197Y1311343D02*
X57865197Y2111343D01*
X57865197Y1882771D02*
X57922340Y1997057D01*
X57979483Y2054200D01*
X58093769Y2111343D01*
X58208054Y2111343D01*
X58550911Y1368486D02*
X58665197Y1311343D01*
X58893769Y1311343D01*
X59008054Y1368486D01*
X59065197Y1482771D01*
X59065197Y1539914D01*
X59008054Y1654200D01*
X58893769Y1711343D01*
X58722340Y1711343D01*
X58608054Y1768486D01*
X58550911Y1882771D01*
X58550911Y1939914D01*
X58608054Y2054200D01*
X58722340Y2111343D01*
X58893769Y2111343D01*
X59008054Y2054200D01*
D13*
X79908629Y31184867D02*
X80289581Y31184867D01*
X79832438Y30956295D02*
X80099105Y31756295D01*
X80365772Y30956295D01*
X80556248Y31756295D02*
X81089581Y30956295D01*
X81089581Y31756295D02*
X80556248Y30956295D01*
X81394343Y31261057D02*
X82003867Y31261057D01*
X82803867Y30956295D02*
X82346724Y30956295D01*
X82575295Y30956295D02*
X82575295Y31756295D01*
X82499105Y31642010D01*
X82422914Y31565819D01*
X82346724Y31527724D01*
X83108629Y31680105D02*
X83146724Y31718200D01*
X83222915Y31756295D01*
X83413391Y31756295D01*
X83489581Y31718200D01*
X83527677Y31680105D01*
X83565772Y31603914D01*
X83565772Y31527724D01*
X83527677Y31413438D01*
X83070534Y30956295D01*
X83565772Y30956295D01*
D12*
X562057Y29210201D02*
X1762057Y29610201D01*
X562057Y30010201D01*
X1647771Y31095915D02*
X1704914Y31038772D01*
X1762057Y30867343D01*
X1762057Y30753057D01*
X1704914Y30581629D01*
X1590629Y30467343D01*
X1476343Y30410200D01*
X1247771Y30353057D01*
X1076343Y30353057D01*
X847771Y30410200D01*
X733486Y30467343D01*
X619200Y30581629D01*
X562057Y30753057D01*
X562057Y30867343D01*
X619200Y31038772D01*
X676343Y31095915D01*
X1647771Y32295915D02*
X1704914Y32238772D01*
X1762057Y32067343D01*
X1762057Y31953057D01*
X1704914Y31781629D01*
X1590629Y31667343D01*
X1476343Y31610200D01*
X1247771Y31553057D01*
X1076343Y31553057D01*
X847771Y31610200D01*
X733486Y31667343D01*
X619200Y31781629D01*
X562057Y31953057D01*
X562057Y32067343D01*
X619200Y32238772D01*
X676343Y32295915D01*
X79302057Y3810201D02*
X80502057Y4210201D01*
X79302057Y4610201D01*
X80387771Y5695915D02*
X80444914Y5638772D01*
X80502057Y5467343D01*
X80502057Y5353057D01*
X80444914Y5181629D01*
X80330629Y5067343D01*
X80216343Y5010200D01*
X79987771Y4953057D01*
X79816343Y4953057D01*
X79587771Y5010200D01*
X79473486Y5067343D01*
X79359200Y5181629D01*
X79302057Y5353057D01*
X79302057Y5467343D01*
X79359200Y5638772D01*
X79416343Y5695915D01*
X80387771Y6895915D02*
X80444914Y6838772D01*
X80502057Y6667343D01*
X80502057Y6553057D01*
X80444914Y6381629D01*
X80330629Y6267343D01*
X80216343Y6210200D01*
X79987771Y6153057D01*
X79816343Y6153057D01*
X79587771Y6210200D01*
X79473486Y6267343D01*
X79359200Y6381629D01*
X79302057Y6553057D01*
X79302057Y6667343D01*
X79359200Y6838772D01*
X79416343Y6895915D01*
X58220057Y29210201D02*
X59420057Y29610201D01*
X58220057Y30010201D01*
X59305771Y31095915D02*
X59362914Y31038772D01*
X59420057Y30867343D01*
X59420057Y30753057D01*
X59362914Y30581629D01*
X59248629Y30467343D01*
X59134343Y30410200D01*
X58905771Y30353057D01*
X58734343Y30353057D01*
X58505771Y30410200D01*
X58391486Y30467343D01*
X58277200Y30581629D01*
X58220057Y30753057D01*
X58220057Y30867343D01*
X58277200Y31038772D01*
X58334343Y31095915D01*
X59305771Y32295915D02*
X59362914Y32238772D01*
X59420057Y32067343D01*
X59420057Y31953057D01*
X59362914Y31781629D01*
X59248629Y31667343D01*
X59134343Y31610200D01*
X58905771Y31553057D01*
X58734343Y31553057D01*
X58505771Y31610200D01*
X58391486Y31667343D01*
X58277200Y31781629D01*
X58220057Y31953057D01*
X58220057Y32067343D01*
X58277200Y32238772D01*
X58334343Y32295915D01*
X70469200Y29895915D02*
X70412057Y29781629D01*
X70412057Y29610200D01*
X70469200Y29438772D01*
X70583486Y29324486D01*
X70697771Y29267343D01*
X70926343Y29210200D01*
X71097771Y29210200D01*
X71326343Y29267343D01*
X71440629Y29324486D01*
X71554914Y29438772D01*
X71612057Y29610200D01*
X71612057Y29724486D01*
X71554914Y29895915D01*
X71497771Y29953058D01*
X71097771Y29953058D01*
X71097771Y29724486D01*
X71612057Y30467343D02*
X70412057Y30467343D01*
X71612057Y31153058D01*
X70412057Y31153058D01*
X71612057Y31724486D02*
X70412057Y31724486D01*
X70412057Y32010201D01*
X70469200Y32181629D01*
X70583486Y32295915D01*
X70697771Y32353058D01*
X70926343Y32410201D01*
X71097771Y32410201D01*
X71326343Y32353058D01*
X71440629Y32295915D01*
X71554914Y32181629D01*
X71612057Y32010201D01*
X71612057Y31724486D01*
X88087200Y30556200D02*
X79705200Y30556200D01*
X88087200Y22174200D02*
X88087200Y30556200D01*
X79705200Y22174200D02*
X88087200Y22174200D01*
X79705200Y30556200D02*
X79705200Y22174200D01*
X85953677Y30194200D02*
X85877486Y30232295D01*
X85763201Y30232295D01*
X85648915Y30194200D01*
X85572724Y30118010D01*
X85534629Y30041819D01*
X85496534Y29889438D01*
X85496534Y29775152D01*
X85534629Y29622771D01*
X85572724Y29546581D01*
X85648915Y29470390D01*
X85763201Y29432295D01*
X85839391Y29432295D01*
X85953677Y29470390D01*
X85991772Y29508486D01*
X85991772Y29775152D01*
X85839391Y29775152D01*
X86334629Y29432295D02*
X86334629Y30232295D01*
X86791772Y29432295D01*
X86791772Y30232295D01*
X87172724Y29432295D02*
X87172724Y30232295D01*
X87363200Y30232295D01*
X87477486Y30194200D01*
X87553677Y30118010D01*
X87591772Y30041819D01*
X87629867Y29889438D01*
X87629867Y29775152D01*
X87591772Y29622771D01*
X87553677Y29546581D01*
X87477486Y29470390D01*
X87363200Y29432295D01*
X87172724Y29432295D01*
X83794629Y29470390D02*
X83908915Y29432295D01*
X84099391Y29432295D01*
X84175581Y29470390D01*
X84213677Y29508486D01*
X84251772Y29584676D01*
X84251772Y29660867D01*
X84213677Y29737057D01*
X84175581Y29775152D01*
X84099391Y29813248D01*
X83947010Y29851343D01*
X83870819Y29889438D01*
X83832724Y29927533D01*
X83794629Y30003724D01*
X83794629Y30079914D01*
X83832724Y30156105D01*
X83870819Y30194200D01*
X83947010Y30232295D01*
X84137486Y30232295D01*
X84251772Y30194200D01*
X80416533Y30232295D02*
X80683200Y29432295D01*
X80949867Y30232295D01*
X81673676Y29508486D02*
X81635581Y29470390D01*
X81521295Y29432295D01*
X81445105Y29432295D01*
X81330819Y29470390D01*
X81254628Y29546581D01*
X81216533Y29622771D01*
X81178438Y29775152D01*
X81178438Y29889438D01*
X81216533Y30041819D01*
X81254628Y30118010D01*
X81330819Y30194200D01*
X81445105Y30232295D01*
X81521295Y30232295D01*
X81635581Y30194200D01*
X81673676Y30156105D01*
X82473676Y29508486D02*
X82435581Y29470390D01*
X82321295Y29432295D01*
X82245105Y29432295D01*
X82130819Y29470390D01*
X82054628Y29546581D01*
X82016533Y29622771D01*
X81978438Y29775152D01*
X81978438Y29889438D01*
X82016533Y30041819D01*
X82054628Y30118010D01*
X82130819Y30194200D01*
X82245105Y30232295D01*
X82321295Y30232295D01*
X82435581Y30194200D01*
X82473676Y30156105D01*
X57042057Y31223152D02*
X57042057Y31489819D01*
X57461105Y31604105D02*
X57461105Y31223152D01*
X56661105Y31223152D01*
X56661105Y31604105D01*
X57461105Y31946962D02*
X56661105Y31946962D01*
X57461105Y32404105D01*
X56661105Y32404105D01*
X57232533Y33356486D02*
X57232533Y33737438D01*
X57461105Y33280295D02*
X56661105Y33546962D01*
X57461105Y33813629D01*
X56661105Y34004105D02*
X57461105Y34537438D01*
X56661105Y34537438D02*
X57461105Y34004105D01*
X50495200Y36144200D02*
X50495200Y29540200D01*
X57861200Y36144200D02*
X50495200Y36144200D01*
X57861200Y29540200D02*
X57861200Y36144200D01*
X50495200Y29540200D02*
X57861200Y29540200D01*
X41706820Y34042295D02*
X41325867Y34042295D01*
X41287772Y33661343D01*
X41325867Y33699438D01*
X41402058Y33737533D01*
X41592534Y33737533D01*
X41668724Y33699438D01*
X41706820Y33661343D01*
X41744915Y33585152D01*
X41744915Y33394676D01*
X41706820Y33318486D01*
X41668724Y33280390D01*
X41592534Y33242295D01*
X41402058Y33242295D01*
X41325867Y33280390D01*
X41287772Y33318486D01*
X41973486Y34042295D02*
X42240153Y33242295D01*
X42506820Y34042295D01*
X38347772Y33280390D02*
X38462058Y33242295D01*
X38652534Y33242295D01*
X38728724Y33280390D01*
X38766820Y33318486D01*
X38804915Y33394676D01*
X38804915Y33470867D01*
X38766820Y33547057D01*
X38728724Y33585152D01*
X38652534Y33623248D01*
X38500153Y33661343D01*
X38423962Y33699438D01*
X38385867Y33737533D01*
X38347772Y33813724D01*
X38347772Y33889914D01*
X38385867Y33966105D01*
X38423962Y34004200D01*
X38500153Y34042295D01*
X38690629Y34042295D01*
X38804915Y34004200D01*
X39147772Y33242295D02*
X39147772Y34042295D01*
X39338248Y34042295D01*
X39452534Y34004200D01*
X39528725Y33928010D01*
X39566820Y33851819D01*
X39604915Y33699438D01*
X39604915Y33585152D01*
X39566820Y33432771D01*
X39528725Y33356581D01*
X39452534Y33280390D01*
X39338248Y33242295D01*
X39147772Y33242295D01*
X39909677Y33470867D02*
X40290629Y33470867D01*
X39833486Y33242295D02*
X40100153Y34042295D01*
X40366820Y33242295D01*
X35826819Y33280390D02*
X35941105Y33242295D01*
X36131581Y33242295D01*
X36207771Y33280390D01*
X36245867Y33318486D01*
X36283962Y33394676D01*
X36283962Y33470867D01*
X36245867Y33547057D01*
X36207771Y33585152D01*
X36131581Y33623248D01*
X35979200Y33661343D01*
X35903009Y33699438D01*
X35864914Y33737533D01*
X35826819Y33813724D01*
X35826819Y33889914D01*
X35864914Y33966105D01*
X35903009Y34004200D01*
X35979200Y34042295D01*
X36169676Y34042295D01*
X36283962Y34004200D01*
X37083962Y33318486D02*
X37045867Y33280390D01*
X36931581Y33242295D01*
X36855391Y33242295D01*
X36741105Y33280390D01*
X36664914Y33356581D01*
X36626819Y33432771D01*
X36588724Y33585152D01*
X36588724Y33699438D01*
X36626819Y33851819D01*
X36664914Y33928010D01*
X36741105Y34004200D01*
X36855391Y34042295D01*
X36931581Y34042295D01*
X37045867Y34004200D01*
X37083962Y33966105D01*
X37807772Y33242295D02*
X37426819Y33242295D01*
X37426819Y34042295D01*
X33629677Y34004200D02*
X33553486Y34042295D01*
X33439201Y34042295D01*
X33324915Y34004200D01*
X33248724Y33928010D01*
X33210629Y33851819D01*
X33172534Y33699438D01*
X33172534Y33585152D01*
X33210629Y33432771D01*
X33248724Y33356581D01*
X33324915Y33280390D01*
X33439201Y33242295D01*
X33515391Y33242295D01*
X33629677Y33280390D01*
X33667772Y33318486D01*
X33667772Y33585152D01*
X33515391Y33585152D01*
X34010629Y33242295D02*
X34010629Y34042295D01*
X34467772Y33242295D01*
X34467772Y34042295D01*
X34848724Y33242295D02*
X34848724Y34042295D01*
X35039200Y34042295D01*
X35153486Y34004200D01*
X35229677Y33928010D01*
X35267772Y33851819D01*
X35305867Y33699438D01*
X35305867Y33585152D01*
X35267772Y33432771D01*
X35229677Y33356581D01*
X35153486Y33280390D01*
X35039200Y33242295D01*
X34848724Y33242295D01*
X32461200Y34620200D02*
X32461200Y29794200D01*
X43383200Y34620200D02*
X32461200Y34620200D01*
X43383200Y29794200D02*
X43383200Y34620200D01*
X32461200Y29794200D02*
X43383200Y29794200D01*
D13*
X12519867Y26553534D02*
X12519867Y26220201D01*
X12853200Y26186867D01*
X12819867Y26220201D01*
X12786533Y26286867D01*
X12786533Y26453534D01*
X12819867Y26520201D01*
X12853200Y26553534D01*
X12919867Y26586867D01*
X13086533Y26586867D01*
X13153200Y26553534D01*
X13186533Y26520201D01*
X13219867Y26453534D01*
X13219867Y26286867D01*
X13186533Y26220201D01*
X13153200Y26186867D01*
X12519867Y26786868D02*
X13219867Y27020201D01*
X12519867Y27253534D01*
X13219867Y28020201D02*
X12519867Y28020201D01*
X12753200Y28353534D02*
X13219867Y28353534D01*
X12819867Y28353534D02*
X12786533Y28386867D01*
X12753200Y28453534D01*
X12753200Y28553534D01*
X12786533Y28620200D01*
X12853200Y28653534D01*
X13219867Y28653534D01*
X12753200Y28986867D02*
X13453200Y28986867D01*
X12786533Y28986867D02*
X12753200Y29053533D01*
X12753200Y29186867D01*
X12786533Y29253533D01*
X12819867Y29286867D01*
X12886533Y29320200D01*
X13086533Y29320200D01*
X13153200Y29286867D01*
X13186533Y29253533D01*
X13219867Y29186867D01*
X13219867Y29053533D01*
X13186533Y28986867D01*
X12753200Y29920200D02*
X13219867Y29920200D01*
X12753200Y29620200D02*
X13119867Y29620200D01*
X13186533Y29653533D01*
X13219867Y29720200D01*
X13219867Y29820200D01*
X13186533Y29886866D01*
X13153200Y29920200D01*
X12753200Y30153533D02*
X12753200Y30420199D01*
X12519867Y30253533D02*
X13119867Y30253533D01*
X13186533Y30286866D01*
X13219867Y30353533D01*
X13219867Y30420199D01*
D14*
X3251200Y3258200D02*
X8451200Y3258200D01*
X8451200Y3258200D02*
X8451200Y6038200D01*
X8451200Y6038200D02*
X3251200Y6038200D01*
X3251200Y6038200D02*
X3251200Y3258200D01*
X1981200Y3258200D02*
X591200Y3258200D01*
X591200Y3258200D02*
X591200Y4648200D01*
X53289200Y22682200D02*
X55829200Y22682200D01*
X55829200Y22682200D02*
X55829200Y25352200D01*
X53289200Y25352200D02*
X15059200Y25352200D01*
X58499200Y25352200D02*
X55829200Y25352200D01*
X55829200Y9982200D02*
X55829200Y7312200D01*
X55829200Y9982200D02*
X17729200Y9982200D01*
X17729200Y9982200D02*
X17729200Y7312200D01*
X53289200Y22682200D02*
X53289200Y25352200D01*
X53289200Y22682200D02*
X17729200Y22682200D01*
X17729200Y22682200D02*
X17729200Y25352200D01*
X15059200Y25352200D02*
X15059200Y7312200D01*
X15059200Y7312200D02*
X58499200Y7312200D01*
X58499200Y7312200D02*
X58499200Y25352200D01*
D15*
X49979200Y12610200D02*
X48979200Y12610200D01*
X48979200Y10910200D02*
X49979200Y10910200D01*
X88333200Y11340200D02*
X87333200Y11340200D01*
X87333200Y9640200D02*
X88333200Y9640200D01*
X22563200Y10910200D02*
X23563200Y10910200D01*
X23563200Y12610200D02*
X22563200Y12610200D01*
X67005200Y5918200D02*
X68021200Y6680200D01*
X67005200Y5918200D02*
X65989200Y6680200D01*
X65989200Y5918200D02*
X68021200Y5918200D01*
X65989200Y6680200D02*
X68021200Y6680200D01*
X65755520Y25752200D02*
X65755520Y25552400D01*
X65298480Y25702200D02*
X65298480Y25553200D01*
X61153040Y25752200D02*
X61153040Y25603200D01*
X65750440Y22152200D02*
X65750440Y22301200D01*
X65298480Y22152200D02*
X65298480Y22301200D01*
X61147960Y22152200D02*
X61147960Y22301200D01*
X65298480Y25901180D02*
X65298480Y25703060D01*
X65298480Y21953220D02*
X65298480Y22151340D01*
X61153040Y25948640D02*
X61153040Y25750520D01*
X65755520Y25948640D02*
X61153040Y25948640D01*
X65755520Y25948640D02*
X65755520Y25750520D01*
X65750440Y21953220D02*
X65750440Y22151340D01*
X65750440Y21953220D02*
X61147960Y21953220D01*
X61147960Y21953220D02*
X61147960Y22151340D01*
X76057200Y24192200D02*
X77257200Y24192200D01*
X77257200Y22442200D02*
X76057200Y22442200D01*
X70850200Y24192200D02*
X72050200Y24192200D01*
X72050200Y22442200D02*
X70850200Y22442200D01*
X87334200Y20261200D02*
X86064200Y20261200D01*
X87334200Y12911200D02*
X86064200Y12911200D01*
X59884200Y12911200D02*
X61154200Y12911200D01*
X59884200Y20261200D02*
X61154200Y20261200D01*
X87334200Y20261200D02*
X87334200Y12911200D01*
X59884200Y20261200D02*
X59884200Y12911200D01*
X86064200Y20261200D02*
X86064200Y21196200D01*
X89599200Y14478200D02*
X89599200Y17178200D01*
X88099200Y14478200D02*
X88099200Y17178200D01*
X88999200Y15978200D02*
X88749200Y15978200D01*
X88749200Y15978200D02*
X88899200Y15828200D01*
X88499200Y15728200D02*
X89199200Y15728200D01*
X88849200Y16078200D02*
X88849200Y16428200D01*
X88849200Y15728200D02*
X88499200Y16078200D01*
X88499200Y16078200D02*
X89199200Y16078200D01*
X89199200Y16078200D02*
X88849200Y15728200D01*
X87974200Y19288200D02*
X87974200Y20488200D01*
X89724200Y20488200D02*
X89724200Y19288200D01*
D14*
X53441600Y32976200D02*
X56101600Y32976200D01*
X56101600Y32976200D02*
X56101600Y35756200D01*
X56101600Y35756200D02*
X53441600Y35756200D01*
X53441600Y35756200D02*
X53441600Y32976200D01*
X52171600Y32976200D02*
X50781600Y32976200D01*
X50781600Y32976200D02*
X50781600Y34366200D01*
X53441600Y29775800D02*
X56101600Y29775800D01*
X56101600Y29775800D02*
X56101600Y32555800D01*
X56101600Y32555800D02*
X53441600Y32555800D01*
X53441600Y32555800D02*
X53441600Y29775800D01*
X52171600Y29775800D02*
X50781600Y29775800D01*
X50781600Y29775800D02*
X50781600Y31165800D01*
X39735200Y22292200D02*
X40935200Y22292200D01*
X40935200Y20532200D02*
X39735200Y20532200D01*
X36363200Y20532200D02*
X35163200Y20532200D01*
X35163200Y22292200D02*
X36363200Y22292200D01*
X59006200Y2364200D02*
X61186200Y2364200D01*
X65606200Y2364200D02*
X63426200Y2364200D01*
X59766200Y8964200D02*
X61186200Y8964200D01*
X64846200Y8964200D02*
X63426200Y8964200D01*
X59006200Y2364200D02*
X59006200Y8204200D01*
X59006200Y8204200D02*
X59766200Y8964200D01*
X64846200Y8964200D02*
X65606200Y8204200D01*
X65606200Y8204200D02*
X65606200Y2364200D01*
X79347600Y33145000D02*
X77167600Y33145000D01*
X72747600Y33145000D02*
X74927600Y33145000D01*
X78587600Y26545000D02*
X77167600Y26545000D01*
X73507600Y26545000D02*
X74927600Y26545000D01*
X79347600Y33145000D02*
X79347600Y27305000D01*
X79347600Y27305000D02*
X78587600Y26545000D01*
X73507600Y26545000D02*
X72747600Y27305000D01*
X72747600Y27305000D02*
X72747600Y33145000D01*
X1729200Y21156200D02*
X1729200Y18976200D01*
X1729200Y14556200D02*
X1729200Y16736200D01*
X8329200Y20396200D02*
X8329200Y18976200D01*
X8329200Y15316200D02*
X8329200Y16736200D01*
X1729200Y21156200D02*
X7569200Y21156200D01*
X7569200Y21156200D02*
X8329200Y20396200D01*
X8329200Y15316200D02*
X7569200Y14556200D01*
X7569200Y14556200D02*
X1729200Y14556200D01*
X82600800Y26423000D02*
X87800800Y26423000D01*
X87800800Y26423000D02*
X87800800Y29203000D01*
X87800800Y29203000D02*
X82600800Y29203000D01*
X82600800Y29203000D02*
X82600800Y26423000D01*
X81330800Y26423000D02*
X79940800Y26423000D01*
X79940800Y26423000D02*
X79940800Y27813000D01*
X82550000Y22460600D02*
X87750000Y22460600D01*
X87750000Y22460600D02*
X87750000Y25240600D01*
X87750000Y25240600D02*
X82550000Y25240600D01*
X82550000Y25240600D02*
X82550000Y22460600D01*
X81280000Y22460600D02*
X79890000Y22460600D01*
X79890000Y22460600D02*
X79890000Y23850600D01*
X6299200Y11372200D02*
X1099200Y11372200D01*
X1099200Y11372200D02*
X1099200Y8592200D01*
X1099200Y8592200D02*
X6299200Y8592200D01*
X6299200Y8592200D02*
X6299200Y11372200D01*
X7569200Y11372200D02*
X8959200Y11372200D01*
X8959200Y11372200D02*
X8959200Y9982200D01*
X53289200Y29406200D02*
X17609200Y29406200D01*
X17609200Y29406200D02*
X17609200Y26626200D01*
X17609200Y26626200D02*
X53289200Y26626200D01*
X53289200Y26626200D02*
X53289200Y29406200D01*
X54559200Y29406200D02*
X55949200Y29406200D01*
X55949200Y29406200D02*
X55949200Y28016200D01*
X20269200Y3258200D02*
X55949200Y3258200D01*
X55949200Y3258200D02*
X55949200Y6038200D01*
X55949200Y6038200D02*
X20269200Y6038200D01*
X20269200Y6038200D02*
X20269200Y3258200D01*
X18999200Y3258200D02*
X17609200Y3258200D01*
X17609200Y3258200D02*
X17609200Y4648200D01*
X35458400Y30080600D02*
X43198400Y30080600D01*
X43198400Y30080600D02*
X43198400Y32860600D01*
X43198400Y32860600D02*
X35458400Y32860600D01*
X35458400Y32860600D02*
X35458400Y30080600D01*
X34188400Y30080600D02*
X32798400Y30080600D01*
X32798400Y30080600D02*
X32798400Y31470600D01*
X6299200Y14166200D02*
X1099200Y14166200D01*
X1099200Y14166200D02*
X1099200Y11386200D01*
X1099200Y11386200D02*
X6299200Y11386200D01*
X6299200Y11386200D02*
X6299200Y14166200D01*
X7569200Y14166200D02*
X8959200Y14166200D01*
X8959200Y14166200D02*
X8959200Y12776200D01*
D15*
X64759200Y35418200D02*
X64759200Y35918200D01*
X64259200Y31418200D02*
G75*
G03X64259200Y31418200I-2000000J0D01*
G01*
X69259200Y31418200D02*
G75*
G03X69259200Y31418200I-2000000J0D01*
G01*
X69759200Y33918200D02*
X59759200Y33918200D01*
X69759200Y29018200D02*
X59759200Y29018200D01*
X69759200Y35418200D02*
X59759200Y35418200D01*
X69759200Y35918200D02*
X59759200Y35918200D01*
X59759200Y35918200D02*
X59759200Y26118200D01*
X59759200Y26118200D02*
X69759200Y26118200D01*
X69759200Y26118200D02*
X69759200Y35918200D01*
X73569200Y1310200D02*
X73569200Y810200D01*
X78069200Y5310200D02*
G75*
G03X78069200Y5310200I-2000000J0D01*
G01*
X73069200Y5310200D02*
G75*
G03X73069200Y5310200I-2000000J0D01*
G01*
X68569200Y2810200D02*
X78569200Y2810200D01*
X68569200Y7710200D02*
X78569200Y7710200D01*
X68569200Y1310200D02*
X78569200Y1310200D01*
X68569200Y810200D02*
X78569200Y810200D01*
X78569200Y810200D02*
X78569200Y10610200D01*
X78569200Y10610200D02*
X68569200Y10610200D01*
X68569200Y10610200D02*
X68569200Y810200D01*
X7101200Y35672200D02*
X7101200Y36172200D01*
X6601200Y31672200D02*
G75*
G03X6601200Y31672200I-2000000J0D01*
G01*
X11601200Y31672200D02*
G75*
G03X11601200Y31672200I-2000000J0D01*
G01*
X12101200Y34172200D02*
X2101200Y34172200D01*
X12101200Y29272200D02*
X2101200Y29272200D01*
X12101200Y35672200D02*
X2101200Y35672200D01*
X12101200Y36172200D02*
X2101200Y36172200D01*
X2101200Y36172200D02*
X2101200Y26372200D01*
X2101200Y26372200D02*
X12101200Y26372200D01*
X12101200Y26372200D02*
X12101200Y36172200D01*
D14*
X11633200Y3258200D02*
X16833200Y3258200D01*
X16833200Y3258200D02*
X16833200Y6038200D01*
X16833200Y6038200D02*
X11633200Y6038200D01*
X11633200Y6038200D02*
X11633200Y3258200D01*
X10363200Y3258200D02*
X8973200Y3258200D01*
X8973200Y3258200D02*
X8973200Y4648200D01*
X8325200Y21548200D02*
X8325200Y25848200D01*
X8325200Y25848200D02*
X2625200Y25848200D01*
X8325200Y21548200D02*
X2625200Y21548200D01*
X11441200Y17072200D02*
X12841200Y17072200D01*
X12841200Y17072200D02*
X12841200Y19872200D01*
X11441200Y17072200D02*
X11441200Y19872200D01*
X11261200Y22336200D02*
X11261200Y23536200D01*
X13021200Y23536200D02*
X13021200Y22336200D01*
D16*
G36*
X38030552Y20185392D02*
X38108222Y20184982D01*
X38175638Y20184320D01*
X38227991Y20183407D01*
X38260471Y20182243D01*
X38268879Y20181225D01*
X38275275Y20167698D01*
X38291518Y20131168D01*
X38316328Y20074572D01*
X38348427Y20000844D01*
X38386538Y19912921D01*
X38429382Y19813736D01*
X38473422Y19711477D01*
X38519590Y19604271D01*
X38562239Y19505506D01*
X38600092Y19418121D01*
X38631871Y19345057D01*
X38656296Y19289251D01*
X38672090Y19253644D01*
X38677937Y19241203D01*
X38692651Y19236084D01*
X38728818Y19226230D01*
X38780393Y19213236D01*
X38820845Y19203499D01*
X38900721Y19183280D01*
X38991114Y19158370D01*
X39075859Y19133272D01*
X39097871Y19126345D01*
X39236375Y19081952D01*
X39643780Y19387274D01*
X39751013Y19467494D01*
X39838084Y19532177D01*
X39907314Y19582844D01*
X39961021Y19621019D01*
X40001526Y19648226D01*
X40031148Y19665989D01*
X40052207Y19675831D01*
X40067022Y19679275D01*
X40077912Y19677845D01*
X40082851Y19675650D01*
X40104180Y19663528D01*
X40145623Y19639375D01*
X40203056Y19605615D01*
X40272357Y19564674D01*
X40349403Y19518979D01*
X40371731Y19505705D01*
X40628946Y19352706D01*
X40622617Y19299425D01*
X40619670Y19272706D01*
X40614254Y19221691D01*
X40606763Y19150162D01*
X40597588Y19061900D01*
X40587126Y18960685D01*
X40575768Y18850298D01*
X40568632Y18780702D01*
X40520975Y18315260D01*
X40687735Y18145702D01*
X40746582Y18085642D01*
X40801457Y18029219D01*
X40847994Y17980954D01*
X40881826Y17945370D01*
X40894709Y17931433D01*
X40934922Y17886721D01*
X41433804Y17942903D01*
X41549103Y17955757D01*
X41655180Y17967334D01*
X41748860Y17977304D01*
X41826966Y17985341D01*
X41886325Y17991118D01*
X41923760Y17994308D01*
X41936113Y17994670D01*
X41943660Y17981632D01*
X41963009Y17947393D01*
X41992225Y17895405D01*
X42029368Y17829117D01*
X42072504Y17751981D01*
X42103249Y17696922D01*
X42266957Y17403589D01*
X42016397Y17047811D01*
X41951719Y16955905D01*
X41890199Y16868359D01*
X41834303Y16788691D01*
X41786495Y16720417D01*
X41749239Y16667055D01*
X41725000Y16632121D01*
X41720419Y16625443D01*
X41675002Y16558853D01*
X41713139Y16427887D01*
X41733088Y16355928D01*
X41755496Y16269696D01*
X41776952Y16182522D01*
X41787599Y16136859D01*
X41823922Y15976796D01*
X42748200Y15552066D01*
X42748200Y14868780D01*
X42286061Y14656102D01*
X41823922Y14443425D01*
X41787599Y14283618D01*
X41768233Y14202021D01*
X41745938Y14113622D01*
X41724134Y14031781D01*
X41713139Y13992846D01*
X41675002Y13861880D01*
X41720419Y13795290D01*
X41740002Y13766954D01*
X41773385Y13719071D01*
X41818105Y13655158D01*
X41871696Y13578732D01*
X41931694Y13493310D01*
X41995635Y13402409D01*
X42016397Y13372922D01*
X42266957Y13017144D01*
X42103249Y12723811D01*
X42057227Y12641417D01*
X42015922Y12567600D01*
X41981272Y12505810D01*
X41955213Y12459499D01*
X41939681Y12432115D01*
X41936139Y12426088D01*
X41921837Y12426592D01*
X41882672Y12429976D01*
X41821817Y12435915D01*
X41742449Y12444082D01*
X41647741Y12454151D01*
X41540869Y12465796D01*
X41433829Y12477700D01*
X40934922Y12533700D01*
X40894709Y12489145D01*
X40871199Y12463999D01*
X40832216Y12423299D01*
X40782125Y12371563D01*
X40725294Y12313309D01*
X40687735Y12275031D01*
X40520975Y12105474D01*
X40568632Y11640031D01*
X40580340Y11525934D01*
X40591391Y11418722D01*
X40601392Y11322177D01*
X40609948Y11240078D01*
X40616666Y11176209D01*
X40621153Y11134348D01*
X40622617Y11121308D01*
X40628946Y11068027D01*
X40371731Y10915029D01*
X40293260Y10868439D01*
X40221382Y10825927D01*
X40160221Y10789919D01*
X40113900Y10762840D01*
X40086543Y10747116D01*
X40082851Y10745084D01*
X40073094Y10741700D01*
X40060634Y10742389D01*
X40043150Y10748674D01*
X40018323Y10762079D01*
X39983834Y10784127D01*
X39937363Y10816341D01*
X39876591Y10860245D01*
X39799197Y10917362D01*
X39702863Y10989216D01*
X39643780Y11033459D01*
X39236375Y11338781D01*
X39097871Y11294389D01*
X39018001Y11270117D01*
X38927609Y11244676D01*
X38842859Y11222568D01*
X38820845Y11217234D01*
X38762298Y11203023D01*
X38715080Y11190876D01*
X38685239Y11182387D01*
X38677968Y11179530D01*
X38671587Y11165878D01*
X38655363Y11129227D01*
X38630574Y11072519D01*
X38598499Y10998696D01*
X38560415Y10910697D01*
X38517600Y10811463D01*
X38473744Y10709547D01*
X38427614Y10602381D01*
X38384986Y10503670D01*
X38347139Y10416354D01*
X38315355Y10343372D01*
X38290911Y10287662D01*
X38275088Y10252163D01*
X38269209Y10239838D01*
X38253853Y10237892D01*
X38215136Y10236181D01*
X38157920Y10234731D01*
X38087065Y10233564D01*
X38007432Y10232707D01*
X37923881Y10232183D01*
X37841274Y10232017D01*
X37764471Y10232235D01*
X37698333Y10232860D01*
X37647721Y10233917D01*
X37617496Y10235431D01*
X37611259Y10236505D01*
X37603123Y10250742D01*
X37585258Y10287980D01*
X37558994Y10345255D01*
X37525662Y10419600D01*
X37486591Y10508053D01*
X37443110Y10607647D01*
X37399213Y10709227D01*
X37353044Y10816436D01*
X37310393Y10915205D01*
X37272538Y11002593D01*
X37240758Y11075662D01*
X37216331Y11131472D01*
X37200534Y11167083D01*
X37194685Y11179530D01*
X37179972Y11184649D01*
X37143804Y11194503D01*
X37092230Y11207497D01*
X37051777Y11217234D01*
X36971901Y11237453D01*
X36881508Y11262363D01*
X36796763Y11287461D01*
X36774752Y11294389D01*
X36636248Y11338781D01*
X36228842Y11033459D01*
X36121610Y10953239D01*
X36034538Y10888557D01*
X35965309Y10837890D01*
X35911601Y10799714D01*
X35871096Y10772507D01*
X35841474Y10754744D01*
X35820416Y10744902D01*
X35805601Y10741458D01*
X35794711Y10742889D01*
X35789771Y10745084D01*
X35768443Y10757205D01*
X35727000Y10781358D01*
X35669566Y10815118D01*
X35600265Y10856059D01*
X35523220Y10901754D01*
X35500892Y10915029D01*
X35243677Y11068027D01*
X35250005Y11121308D01*
X35252952Y11148027D01*
X35258368Y11199042D01*
X35265860Y11270571D01*
X35275034Y11358834D01*
X35285497Y11460048D01*
X35296855Y11570435D01*
X35303991Y11640031D01*
X35351648Y12105474D01*
X35184887Y12275031D01*
X35126041Y12335092D01*
X35071165Y12391515D01*
X35024628Y12439779D01*
X34990797Y12475363D01*
X34977913Y12489301D01*
X34937700Y12534012D01*
X34438819Y12477830D01*
X34323519Y12464976D01*
X34217442Y12453400D01*
X34123763Y12443429D01*
X34045656Y12435392D01*
X33986298Y12429615D01*
X33948863Y12426425D01*
X33936509Y12426063D01*
X33928963Y12439101D01*
X33909613Y12473340D01*
X33880398Y12525328D01*
X33843254Y12591616D01*
X33800119Y12668752D01*
X33769374Y12723811D01*
X33605666Y13017144D01*
X33856226Y13372922D01*
X33920904Y13464828D01*
X33982423Y13552374D01*
X34038319Y13632042D01*
X34086127Y13700316D01*
X34123383Y13753678D01*
X34147622Y13788612D01*
X34152204Y13795290D01*
X34197621Y13861880D01*
X34159484Y13992846D01*
X34139535Y14064805D01*
X34117127Y14151037D01*
X34095671Y14238212D01*
X34085023Y14283874D01*
X34048700Y14443937D01*
X33124422Y14868667D01*
X33124422Y15210367D01*
X35114089Y15210367D01*
X35118653Y15008920D01*
X35133277Y14825487D01*
X35159355Y14651221D01*
X35198285Y14477277D01*
X35251460Y14294808D01*
X35265201Y14252667D01*
X35367958Y13986514D01*
X35494990Y13733137D01*
X35645003Y13494244D01*
X35816704Y13271545D01*
X36008802Y13066746D01*
X36220002Y12881557D01*
X36405256Y12746387D01*
X36503427Y12685496D01*
X36619477Y12621249D01*
X36744979Y12557759D01*
X36871506Y12499138D01*
X36990629Y12449499D01*
X37078398Y12417886D01*
X37211783Y12378698D01*
X37356165Y12343545D01*
X37499112Y12315195D01*
X37620281Y12297310D01*
X37701363Y12290613D01*
X37801662Y12286422D01*
X37912286Y12284739D01*
X38024343Y12285568D01*
X38128938Y12288912D01*
X38217180Y12294775D01*
X38239597Y12297079D01*
X38496243Y12338271D01*
X38742558Y12402577D01*
X38984422Y12491734D01*
X39142811Y12564220D01*
X39313451Y12653845D01*
X39466485Y12747333D01*
X39612376Y12851520D01*
X39738116Y12953203D01*
X39941195Y13143612D01*
X40124317Y13353087D01*
X40286528Y13579828D01*
X40426874Y13822033D01*
X40544400Y14077903D01*
X40638151Y14345637D01*
X40707172Y14623434D01*
X40743753Y14850163D01*
X40748869Y14906508D01*
X40753218Y14982911D01*
X40756464Y15071212D01*
X40758272Y15163248D01*
X40758534Y15210367D01*
X40753969Y15411813D01*
X40739346Y15595246D01*
X40713267Y15769512D01*
X40674338Y15943456D01*
X40621162Y16125925D01*
X40607421Y16168066D01*
X40504664Y16434219D01*
X40377633Y16687596D01*
X40227620Y16926489D01*
X40055918Y17149189D01*
X39863821Y17353987D01*
X39652621Y17539176D01*
X39467367Y17674346D01*
X39369692Y17734942D01*
X39254192Y17798925D01*
X39129253Y17862200D01*
X39003260Y17920674D01*
X38884601Y17970251D01*
X38795171Y18002533D01*
X38525891Y18075526D01*
X38252508Y18120945D01*
X37976932Y18138789D01*
X37701076Y18129060D01*
X37426849Y18091756D01*
X37156162Y18026879D01*
X37077451Y18002533D01*
X36971735Y17963827D01*
X36851505Y17912719D01*
X36725148Y17853304D01*
X36601050Y17789675D01*
X36487596Y17725927D01*
X36405256Y17674346D01*
X36179451Y17506392D01*
X35971696Y17317438D01*
X35783284Y17109190D01*
X35615506Y16883359D01*
X35469657Y16641651D01*
X35347030Y16385776D01*
X35265201Y16168066D01*
X35208706Y15982536D01*
X35166764Y15807476D01*
X35137980Y15634040D01*
X35120957Y15453381D01*
X35114301Y15256654D01*
X35114089Y15210367D01*
X33124422Y15210367D01*
X33124422Y15552066D01*
X34048700Y15976796D01*
X34085023Y16136859D01*
X34104370Y16218485D01*
X34126642Y16306888D01*
X34148431Y16388735D01*
X34159484Y16427887D01*
X34197621Y16558853D01*
X34152204Y16625443D01*
X34132621Y16653779D01*
X34099237Y16701662D01*
X34054518Y16765575D01*
X34000927Y16842001D01*
X33940928Y16927423D01*
X33876988Y17018324D01*
X33856226Y17047811D01*
X33605666Y17403589D01*
X33769374Y17696922D01*
X33815397Y17779318D01*
X33856705Y17853139D01*
X33891360Y17914933D01*
X33917425Y17961250D01*
X33932963Y17988640D01*
X33936509Y17994670D01*
X33950816Y17994168D01*
X33989985Y17990775D01*
X34050843Y17984819D01*
X34130213Y17976627D01*
X34224920Y17966526D01*
X34331790Y17954844D01*
X34438819Y17942903D01*
X34937700Y17886721D01*
X34977913Y17931433D01*
X35001425Y17956633D01*
X35040412Y17997381D01*
X35090507Y18049155D01*
X35147342Y18107434D01*
X35184887Y18145702D01*
X35351648Y18315260D01*
X35303991Y18780702D01*
X35292282Y18894799D01*
X35281231Y19002011D01*
X35271231Y19098557D01*
X35262675Y19180655D01*
X35255957Y19244525D01*
X35251470Y19286385D01*
X35250005Y19299425D01*
X35243677Y19352706D01*
X35500892Y19505705D01*
X35579363Y19552294D01*
X35651240Y19594806D01*
X35712401Y19630814D01*
X35758722Y19657893D01*
X35786080Y19673617D01*
X35789771Y19675650D01*
X35799528Y19679033D01*
X35811989Y19678344D01*
X35829473Y19672059D01*
X35854299Y19658654D01*
X35888788Y19636607D01*
X35935259Y19604392D01*
X35996032Y19560488D01*
X36073426Y19503371D01*
X36169760Y19431517D01*
X36228842Y19387274D01*
X36636248Y19081952D01*
X36774752Y19126345D01*
X36854621Y19150616D01*
X36945014Y19176057D01*
X37029763Y19198165D01*
X37051777Y19203499D01*
X37110329Y19217710D01*
X37157555Y19229858D01*
X37187407Y19238347D01*
X37194685Y19241203D01*
X37201076Y19254854D01*
X37217316Y19291502D01*
X37242125Y19348207D01*
X37274226Y19422030D01*
X37312340Y19510031D01*
X37355188Y19609270D01*
X37399200Y19711477D01*
X37445364Y19818658D01*
X37488012Y19917374D01*
X37525866Y20004690D01*
X37557648Y20077671D01*
X37582080Y20133380D01*
X37597884Y20168884D01*
X37603744Y20181225D01*
X37618528Y20182574D01*
X37656724Y20183673D01*
X37713522Y20184519D01*
X37784113Y20185115D01*
X37863688Y20185458D01*
X37947438Y20185551D01*
X38030552Y20185392D01*
X38030552Y20185392D01*
G37*
X38030552Y20185392D02*
X38108222Y20184982D01*
X38175638Y20184320D01*
X38227991Y20183407D01*
X38260471Y20182243D01*
X38268879Y20181225D01*
X38275275Y20167698D01*
X38291518Y20131168D01*
X38316328Y20074572D01*
X38348427Y20000844D01*
X38386538Y19912921D01*
X38429382Y19813736D01*
X38473422Y19711477D01*
X38519590Y19604271D01*
X38562239Y19505506D01*
X38600092Y19418121D01*
X38631871Y19345057D01*
X38656296Y19289251D01*
X38672090Y19253644D01*
X38677937Y19241203D01*
X38692651Y19236084D01*
X38728818Y19226230D01*
X38780393Y19213236D01*
X38820845Y19203499D01*
X38900721Y19183280D01*
X38991114Y19158370D01*
X39075859Y19133272D01*
X39097871Y19126345D01*
X39236375Y19081952D01*
X39643780Y19387274D01*
X39751013Y19467494D01*
X39838084Y19532177D01*
X39907314Y19582844D01*
X39961021Y19621019D01*
X40001526Y19648226D01*
X40031148Y19665989D01*
X40052207Y19675831D01*
X40067022Y19679275D01*
X40077912Y19677845D01*
X40082851Y19675650D01*
X40104180Y19663528D01*
X40145623Y19639375D01*
X40203056Y19605615D01*
X40272357Y19564674D01*
X40349403Y19518979D01*
X40371731Y19505705D01*
X40628946Y19352706D01*
X40622617Y19299425D01*
X40619670Y19272706D01*
X40614254Y19221691D01*
X40606763Y19150162D01*
X40597588Y19061900D01*
X40587126Y18960685D01*
X40575768Y18850298D01*
X40568632Y18780702D01*
X40520975Y18315260D01*
X40687735Y18145702D01*
X40746582Y18085642D01*
X40801457Y18029219D01*
X40847994Y17980954D01*
X40881826Y17945370D01*
X40894709Y17931433D01*
X40934922Y17886721D01*
X41433804Y17942903D01*
X41549103Y17955757D01*
X41655180Y17967334D01*
X41748860Y17977304D01*
X41826966Y17985341D01*
X41886325Y17991118D01*
X41923760Y17994308D01*
X41936113Y17994670D01*
X41943660Y17981632D01*
X41963009Y17947393D01*
X41992225Y17895405D01*
X42029368Y17829117D01*
X42072504Y17751981D01*
X42103249Y17696922D01*
X42266957Y17403589D01*
X42016397Y17047811D01*
X41951719Y16955905D01*
X41890199Y16868359D01*
X41834303Y16788691D01*
X41786495Y16720417D01*
X41749239Y16667055D01*
X41725000Y16632121D01*
X41720419Y16625443D01*
X41675002Y16558853D01*
X41713139Y16427887D01*
X41733088Y16355928D01*
X41755496Y16269696D01*
X41776952Y16182522D01*
X41787599Y16136859D01*
X41823922Y15976796D01*
X42748200Y15552066D01*
X42748200Y14868780D01*
X42286061Y14656102D01*
X41823922Y14443425D01*
X41787599Y14283618D01*
X41768233Y14202021D01*
X41745938Y14113622D01*
X41724134Y14031781D01*
X41713139Y13992846D01*
X41675002Y13861880D01*
X41720419Y13795290D01*
X41740002Y13766954D01*
X41773385Y13719071D01*
X41818105Y13655158D01*
X41871696Y13578732D01*
X41931694Y13493310D01*
X41995635Y13402409D01*
X42016397Y13372922D01*
X42266957Y13017144D01*
X42103249Y12723811D01*
X42057227Y12641417D01*
X42015922Y12567600D01*
X41981272Y12505810D01*
X41955213Y12459499D01*
X41939681Y12432115D01*
X41936139Y12426088D01*
X41921837Y12426592D01*
X41882672Y12429976D01*
X41821817Y12435915D01*
X41742449Y12444082D01*
X41647741Y12454151D01*
X41540869Y12465796D01*
X41433829Y12477700D01*
X40934922Y12533700D01*
X40894709Y12489145D01*
X40871199Y12463999D01*
X40832216Y12423299D01*
X40782125Y12371563D01*
X40725294Y12313309D01*
X40687735Y12275031D01*
X40520975Y12105474D01*
X40568632Y11640031D01*
X40580340Y11525934D01*
X40591391Y11418722D01*
X40601392Y11322177D01*
X40609948Y11240078D01*
X40616666Y11176209D01*
X40621153Y11134348D01*
X40622617Y11121308D01*
X40628946Y11068027D01*
X40371731Y10915029D01*
X40293260Y10868439D01*
X40221382Y10825927D01*
X40160221Y10789919D01*
X40113900Y10762840D01*
X40086543Y10747116D01*
X40082851Y10745084D01*
X40073094Y10741700D01*
X40060634Y10742389D01*
X40043150Y10748674D01*
X40018323Y10762079D01*
X39983834Y10784127D01*
X39937363Y10816341D01*
X39876591Y10860245D01*
X39799197Y10917362D01*
X39702863Y10989216D01*
X39643780Y11033459D01*
X39236375Y11338781D01*
X39097871Y11294389D01*
X39018001Y11270117D01*
X38927609Y11244676D01*
X38842859Y11222568D01*
X38820845Y11217234D01*
X38762298Y11203023D01*
X38715080Y11190876D01*
X38685239Y11182387D01*
X38677968Y11179530D01*
X38671587Y11165878D01*
X38655363Y11129227D01*
X38630574Y11072519D01*
X38598499Y10998696D01*
X38560415Y10910697D01*
X38517600Y10811463D01*
X38473744Y10709547D01*
X38427614Y10602381D01*
X38384986Y10503670D01*
X38347139Y10416354D01*
X38315355Y10343372D01*
X38290911Y10287662D01*
X38275088Y10252163D01*
X38269209Y10239838D01*
X38253853Y10237892D01*
X38215136Y10236181D01*
X38157920Y10234731D01*
X38087065Y10233564D01*
X38007432Y10232707D01*
X37923881Y10232183D01*
X37841274Y10232017D01*
X37764471Y10232235D01*
X37698333Y10232860D01*
X37647721Y10233917D01*
X37617496Y10235431D01*
X37611259Y10236505D01*
X37603123Y10250742D01*
X37585258Y10287980D01*
X37558994Y10345255D01*
X37525662Y10419600D01*
X37486591Y10508053D01*
X37443110Y10607647D01*
X37399213Y10709227D01*
X37353044Y10816436D01*
X37310393Y10915205D01*
X37272538Y11002593D01*
X37240758Y11075662D01*
X37216331Y11131472D01*
X37200534Y11167083D01*
X37194685Y11179530D01*
X37179972Y11184649D01*
X37143804Y11194503D01*
X37092230Y11207497D01*
X37051777Y11217234D01*
X36971901Y11237453D01*
X36881508Y11262363D01*
X36796763Y11287461D01*
X36774752Y11294389D01*
X36636248Y11338781D01*
X36228842Y11033459D01*
X36121610Y10953239D01*
X36034538Y10888557D01*
X35965309Y10837890D01*
X35911601Y10799714D01*
X35871096Y10772507D01*
X35841474Y10754744D01*
X35820416Y10744902D01*
X35805601Y10741458D01*
X35794711Y10742889D01*
X35789771Y10745084D01*
X35768443Y10757205D01*
X35727000Y10781358D01*
X35669566Y10815118D01*
X35600265Y10856059D01*
X35523220Y10901754D01*
X35500892Y10915029D01*
X35243677Y11068027D01*
X35250005Y11121308D01*
X35252952Y11148027D01*
X35258368Y11199042D01*
X35265860Y11270571D01*
X35275034Y11358834D01*
X35285497Y11460048D01*
X35296855Y11570435D01*
X35303991Y11640031D01*
X35351648Y12105474D01*
X35184887Y12275031D01*
X35126041Y12335092D01*
X35071165Y12391515D01*
X35024628Y12439779D01*
X34990797Y12475363D01*
X34977913Y12489301D01*
X34937700Y12534012D01*
X34438819Y12477830D01*
X34323519Y12464976D01*
X34217442Y12453400D01*
X34123763Y12443429D01*
X34045656Y12435392D01*
X33986298Y12429615D01*
X33948863Y12426425D01*
X33936509Y12426063D01*
X33928963Y12439101D01*
X33909613Y12473340D01*
X33880398Y12525328D01*
X33843254Y12591616D01*
X33800119Y12668752D01*
X33769374Y12723811D01*
X33605666Y13017144D01*
X33856226Y13372922D01*
X33920904Y13464828D01*
X33982423Y13552374D01*
X34038319Y13632042D01*
X34086127Y13700316D01*
X34123383Y13753678D01*
X34147622Y13788612D01*
X34152204Y13795290D01*
X34197621Y13861880D01*
X34159484Y13992846D01*
X34139535Y14064805D01*
X34117127Y14151037D01*
X34095671Y14238212D01*
X34085023Y14283874D01*
X34048700Y14443937D01*
X33124422Y14868667D01*
X33124422Y15210367D01*
X35114089Y15210367D01*
X35118653Y15008920D01*
X35133277Y14825487D01*
X35159355Y14651221D01*
X35198285Y14477277D01*
X35251460Y14294808D01*
X35265201Y14252667D01*
X35367958Y13986514D01*
X35494990Y13733137D01*
X35645003Y13494244D01*
X35816704Y13271545D01*
X36008802Y13066746D01*
X36220002Y12881557D01*
X36405256Y12746387D01*
X36503427Y12685496D01*
X36619477Y12621249D01*
X36744979Y12557759D01*
X36871506Y12499138D01*
X36990629Y12449499D01*
X37078398Y12417886D01*
X37211783Y12378698D01*
X37356165Y12343545D01*
X37499112Y12315195D01*
X37620281Y12297310D01*
X37701363Y12290613D01*
X37801662Y12286422D01*
X37912286Y12284739D01*
X38024343Y12285568D01*
X38128938Y12288912D01*
X38217180Y12294775D01*
X38239597Y12297079D01*
X38496243Y12338271D01*
X38742558Y12402577D01*
X38984422Y12491734D01*
X39142811Y12564220D01*
X39313451Y12653845D01*
X39466485Y12747333D01*
X39612376Y12851520D01*
X39738116Y12953203D01*
X39941195Y13143612D01*
X40124317Y13353087D01*
X40286528Y13579828D01*
X40426874Y13822033D01*
X40544400Y14077903D01*
X40638151Y14345637D01*
X40707172Y14623434D01*
X40743753Y14850163D01*
X40748869Y14906508D01*
X40753218Y14982911D01*
X40756464Y15071212D01*
X40758272Y15163248D01*
X40758534Y15210367D01*
X40753969Y15411813D01*
X40739346Y15595246D01*
X40713267Y15769512D01*
X40674338Y15943456D01*
X40621162Y16125925D01*
X40607421Y16168066D01*
X40504664Y16434219D01*
X40377633Y16687596D01*
X40227620Y16926489D01*
X40055918Y17149189D01*
X39863821Y17353987D01*
X39652621Y17539176D01*
X39467367Y17674346D01*
X39369692Y17734942D01*
X39254192Y17798925D01*
X39129253Y17862200D01*
X39003260Y17920674D01*
X38884601Y17970251D01*
X38795171Y18002533D01*
X38525891Y18075526D01*
X38252508Y18120945D01*
X37976932Y18138789D01*
X37701076Y18129060D01*
X37426849Y18091756D01*
X37156162Y18026879D01*
X37077451Y18002533D01*
X36971735Y17963827D01*
X36851505Y17912719D01*
X36725148Y17853304D01*
X36601050Y17789675D01*
X36487596Y17725927D01*
X36405256Y17674346D01*
X36179451Y17506392D01*
X35971696Y17317438D01*
X35783284Y17109190D01*
X35615506Y16883359D01*
X35469657Y16641651D01*
X35347030Y16385776D01*
X35265201Y16168066D01*
X35208706Y15982536D01*
X35166764Y15807476D01*
X35137980Y15634040D01*
X35120957Y15453381D01*
X35114301Y15256654D01*
X35114089Y15210367D01*
X33124422Y15210367D01*
X33124422Y15552066D01*
X34048700Y15976796D01*
X34085023Y16136859D01*
X34104370Y16218485D01*
X34126642Y16306888D01*
X34148431Y16388735D01*
X34159484Y16427887D01*
X34197621Y16558853D01*
X34152204Y16625443D01*
X34132621Y16653779D01*
X34099237Y16701662D01*
X34054518Y16765575D01*
X34000927Y16842001D01*
X33940928Y16927423D01*
X33876988Y17018324D01*
X33856226Y17047811D01*
X33605666Y17403589D01*
X33769374Y17696922D01*
X33815397Y17779318D01*
X33856705Y17853139D01*
X33891360Y17914933D01*
X33917425Y17961250D01*
X33932963Y17988640D01*
X33936509Y17994670D01*
X33950816Y17994168D01*
X33989985Y17990775D01*
X34050843Y17984819D01*
X34130213Y17976627D01*
X34224920Y17966526D01*
X34331790Y17954844D01*
X34438819Y17942903D01*
X34937700Y17886721D01*
X34977913Y17931433D01*
X35001425Y17956633D01*
X35040412Y17997381D01*
X35090507Y18049155D01*
X35147342Y18107434D01*
X35184887Y18145702D01*
X35351648Y18315260D01*
X35303991Y18780702D01*
X35292282Y18894799D01*
X35281231Y19002011D01*
X35271231Y19098557D01*
X35262675Y19180655D01*
X35255957Y19244525D01*
X35251470Y19286385D01*
X35250005Y19299425D01*
X35243677Y19352706D01*
X35500892Y19505705D01*
X35579363Y19552294D01*
X35651240Y19594806D01*
X35712401Y19630814D01*
X35758722Y19657893D01*
X35786080Y19673617D01*
X35789771Y19675650D01*
X35799528Y19679033D01*
X35811989Y19678344D01*
X35829473Y19672059D01*
X35854299Y19658654D01*
X35888788Y19636607D01*
X35935259Y19604392D01*
X35996032Y19560488D01*
X36073426Y19503371D01*
X36169760Y19431517D01*
X36228842Y19387274D01*
X36636248Y19081952D01*
X36774752Y19126345D01*
X36854621Y19150616D01*
X36945014Y19176057D01*
X37029763Y19198165D01*
X37051777Y19203499D01*
X37110329Y19217710D01*
X37157555Y19229858D01*
X37187407Y19238347D01*
X37194685Y19241203D01*
X37201076Y19254854D01*
X37217316Y19291502D01*
X37242125Y19348207D01*
X37274226Y19422030D01*
X37312340Y19510031D01*
X37355188Y19609270D01*
X37399200Y19711477D01*
X37445364Y19818658D01*
X37488012Y19917374D01*
X37525866Y20004690D01*
X37557648Y20077671D01*
X37582080Y20133380D01*
X37597884Y20168884D01*
X37603744Y20181225D01*
X37618528Y20182574D01*
X37656724Y20183673D01*
X37713522Y20184519D01*
X37784113Y20185115D01*
X37863688Y20185458D01*
X37947438Y20185551D01*
X38030552Y20185392D01*
G36*
X36659708Y11285352D02*
X36678927Y11274316D01*
X36670714Y11267630D01*
X36651367Y11266311D01*
X36631693Y11271521D01*
X36630653Y11279806D01*
X36649010Y11287493D01*
X36659708Y11285352D01*
X36659708Y11285352D01*
G37*
X36659708Y11285352D02*
X36678927Y11274316D01*
X36670714Y11267630D01*
X36651367Y11266311D01*
X36631693Y11271521D01*
X36630653Y11279806D01*
X36649010Y11287493D01*
X36659708Y11285352D01*
G36*
X37197387Y17065888D02*
X37390289Y17065595D01*
X37557845Y17065060D01*
X37701491Y17064246D01*
X37822665Y17063115D01*
X37922804Y17061630D01*
X38003347Y17059754D01*
X38065729Y17057448D01*
X38111390Y17054676D01*
X38141765Y17051399D01*
X38158293Y17047581D01*
X38162411Y17043183D01*
X38155556Y17038168D01*
X38148423Y17035404D01*
X38142138Y17020942D01*
X38130920Y16982275D01*
X38115611Y16922821D01*
X38097051Y16846001D01*
X38076081Y16755232D01*
X38053540Y16653936D01*
X38044959Y16614422D01*
X37955160Y16198144D01*
X37101205Y16194508D01*
X36247251Y16190872D01*
X36207880Y16011064D01*
X36192616Y15942273D01*
X36179039Y15882789D01*
X36168502Y15838417D01*
X36162357Y15814964D01*
X36161901Y15813617D01*
X36165580Y15808025D01*
X36183018Y15803671D01*
X36216780Y15800427D01*
X36269434Y15798167D01*
X36343548Y15796763D01*
X36441690Y15796087D01*
X36517273Y15795978D01*
X36879253Y15795978D01*
X37157310Y15376172D01*
X37221673Y15278904D01*
X37281031Y15189018D01*
X37333594Y15109238D01*
X37377573Y15042289D01*
X37411178Y14990893D01*
X37432621Y14957776D01*
X37440071Y14945783D01*
X37427318Y14943752D01*
X37388940Y14941849D01*
X37327535Y14940112D01*
X37245698Y14938578D01*
X37146028Y14937285D01*
X37031122Y14936271D01*
X36903576Y14935573D01*
X36765988Y14935230D01*
X36710771Y14935200D01*
X36547750Y14935152D01*
X36410685Y14934959D01*
X36297309Y14934545D01*
X36205358Y14933835D01*
X36132563Y14932752D01*
X36076659Y14931223D01*
X36035381Y14929170D01*
X36006461Y14926518D01*
X35987634Y14923193D01*
X35976633Y14919118D01*
X35971192Y14914218D01*
X35969548Y14910505D01*
X35964663Y14890354D01*
X35955022Y14847812D01*
X35941574Y14787265D01*
X35925270Y14713100D01*
X35907060Y14629705D01*
X35887892Y14541466D01*
X35868717Y14452770D01*
X35850485Y14368004D01*
X35834146Y14291555D01*
X35820648Y14227809D01*
X35810943Y14181154D01*
X35805979Y14155977D01*
X35805534Y14152933D01*
X35819242Y14151522D01*
X35858760Y14150192D01*
X35921674Y14148963D01*
X36005571Y14147859D01*
X36108037Y14146901D01*
X36226660Y14146112D01*
X36359027Y14145514D01*
X36502724Y14145129D01*
X36655338Y14144979D01*
X36670427Y14144978D01*
X37535320Y14144978D01*
X37823960Y13747396D01*
X37892131Y13653683D01*
X37955573Y13566826D01*
X38012256Y13489580D01*
X38060149Y13424694D01*
X38097224Y13374922D01*
X38121448Y13343016D01*
X38130290Y13332126D01*
X38145502Y13312951D01*
X38147978Y13306375D01*
X38134215Y13305134D01*
X38094315Y13303952D01*
X38030366Y13302843D01*
X37944454Y13301821D01*
X37838664Y13300901D01*
X37715084Y13300097D01*
X37575799Y13299425D01*
X37422896Y13298897D01*
X37258460Y13298530D01*
X37084579Y13298337D01*
X36990852Y13298311D01*
X35833726Y13298311D01*
X35766713Y13384185D01*
X35603274Y13616172D01*
X35462679Y13863112D01*
X35346041Y14122267D01*
X35254475Y14390900D01*
X35189095Y14666276D01*
X35157237Y14881727D01*
X35142859Y15097313D01*
X35144236Y15325227D01*
X35160876Y15554724D01*
X35192282Y15775059D01*
X35200305Y15817144D01*
X35246142Y16004350D01*
X35309278Y16198396D01*
X35386862Y16393055D01*
X35476044Y16582098D01*
X35573974Y16759298D01*
X35677799Y16918427D01*
X35744472Y17006005D01*
X35793312Y17065978D01*
X36977700Y17065978D01*
X37197387Y17065888D01*
X37197387Y17065888D01*
G37*
X37197387Y17065888D02*
X37390289Y17065595D01*
X37557845Y17065060D01*
X37701491Y17064246D01*
X37822665Y17063115D01*
X37922804Y17061630D01*
X38003347Y17059754D01*
X38065729Y17057448D01*
X38111390Y17054676D01*
X38141765Y17051399D01*
X38158293Y17047581D01*
X38162411Y17043183D01*
X38155556Y17038168D01*
X38148423Y17035404D01*
X38142138Y17020942D01*
X38130920Y16982275D01*
X38115611Y16922821D01*
X38097051Y16846001D01*
X38076081Y16755232D01*
X38053540Y16653936D01*
X38044959Y16614422D01*
X37955160Y16198144D01*
X37101205Y16194508D01*
X36247251Y16190872D01*
X36207880Y16011064D01*
X36192616Y15942273D01*
X36179039Y15882789D01*
X36168502Y15838417D01*
X36162357Y15814964D01*
X36161901Y15813617D01*
X36165580Y15808025D01*
X36183018Y15803671D01*
X36216780Y15800427D01*
X36269434Y15798167D01*
X36343548Y15796763D01*
X36441690Y15796087D01*
X36517273Y15795978D01*
X36879253Y15795978D01*
X37157310Y15376172D01*
X37221673Y15278904D01*
X37281031Y15189018D01*
X37333594Y15109238D01*
X37377573Y15042289D01*
X37411178Y14990893D01*
X37432621Y14957776D01*
X37440071Y14945783D01*
X37427318Y14943752D01*
X37388940Y14941849D01*
X37327535Y14940112D01*
X37245698Y14938578D01*
X37146028Y14937285D01*
X37031122Y14936271D01*
X36903576Y14935573D01*
X36765988Y14935230D01*
X36710771Y14935200D01*
X36547750Y14935152D01*
X36410685Y14934959D01*
X36297309Y14934545D01*
X36205358Y14933835D01*
X36132563Y14932752D01*
X36076659Y14931223D01*
X36035381Y14929170D01*
X36006461Y14926518D01*
X35987634Y14923193D01*
X35976633Y14919118D01*
X35971192Y14914218D01*
X35969548Y14910505D01*
X35964663Y14890354D01*
X35955022Y14847812D01*
X35941574Y14787265D01*
X35925270Y14713100D01*
X35907060Y14629705D01*
X35887892Y14541466D01*
X35868717Y14452770D01*
X35850485Y14368004D01*
X35834146Y14291555D01*
X35820648Y14227809D01*
X35810943Y14181154D01*
X35805979Y14155977D01*
X35805534Y14152933D01*
X35819242Y14151522D01*
X35858760Y14150192D01*
X35921674Y14148963D01*
X36005571Y14147859D01*
X36108037Y14146901D01*
X36226660Y14146112D01*
X36359027Y14145514D01*
X36502724Y14145129D01*
X36655338Y14144979D01*
X36670427Y14144978D01*
X37535320Y14144978D01*
X37823960Y13747396D01*
X37892131Y13653683D01*
X37955573Y13566826D01*
X38012256Y13489580D01*
X38060149Y13424694D01*
X38097224Y13374922D01*
X38121448Y13343016D01*
X38130290Y13332126D01*
X38145502Y13312951D01*
X38147978Y13306375D01*
X38134215Y13305134D01*
X38094315Y13303952D01*
X38030366Y13302843D01*
X37944454Y13301821D01*
X37838664Y13300901D01*
X37715084Y13300097D01*
X37575799Y13299425D01*
X37422896Y13298897D01*
X37258460Y13298530D01*
X37084579Y13298337D01*
X36990852Y13298311D01*
X35833726Y13298311D01*
X35766713Y13384185D01*
X35603274Y13616172D01*
X35462679Y13863112D01*
X35346041Y14122267D01*
X35254475Y14390900D01*
X35189095Y14666276D01*
X35157237Y14881727D01*
X35142859Y15097313D01*
X35144236Y15325227D01*
X35160876Y15554724D01*
X35192282Y15775059D01*
X35200305Y15817144D01*
X35246142Y16004350D01*
X35309278Y16198396D01*
X35386862Y16393055D01*
X35476044Y16582098D01*
X35573974Y16759298D01*
X35677799Y16918427D01*
X35744472Y17006005D01*
X35793312Y17065978D01*
X36977700Y17065978D01*
X37197387Y17065888D01*
G36*
X40128150Y17006005D02*
X40236656Y16857885D01*
X40340408Y16687582D01*
X40436682Y16501063D01*
X40522748Y16304297D01*
X40595882Y16103249D01*
X40653355Y15903887D01*
X40674673Y15810089D01*
X40692011Y15711958D01*
X40700561Y15622720D01*
X40700057Y15534620D01*
X40690235Y15439907D01*
X40670830Y15330824D01*
X40655951Y15261780D01*
X40610367Y15059194D01*
X39629645Y14525970D01*
X39476048Y14442533D01*
X39329734Y14363196D01*
X39192578Y14288967D01*
X39066455Y14220855D01*
X38953239Y14159866D01*
X38854806Y14107010D01*
X38773031Y14063294D01*
X38709788Y14029726D01*
X38666952Y14007314D01*
X38646398Y13997066D01*
X38644823Y13996526D01*
X38646964Y14010393D01*
X38654361Y14048183D01*
X38666232Y14106249D01*
X38681794Y14180947D01*
X38700264Y14268629D01*
X38720859Y14365650D01*
X38742795Y14468365D01*
X38765290Y14573127D01*
X38787560Y14676290D01*
X38808823Y14774210D01*
X38828296Y14863240D01*
X38845194Y14939734D01*
X38858736Y15000046D01*
X38868138Y15040530D01*
X38872618Y15057542D01*
X38872770Y15057817D01*
X38885212Y15065136D01*
X38919381Y15084706D01*
X38972425Y15114909D01*
X39041494Y15154126D01*
X39123735Y15200735D01*
X39216298Y15253120D01*
X39291299Y15295517D01*
X39390273Y15351563D01*
X39481487Y15403450D01*
X39562007Y15449491D01*
X39628897Y15487998D01*
X39679224Y15517283D01*
X39710052Y15535659D01*
X39718578Y15541233D01*
X39724228Y15557394D01*
X39734241Y15597084D01*
X39747733Y15656101D01*
X39763820Y15730243D01*
X39781618Y15815309D01*
X39800243Y15907096D01*
X39818811Y16001404D01*
X39836437Y16094031D01*
X39847141Y16152283D01*
X39856701Y16205200D01*
X39333951Y16205200D01*
X39198207Y16205115D01*
X39088049Y16204781D01*
X39000838Y16204079D01*
X38933939Y16202891D01*
X38884713Y16201100D01*
X38850525Y16198585D01*
X38828738Y16195230D01*
X38816713Y16190915D01*
X38811815Y16185522D01*
X38811200Y16181733D01*
X38808253Y16164540D01*
X38799739Y16122034D01*
X38786146Y16056467D01*
X38767963Y15970090D01*
X38745681Y15865154D01*
X38719789Y15743912D01*
X38690775Y15608614D01*
X38659128Y15461513D01*
X38625339Y15304860D01*
X38589897Y15140906D01*
X38553289Y14971904D01*
X38516007Y14800104D01*
X38478539Y14627758D01*
X38441375Y14457118D01*
X38405003Y14290435D01*
X38369913Y14129961D01*
X38336594Y13977947D01*
X38305535Y13836646D01*
X38277227Y13708308D01*
X38252157Y13595185D01*
X38230815Y13499529D01*
X38213691Y13423592D01*
X38201274Y13369624D01*
X38194052Y13339877D01*
X38192598Y13334917D01*
X38186863Y13331134D01*
X38175428Y13337570D01*
X38156791Y13356093D01*
X38129448Y13388569D01*
X38091896Y13436863D01*
X38042633Y13502843D01*
X37980153Y13588373D01*
X37908441Y13687695D01*
X37840759Y13781585D01*
X37776403Y13870508D01*
X37717727Y13951237D01*
X37667084Y14020550D01*
X37626825Y14075222D01*
X37599305Y14112029D01*
X37590179Y14123829D01*
X37545063Y14180291D01*
X37863782Y15623134D01*
X38182502Y17065978D01*
X40079311Y17065978D01*
X40128150Y17006005D01*
X40128150Y17006005D01*
G37*
X40128150Y17006005D02*
X40236656Y16857885D01*
X40340408Y16687582D01*
X40436682Y16501063D01*
X40522748Y16304297D01*
X40595882Y16103249D01*
X40653355Y15903887D01*
X40674673Y15810089D01*
X40692011Y15711958D01*
X40700561Y15622720D01*
X40700057Y15534620D01*
X40690235Y15439907D01*
X40670830Y15330824D01*
X40655951Y15261780D01*
X40610367Y15059194D01*
X39629645Y14525970D01*
X39476048Y14442533D01*
X39329734Y14363196D01*
X39192578Y14288967D01*
X39066455Y14220855D01*
X38953239Y14159866D01*
X38854806Y14107010D01*
X38773031Y14063294D01*
X38709788Y14029726D01*
X38666952Y14007314D01*
X38646398Y13997066D01*
X38644823Y13996526D01*
X38646964Y14010393D01*
X38654361Y14048183D01*
X38666232Y14106249D01*
X38681794Y14180947D01*
X38700264Y14268629D01*
X38720859Y14365650D01*
X38742795Y14468365D01*
X38765290Y14573127D01*
X38787560Y14676290D01*
X38808823Y14774210D01*
X38828296Y14863240D01*
X38845194Y14939734D01*
X38858736Y15000046D01*
X38868138Y15040530D01*
X38872618Y15057542D01*
X38872770Y15057817D01*
X38885212Y15065136D01*
X38919381Y15084706D01*
X38972425Y15114909D01*
X39041494Y15154126D01*
X39123735Y15200735D01*
X39216298Y15253120D01*
X39291299Y15295517D01*
X39390273Y15351563D01*
X39481487Y15403450D01*
X39562007Y15449491D01*
X39628897Y15487998D01*
X39679224Y15517283D01*
X39710052Y15535659D01*
X39718578Y15541233D01*
X39724228Y15557394D01*
X39734241Y15597084D01*
X39747733Y15656101D01*
X39763820Y15730243D01*
X39781618Y15815309D01*
X39800243Y15907096D01*
X39818811Y16001404D01*
X39836437Y16094031D01*
X39847141Y16152283D01*
X39856701Y16205200D01*
X39333951Y16205200D01*
X39198207Y16205115D01*
X39088049Y16204781D01*
X39000838Y16204079D01*
X38933939Y16202891D01*
X38884713Y16201100D01*
X38850525Y16198585D01*
X38828738Y16195230D01*
X38816713Y16190915D01*
X38811815Y16185522D01*
X38811200Y16181733D01*
X38808253Y16164540D01*
X38799739Y16122034D01*
X38786146Y16056467D01*
X38767963Y15970090D01*
X38745681Y15865154D01*
X38719789Y15743912D01*
X38690775Y15608614D01*
X38659128Y15461513D01*
X38625339Y15304860D01*
X38589897Y15140906D01*
X38553289Y14971904D01*
X38516007Y14800104D01*
X38478539Y14627758D01*
X38441375Y14457118D01*
X38405003Y14290435D01*
X38369913Y14129961D01*
X38336594Y13977947D01*
X38305535Y13836646D01*
X38277227Y13708308D01*
X38252157Y13595185D01*
X38230815Y13499529D01*
X38213691Y13423592D01*
X38201274Y13369624D01*
X38194052Y13339877D01*
X38192598Y13334917D01*
X38186863Y13331134D01*
X38175428Y13337570D01*
X38156791Y13356093D01*
X38129448Y13388569D01*
X38091896Y13436863D01*
X38042633Y13502843D01*
X37980153Y13588373D01*
X37908441Y13687695D01*
X37840759Y13781585D01*
X37776403Y13870508D01*
X37717727Y13951237D01*
X37667084Y14020550D01*
X37626825Y14075222D01*
X37599305Y14112029D01*
X37590179Y14123829D01*
X37545063Y14180291D01*
X37863782Y15623134D01*
X38182502Y17065978D01*
X40079311Y17065978D01*
X40128150Y17006005D01*
D15*
X46312534Y11903057D02*
X46264915Y11855438D01*
X46122058Y11807819D01*
X46026820Y11807819D01*
X45883962Y11855438D01*
X45788724Y11950676D01*
X45741105Y12045914D01*
X45693486Y12236390D01*
X45693486Y12379248D01*
X45741105Y12569724D01*
X45788724Y12664962D01*
X45883962Y12760200D01*
X46026820Y12807819D01*
X46122058Y12807819D01*
X46264915Y12760200D01*
X46312534Y12712581D01*
X47217296Y12807819D02*
X46741105Y12807819D01*
X46693486Y12331629D01*
X46741105Y12379248D01*
X46836343Y12426867D01*
X47074439Y12426867D01*
X47169677Y12379248D01*
X47217296Y12331629D01*
X47264915Y12236390D01*
X47264915Y11998295D01*
X47217296Y11903057D01*
X47169677Y11855438D01*
X47074439Y11807819D01*
X46836343Y11807819D01*
X46741105Y11855438D01*
X46693486Y11903057D01*
X88936534Y8482057D02*
X88888915Y8434438D01*
X88746058Y8386819D01*
X88650820Y8386819D01*
X88507962Y8434438D01*
X88412724Y8529676D01*
X88365105Y8624914D01*
X88317486Y8815390D01*
X88317486Y8958248D01*
X88365105Y9148724D01*
X88412724Y9243962D01*
X88507962Y9339200D01*
X88650820Y9386819D01*
X88746058Y9386819D01*
X88888915Y9339200D01*
X88936534Y9291581D01*
X89793677Y9386819D02*
X89603200Y9386819D01*
X89507962Y9339200D01*
X89460343Y9291581D01*
X89365105Y9148724D01*
X89317486Y8958248D01*
X89317486Y8577295D01*
X89365105Y8482057D01*
X89412724Y8434438D01*
X89507962Y8386819D01*
X89698439Y8386819D01*
X89793677Y8434438D01*
X89841296Y8482057D01*
X89888915Y8577295D01*
X89888915Y8815390D01*
X89841296Y8910629D01*
X89793677Y8958248D01*
X89698439Y9005867D01*
X89507962Y9005867D01*
X89412724Y8958248D01*
X89365105Y8910629D01*
X89317486Y8815390D01*
X25817534Y11403057D02*
X25769915Y11355438D01*
X25627058Y11307819D01*
X25531820Y11307819D01*
X25388962Y11355438D01*
X25293724Y11450676D01*
X25246105Y11545914D01*
X25198486Y11736390D01*
X25198486Y11879248D01*
X25246105Y12069724D01*
X25293724Y12164962D01*
X25388962Y12260200D01*
X25531820Y12307819D01*
X25627058Y12307819D01*
X25769915Y12260200D01*
X25817534Y12212581D01*
X26150867Y12307819D02*
X26817534Y12307819D01*
X26388962Y11307819D01*
X64870105Y9529819D02*
X64870105Y10529819D01*
X65108200Y10529819D01*
X65251058Y10482200D01*
X65346296Y10386962D01*
X65393915Y10291724D01*
X65441534Y10101248D01*
X65441534Y9958390D01*
X65393915Y9767914D01*
X65346296Y9672676D01*
X65251058Y9577438D01*
X65108200Y9529819D01*
X64870105Y9529819D01*
X66393915Y9529819D02*
X65822486Y9529819D01*
X66108200Y9529819D02*
X66108200Y10529819D01*
X66012962Y10386962D01*
X65917724Y10291724D01*
X65822486Y10244105D01*
X67171867Y2156105D02*
X67171867Y2632296D01*
X67457581Y2060867D02*
X66457581Y2394200D01*
X67457581Y2727534D01*
X67156105Y23753819D02*
X67156105Y24753819D01*
X67394200Y24753819D01*
X67537058Y24706200D01*
X67632296Y24610962D01*
X67679915Y24515724D01*
X67727534Y24325248D01*
X67727534Y24182390D01*
X67679915Y23991914D01*
X67632296Y23896676D01*
X67537058Y23801438D01*
X67394200Y23753819D01*
X67156105Y23753819D01*
X68108486Y24658581D02*
X68156105Y24706200D01*
X68251343Y24753819D01*
X68489439Y24753819D01*
X68584677Y24706200D01*
X68632296Y24658581D01*
X68679915Y24563343D01*
X68679915Y24468105D01*
X68632296Y24325248D01*
X68060867Y23753819D01*
X68679915Y23753819D01*
X77760534Y24515819D02*
X77427200Y24992010D01*
X77189105Y24515819D02*
X77189105Y25515819D01*
X77570058Y25515819D01*
X77665296Y25468200D01*
X77712915Y25420581D01*
X77760534Y25325343D01*
X77760534Y25182486D01*
X77712915Y25087248D01*
X77665296Y25039629D01*
X77570058Y24992010D01*
X77189105Y24992010D01*
X78712915Y24515819D02*
X78141486Y24515819D01*
X78427200Y24515819D02*
X78427200Y25515819D01*
X78331962Y25372962D01*
X78236724Y25277724D01*
X78141486Y25230105D01*
X71410534Y24515819D02*
X71077200Y24992010D01*
X70839105Y24515819D02*
X70839105Y25515819D01*
X71220058Y25515819D01*
X71315296Y25468200D01*
X71362915Y25420581D01*
X71410534Y25325343D01*
X71410534Y25182486D01*
X71362915Y25087248D01*
X71315296Y25039629D01*
X71220058Y24992010D01*
X70839105Y24992010D01*
X71791486Y25420581D02*
X71839105Y25468200D01*
X71934343Y25515819D01*
X72172439Y25515819D01*
X72267677Y25468200D01*
X72315296Y25420581D01*
X72362915Y25325343D01*
X72362915Y25230105D01*
X72315296Y25087248D01*
X71743867Y24515819D01*
X72362915Y24515819D01*
X60401295Y15101819D02*
X60401295Y14292295D01*
X60448914Y14197057D01*
X60496533Y14149438D01*
X60591771Y14101819D01*
X60782248Y14101819D01*
X60877486Y14149438D01*
X60925105Y14197057D01*
X60972724Y14292295D01*
X60972724Y15101819D01*
X61353676Y15101819D02*
X61972724Y15101819D01*
X61639390Y14720867D01*
X61782248Y14720867D01*
X61877486Y14673248D01*
X61925105Y14625629D01*
X61972724Y14530390D01*
X61972724Y14292295D01*
X61925105Y14197057D01*
X61877486Y14149438D01*
X61782248Y14101819D01*
X61496533Y14101819D01*
X61401295Y14149438D01*
X61353676Y14197057D01*
X89428581Y12419105D02*
X88428581Y12419105D01*
X88428581Y12657200D01*
X88476200Y12800058D01*
X88571438Y12895296D01*
X88666676Y12942915D01*
X88857152Y12990534D01*
X89000010Y12990534D01*
X89190486Y12942915D01*
X89285724Y12895296D01*
X89380962Y12800058D01*
X89428581Y12657200D01*
X89428581Y12419105D01*
X88428581Y13323867D02*
X88428581Y13942915D01*
X88809533Y13609581D01*
X88809533Y13752439D01*
X88857152Y13847677D01*
X88904771Y13895296D01*
X89000010Y13942915D01*
X89238105Y13942915D01*
X89333343Y13895296D01*
X89380962Y13847677D01*
X89428581Y13752439D01*
X89428581Y13466724D01*
X89380962Y13371486D01*
X89333343Y13323867D01*
X89301581Y22261534D02*
X88825390Y21928200D01*
X89301581Y21690105D02*
X88301581Y21690105D01*
X88301581Y22071058D01*
X88349200Y22166296D01*
X88396819Y22213915D01*
X88492057Y22261534D01*
X88634914Y22261534D01*
X88730152Y22213915D01*
X88777771Y22166296D01*
X88825390Y22071058D01*
X88825390Y21690105D01*
X88301581Y23118677D02*
X88301581Y22928200D01*
X88349200Y22832962D01*
X88396819Y22785343D01*
X88539676Y22690105D01*
X88730152Y22642486D01*
X89111105Y22642486D01*
X89206343Y22690105D01*
X89253962Y22737724D01*
X89301581Y22832962D01*
X89301581Y23023439D01*
X89253962Y23118677D01*
X89206343Y23166296D01*
X89111105Y23213915D01*
X88873010Y23213915D01*
X88777771Y23166296D01*
X88730152Y23118677D01*
X88682533Y23023439D01*
X88682533Y22832962D01*
X88730152Y22737724D01*
X88777771Y22690105D01*
X88873010Y22642486D01*
X42835534Y20959819D02*
X42502200Y21436010D01*
X42264105Y20959819D02*
X42264105Y21959819D01*
X42645058Y21959819D01*
X42740296Y21912200D01*
X42787915Y21864581D01*
X42835534Y21769343D01*
X42835534Y21626486D01*
X42787915Y21531248D01*
X42740296Y21483629D01*
X42645058Y21436010D01*
X42264105Y21436010D01*
X43168867Y21959819D02*
X43835534Y21959819D01*
X43406962Y20959819D01*
X32993034Y20959819D02*
X32659700Y21436010D01*
X32421605Y20959819D02*
X32421605Y21959819D01*
X32802558Y21959819D01*
X32897796Y21912200D01*
X32945415Y21864581D01*
X32993034Y21769343D01*
X32993034Y21626486D01*
X32945415Y21531248D01*
X32897796Y21483629D01*
X32802558Y21436010D01*
X32421605Y21436010D01*
X33564462Y21531248D02*
X33469224Y21578867D01*
X33421605Y21626486D01*
X33373986Y21721724D01*
X33373986Y21769343D01*
X33421605Y21864581D01*
X33469224Y21912200D01*
X33564462Y21959819D01*
X33754939Y21959819D01*
X33850177Y21912200D01*
X33897796Y21864581D01*
X33945415Y21769343D01*
X33945415Y21721724D01*
X33897796Y21626486D01*
X33850177Y21578867D01*
X33754939Y21531248D01*
X33564462Y21531248D01*
X33469224Y21483629D01*
X33421605Y21436010D01*
X33373986Y21340771D01*
X33373986Y21150295D01*
X33421605Y21055057D01*
X33469224Y21007438D01*
X33564462Y20959819D01*
X33754939Y20959819D01*
X33850177Y21007438D01*
X33897796Y21055057D01*
X33945415Y21150295D01*
X33945415Y21340771D01*
X33897796Y21436010D01*
X33850177Y21483629D01*
X33754939Y21531248D01*
X58599343Y3211534D02*
X58646962Y3163915D01*
X58694581Y3021058D01*
X58694581Y2925820D01*
X58646962Y2782962D01*
X58551724Y2687724D01*
X58456486Y2640105D01*
X58266010Y2592486D01*
X58123152Y2592486D01*
X57932676Y2640105D01*
X57837438Y2687724D01*
X57742200Y2782962D01*
X57694581Y2925820D01*
X57694581Y3021058D01*
X57742200Y3163915D01*
X57789819Y3211534D01*
X58694581Y4163915D02*
X58694581Y3592486D01*
X58694581Y3878200D02*
X57694581Y3878200D01*
X57837438Y3782962D01*
X57932676Y3687724D01*
X57980295Y3592486D01*
X59367629Y9563248D02*
X59367629Y10325153D01*
X59748581Y9944201D02*
X58986676Y9944201D01*
X73712343Y33945534D02*
X73759962Y33897915D01*
X73807581Y33755058D01*
X73807581Y33659820D01*
X73759962Y33516962D01*
X73664724Y33421724D01*
X73569486Y33374105D01*
X73379010Y33326486D01*
X73236152Y33326486D01*
X73045676Y33374105D01*
X72950438Y33421724D01*
X72855200Y33516962D01*
X72807581Y33659820D01*
X72807581Y33755058D01*
X72855200Y33897915D01*
X72902819Y33945534D01*
X72902819Y34326486D02*
X72855200Y34374105D01*
X72807581Y34469343D01*
X72807581Y34707439D01*
X72855200Y34802677D01*
X72902819Y34850296D01*
X72998057Y34897915D01*
X73093295Y34897915D01*
X73236152Y34850296D01*
X73807581Y34278867D01*
X73807581Y34897915D01*
X79129029Y25184048D02*
X79129029Y25945953D01*
X79509981Y25565001D02*
X78748076Y25565001D01*
X9704343Y15530534D02*
X9751962Y15482915D01*
X9799581Y15340058D01*
X9799581Y15244820D01*
X9751962Y15101962D01*
X9656724Y15006724D01*
X9561486Y14959105D01*
X9371010Y14911486D01*
X9228152Y14911486D01*
X9037676Y14959105D01*
X8942438Y15006724D01*
X8847200Y15101962D01*
X8799581Y15244820D01*
X8799581Y15340058D01*
X8847200Y15482915D01*
X8894819Y15530534D01*
X8799581Y15863867D02*
X8799581Y16482915D01*
X9180533Y16149581D01*
X9180533Y16292439D01*
X9228152Y16387677D01*
X9275771Y16435296D01*
X9371010Y16482915D01*
X9609105Y16482915D01*
X9704343Y16435296D01*
X9751962Y16387677D01*
X9799581Y16292439D01*
X9799581Y16006724D01*
X9751962Y15911486D01*
X9704343Y15863867D01*
X8928248Y20794771D02*
X9690153Y20794771D01*
X9309201Y20413819D02*
X9309201Y21175724D01*
X63981105Y34167819D02*
X63981105Y35167819D01*
X64362058Y35167819D01*
X64457296Y35120200D01*
X64504915Y35072581D01*
X64552534Y34977343D01*
X64552534Y34834486D01*
X64504915Y34739248D01*
X64457296Y34691629D01*
X64362058Y34644010D01*
X63981105Y34644010D01*
X65504915Y34167819D02*
X64933486Y34167819D01*
X65219200Y34167819D02*
X65219200Y35167819D01*
X65123962Y35024962D01*
X65028724Y34929724D01*
X64933486Y34882105D01*
X72871105Y1655819D02*
X72871105Y2655819D01*
X73252058Y2655819D01*
X73347296Y2608200D01*
X73394915Y2560581D01*
X73442534Y2465343D01*
X73442534Y2322486D01*
X73394915Y2227248D01*
X73347296Y2179629D01*
X73252058Y2132010D01*
X72871105Y2132010D01*
X73823486Y2560581D02*
X73871105Y2608200D01*
X73966343Y2655819D01*
X74204439Y2655819D01*
X74299677Y2608200D01*
X74347296Y2560581D01*
X74394915Y2465343D01*
X74394915Y2370105D01*
X74347296Y2227248D01*
X73775867Y1655819D01*
X74394915Y1655819D01*
X6196105Y34421819D02*
X6196105Y35421819D01*
X6577058Y35421819D01*
X6672296Y35374200D01*
X6719915Y35326581D01*
X6767534Y35231343D01*
X6767534Y35088486D01*
X6719915Y34993248D01*
X6672296Y34945629D01*
X6577058Y34898010D01*
X6196105Y34898010D01*
X7624677Y35421819D02*
X7434200Y35421819D01*
X7338962Y35374200D01*
X7291343Y35326581D01*
X7196105Y35183724D01*
X7148486Y34993248D01*
X7148486Y34612295D01*
X7196105Y34517057D01*
X7243724Y34469438D01*
X7338962Y34421819D01*
X7529439Y34421819D01*
X7624677Y34469438D01*
X7672296Y34517057D01*
X7719915Y34612295D01*
X7719915Y34850390D01*
X7672296Y34945629D01*
X7624677Y34993248D01*
X7529439Y35040867D01*
X7338962Y35040867D01*
X7243724Y34993248D01*
X7196105Y34945629D01*
X7148486Y34850390D01*
X9799581Y24230105D02*
X8799581Y24230105D01*
X8799581Y24468200D01*
X8847200Y24611058D01*
X8942438Y24706296D01*
X9037676Y24753915D01*
X9228152Y24801534D01*
X9371010Y24801534D01*
X9561486Y24753915D01*
X9656724Y24706296D01*
X9751962Y24611058D01*
X9799581Y24468200D01*
X9799581Y24230105D01*
X9132914Y25658677D02*
X9799581Y25658677D01*
X8751962Y25420581D02*
X9466248Y25182486D01*
X9466248Y25801534D01*
X11069581Y18134105D02*
X10069581Y18134105D01*
X10069581Y18372200D01*
X10117200Y18515058D01*
X10212438Y18610296D01*
X10307676Y18657915D01*
X10498152Y18705534D01*
X10641010Y18705534D01*
X10831486Y18657915D01*
X10926724Y18610296D01*
X11021962Y18515058D01*
X11069581Y18372200D01*
X11069581Y18134105D01*
X10069581Y19610296D02*
X10069581Y19134105D01*
X10545771Y19086486D01*
X10498152Y19134105D01*
X10450533Y19229343D01*
X10450533Y19467439D01*
X10498152Y19562677D01*
X10545771Y19610296D01*
X10641010Y19657915D01*
X10879105Y19657915D01*
X10974343Y19610296D01*
X11021962Y19562677D01*
X11069581Y19467439D01*
X11069581Y19229343D01*
X11021962Y19134105D01*
X10974343Y19086486D01*
X11069581Y22769534D02*
X10593390Y22436200D01*
X11069581Y22198105D02*
X10069581Y22198105D01*
X10069581Y22579058D01*
X10117200Y22674296D01*
X10164819Y22721915D01*
X10260057Y22769534D01*
X10402914Y22769534D01*
X10498152Y22721915D01*
X10545771Y22674296D01*
X10593390Y22579058D01*
X10593390Y22198105D01*
X10069581Y23102867D02*
X10069581Y23721915D01*
X10450533Y23388581D01*
X10450533Y23531439D01*
X10498152Y23626677D01*
X10545771Y23674296D01*
X10641010Y23721915D01*
X10879105Y23721915D01*
X10974343Y23674296D01*
X11021962Y23626677D01*
X11069581Y23531439D01*
X11069581Y23245724D01*
X11021962Y23150486D01*
X10974343Y23102867D01*
M02*
