G04 #@! TF.FileFunction,Soldermask,Bot*
%FSLAX46Y46*%
G04 Gerber Fmt 4.6, Leading zero omitted, Abs format (unit mm)*
G04 Created by KiCad (PCBNEW 4.0.6+dfsg1-1) date Mon Feb 26 19:47:00 2018*
%MOMM*%
%LPD*%
G01*
G04 APERTURE LIST*
%ADD10C,0.100000*%
%ADD11R,2.100000X2.100000*%
%ADD12O,2.100000X2.100000*%
%ADD13R,2.000000X2.000000*%
%ADD14O,2.000000X2.000000*%
%ADD15C,2.180000*%
%ADD16C,2.398980*%
%ADD17R,2.398980X2.398980*%
%ADD18R,2.900000X2.900000*%
%ADD19C,2.900000*%
%ADD20C,6.800000*%
%ADD21C,1.000000*%
%ADD22C,4.800000*%
G04 APERTURE END LIST*
D10*
D11*
X1981200Y4648200D03*
D12*
X4521200Y4648200D03*
X7061200Y4648200D03*
D13*
X54559200Y23952200D03*
D14*
X21539200Y8712200D03*
X52019200Y23952200D03*
X24079200Y8712200D03*
X49479200Y23952200D03*
X26619200Y8712200D03*
X46939200Y23952200D03*
X29159200Y8712200D03*
X44399200Y23952200D03*
X31699200Y8712200D03*
X41859200Y23952200D03*
X34239200Y8712200D03*
X39319200Y23952200D03*
X36779200Y8712200D03*
X36779200Y23952200D03*
X39319200Y8712200D03*
X34239200Y23952200D03*
X41859200Y8712200D03*
X31699200Y23952200D03*
X44399200Y8712200D03*
X29159200Y23952200D03*
X46939200Y8712200D03*
X26619200Y23952200D03*
X49479200Y8712200D03*
X24079200Y23952200D03*
X52019200Y8712200D03*
X21539200Y23952200D03*
X54559200Y8712200D03*
X18999200Y23952200D03*
X18999200Y8712200D03*
D15*
X57099200Y23952200D03*
X57099200Y8712200D03*
X16459200Y8712200D03*
X16459200Y23952200D03*
D16*
X67005200Y8204200D03*
D17*
X67005200Y4394200D03*
D14*
X85039200Y20396200D03*
X82499200Y20396200D03*
X79959200Y20396200D03*
X77419200Y20396200D03*
X74879200Y20396200D03*
X72339200Y20396200D03*
X69799200Y20396200D03*
X67259200Y20396200D03*
X64719200Y20396200D03*
X62179200Y20396200D03*
X62179200Y12776200D03*
X64719200Y12776200D03*
X67259200Y12776200D03*
X69799200Y12776200D03*
X72339200Y12776200D03*
X74879200Y12776200D03*
X77419200Y12776200D03*
X79959200Y12776200D03*
X82499200Y12776200D03*
X85039200Y12776200D03*
D11*
X52171600Y34366200D03*
D12*
X54711600Y34366200D03*
D11*
X52171600Y31165800D03*
D12*
X54711600Y31165800D03*
D11*
X81330800Y27813000D03*
D12*
X83870800Y27813000D03*
X86410800Y27813000D03*
D11*
X81280000Y23850600D03*
D12*
X83820000Y23850600D03*
X86360000Y23850600D03*
D11*
X7569200Y9982200D03*
D12*
X5029200Y9982200D03*
X2489200Y9982200D03*
D11*
X54559200Y28016200D03*
D12*
X52019200Y28016200D03*
X49479200Y28016200D03*
X46939200Y28016200D03*
X44399200Y28016200D03*
X41859200Y28016200D03*
X39319200Y28016200D03*
X36779200Y28016200D03*
X34239200Y28016200D03*
X31699200Y28016200D03*
X29159200Y28016200D03*
X26619200Y28016200D03*
X24079200Y28016200D03*
X21539200Y28016200D03*
X18999200Y28016200D03*
D11*
X18999200Y4648200D03*
D12*
X21539200Y4648200D03*
X24079200Y4648200D03*
X26619200Y4648200D03*
X29159200Y4648200D03*
X31699200Y4648200D03*
X34239200Y4648200D03*
X36779200Y4648200D03*
X39319200Y4648200D03*
X41859200Y4648200D03*
X44399200Y4648200D03*
X46939200Y4648200D03*
X49479200Y4648200D03*
X52019200Y4648200D03*
X54559200Y4648200D03*
D11*
X34188400Y31470600D03*
D12*
X36728400Y31470600D03*
X39268400Y31470600D03*
X41808400Y31470600D03*
D11*
X7569200Y12776200D03*
D12*
X5029200Y12776200D03*
X2489200Y12776200D03*
D18*
X67259200Y31318200D03*
D19*
X62259200Y31318200D03*
D18*
X71069200Y5410200D03*
D19*
X76069200Y5410200D03*
D18*
X9601200Y31572200D03*
D19*
X4601200Y31572200D03*
D11*
X10363200Y4648200D03*
D12*
X12903200Y4648200D03*
X15443200Y4648200D03*
D20*
X85293200Y4902200D03*
D21*
X87693200Y4902200D03*
X86990256Y3205144D03*
X85293200Y2502200D03*
X83596144Y3205144D03*
X82893200Y4902200D03*
X83596144Y6599256D03*
X85293200Y7302200D03*
X86990256Y6599256D03*
D20*
X15697200Y32842200D03*
D21*
X18097200Y32842200D03*
X17394256Y31145144D03*
X15697200Y30442200D03*
X14000144Y31145144D03*
X13297200Y32842200D03*
X14000144Y34539256D03*
X15697200Y35242200D03*
X17394256Y34539256D03*
D22*
X17475200Y12522200D03*
X86817200Y33350200D03*
M02*
